<svg width="43" height="41" viewBox="0 0 43 41" fill="none" xmlns="http://www.w3.org/2000/svg">
<path fill-rule="evenodd" clip-rule="evenodd" d="M3.59712 0.975349C2.73724 1.28001 1.77013 2.19458 1.30383 3.14408C0.96738 3.82929 0.903812 4.13653 0.912259 5.03592C0.927579 6.65989 1.19259 7.08253 3.88804 9.78271C6.54154 12.4409 7.01557 12.8199 7.97438 13.05L8.67033 13.2169L8.74077 13.9489C8.80118 14.5789 8.89281 14.7574 9.39663 15.2274C9.91304 15.7091 10.0667 15.7736 10.6969 15.7736C11.09 15.7736 11.579 15.6975 11.7834 15.6043C12.1392 15.4421 12.2211 15.5005 13.6894 16.9644C14.5333 17.8056 15.2986 18.4939 15.3901 18.4939C15.6307 18.4939 16.0065 18.0818 16.0065 17.818C16.0065 17.6937 15.3307 16.9064 14.5049 16.0683L13.0032 14.5444L13.8627 13.694L14.7222 12.8434L19.337 17.4583L23.9518 22.0731H22.2312H20.5106L19.1533 20.7078C17.9713 19.5188 17.7407 19.3477 17.3666 19.3835C17.0284 19.4157 16.9283 19.5006 16.8957 19.7824C16.8639 20.0578 17.0535 20.337 17.7189 20.9949C18.1945 21.4648 18.5835 21.8974 18.5835 21.9563C18.5835 22.015 15.314 22.0814 11.3177 22.1039L4.05182 22.1447L3.32696 22.5272C2.46049 22.9845 1.62768 23.8683 1.20805 24.7758C0.911257 25.4177 0.902094 25.6137 0.902094 31.3075C0.902094 37.1133 0.905674 37.1846 1.22523 37.8262C1.7571 38.8938 2.3524 39.4957 3.37363 39.9986L4.33172 40.4704L13.9636 40.5109C20.5978 40.5389 23.6844 40.5039 23.8812 40.3985C24.25 40.2012 24.2555 39.5972 23.8902 39.4016C23.7199 39.3104 22.1944 39.2534 19.9273 39.2534H16.2413L16.8755 38.7281C21.0581 35.2646 23.8776 29.5239 23.8802 24.4667C23.8807 23.7041 23.9376 23.3308 24.0609 23.2834C24.16 23.2455 26.3344 23.2315 28.8929 23.2522L33.5447 23.29L32.8289 23.7851C29.8912 25.8173 27.9103 29.1596 27.453 32.8558C27.2607 34.4106 27.3727 34.9583 27.8832 34.9583C28.3318 34.9583 28.5663 34.4104 28.6492 33.1687C28.8247 30.5413 30.2193 27.7019 32.2737 25.7895C33.2172 24.9111 34.1241 24.3052 35.4091 23.6951C36.4489 23.2013 36.5277 23.1865 37.8063 23.2465C38.7971 23.293 39.2793 23.387 39.7304 23.621C40.3235 23.929 41.1165 24.7561 41.0326 24.9791C41.0089 25.0421 40.5064 25.1162 39.9158 25.1438C38.4838 25.2108 37.6471 25.4294 36.209 26.112C33.7778 27.266 31.8105 29.8034 31.2371 32.5245C30.8348 34.4336 31.2672 37.3052 32.1803 38.7881L32.4668 39.2534H29.453C27.6492 39.2534 26.3279 39.313 26.1621 39.4016C25.7947 39.5982 25.8024 40.2012 26.1749 40.4006C26.374 40.5072 28.4681 40.5422 32.8681 40.513C39.2021 40.4708 39.2793 40.4668 39.9874 40.1412C41.367 39.5067 42.4349 38.1391 42.5929 36.8044C42.6592 36.2449 42.7119 36.1182 42.7926 36.3245C42.8529 36.4787 42.8992 34.1566 42.8953 31.1644C42.8916 28.1721 42.8393 25.9172 42.7792 26.1534C42.6748 26.5637 42.6691 26.5567 42.6529 25.9974C42.6286 25.1532 41.8839 23.7548 41.1299 23.1368C39.8862 22.1178 39.609 22.0731 34.5262 22.0731C31.548 22.0731 29.812 22.0171 29.4532 21.9097C27.712 21.388 26.7844 19.361 27.5803 17.8168C28.2711 16.4763 30.1659 16.3078 30.6812 17.5409C31.3833 19.2213 33.6931 19.2055 34.198 17.5169C34.3305 17.0746 34.3073 16.8616 34.0527 16.1821C33.6316 15.0578 32.8001 14.1651 31.6432 13.5956C30.7655 13.1635 30.576 13.125 29.3242 13.125C28.0908 13.125 27.8701 13.1681 27.0048 13.5781C25.6826 14.2045 24.844 15.0217 24.2127 16.2992C23.7675 17.1997 23.6774 17.5484 23.6063 18.6433L23.5229 19.9296L19.5456 15.9494L15.5684 11.9692L15.8045 11.4959C16.4217 10.2587 15.4364 8.65582 13.9924 8.54816C13.3956 8.50363 13.3561 8.47342 13.2542 7.98321C13.0449 6.9753 12.5677 6.36826 9.97031 3.80524C7.74918 1.6136 7.23606 1.17808 6.63918 0.97764C5.78131 0.689726 4.40617 0.68858 3.59712 0.975349ZM4.13415 2.07317C3.86441 2.16723 3.62274 2.30883 3.59697 2.388C3.57135 2.46717 5.28795 4.26882 7.41201 6.39174L11.2737 10.2514L11.7072 9.83597C12.2363 9.32915 12.2836 8.58552 11.8478 7.62514C11.4474 6.7425 7.29204 2.58142 6.41412 2.18413C5.69312 1.8577 4.86775 1.81761 4.13415 2.07317ZM2.39865 3.5408C2.28568 3.67696 2.17387 4.20983 2.14266 4.76089C2.09856 5.54231 2.14824 5.86487 2.38963 6.36368C2.72722 7.06105 6.91521 11.2904 7.63292 11.6589C7.87015 11.7806 8.35793 11.9244 8.71686 11.9782C9.29211 12.0644 9.42297 12.0308 9.82442 11.693C10.0748 11.4823 10.2797 11.2347 10.2797 11.1427C10.2797 11.0508 8.55164 9.24825 6.43946 7.13722C2.96731 3.66679 2.58004 3.32218 2.39865 3.5408ZM11.6062 11.5305C9.72792 13.4238 9.55297 13.7584 10.1365 14.3419C10.7169 14.9223 11.063 14.7471 12.8935 12.946C13.8339 12.0207 14.653 11.1349 14.7139 10.9775C14.8361 10.6615 14.6525 10.042 14.3868 9.87305C14.2933 9.81349 14.0246 9.76395 13.7895 9.76266C13.4316 9.7608 13.0765 10.0484 11.6062 11.5305ZM28.3739 14.3262C26.9 14.7057 25.535 15.9132 25.0741 17.2454C24.6038 18.6047 24.8131 20.6454 25.536 21.7487C25.7141 22.0205 25.8759 22.0731 26.5336 22.0731H27.3187L26.8868 21.4769C26.4116 20.8209 26.0283 19.7036 26.0283 18.9743C26.0283 18.2516 26.5755 16.9541 27.1025 16.4271C27.589 15.9404 28.6564 15.4867 29.3109 15.4882C30.3632 15.4904 31.3767 16.1486 31.7627 17.0803C31.9567 17.5489 32.506 17.7597 32.8308 17.4901C33.4973 16.9369 32.3347 15.1371 30.932 14.551C30.2939 14.2844 28.9835 14.1693 28.3739 14.3262ZM4.12341 23.5164C3.33383 23.8737 2.75299 24.4083 2.3922 25.1097C2.16456 25.5525 2.11904 25.9518 2.11904 27.5078C2.11904 29.6369 2.03342 29.5305 3.45008 29.1616C6.02713 28.4902 8.4361 26.1879 9.10642 23.7553L9.25446 23.2184L7.01099 23.2216C5.0646 23.2243 4.68234 23.2634 4.12341 23.5164ZM10.4193 23.5857C10.3425 23.7877 10.2797 24.0246 10.2797 24.1121C10.2797 24.1997 10.0206 24.8068 9.70373 25.4611C8.44068 28.0706 5.73278 30.0927 2.97805 30.4833L2.19062 30.595L2.14924 31.846C2.11087 33.0054 2.12834 33.0971 2.38719 33.0971C3.07168 33.0971 4.91599 32.6463 5.86821 32.2463C6.44104 32.0055 6.98365 31.8086 7.07399 31.8086C7.36133 31.8086 7.59441 32.2227 7.50579 32.5757C7.37021 33.1158 5.43513 33.8607 3.40756 34.1533L2.19062 34.329L2.1491 35.5863L2.10758 36.8436L3.0797 36.7428C8.75093 36.1547 13.6911 32.3968 15.8033 27.0641C16.194 26.0778 16.7197 24.06 16.7213 23.5406L16.7223 23.2184H13.6406H10.5589L10.4193 23.5857ZM17.9523 23.5406C17.3332 26.6541 16.6168 28.5627 15.34 30.4995C14.2957 32.0835 12.1294 34.2498 10.5454 35.2941C8.59359 36.5807 5.86979 37.5985 3.58652 37.8945C3.17305 37.948 2.83488 38.0469 2.83488 38.1142C2.83488 38.3052 3.7128 38.91 4.25212 39.0905C4.5764 39.199 6.30102 39.2534 9.41968 39.2534H14.1005L15.0087 38.645C16.1429 37.885 18.1752 35.9 19.075 34.6732C21.2565 31.6988 22.4829 28.3557 22.6862 24.8291L22.7791 23.2184H20.3976C18.0425 23.2184 18.0156 23.222 17.9523 23.5406ZM0.895509 31.3075C0.895365 34.2998 0.914407 35.5442 0.9376 34.073C0.960937 32.6018 0.960937 30.1536 0.937744 28.6325C0.91455 27.1115 0.895509 28.3153 0.895509 31.3075ZM38.2155 26.5941C35.8641 27.2265 33.7409 29.1027 32.8287 31.3545C31.889 33.674 32.1378 36.4805 33.4696 38.5804L33.8964 39.2534H35.4734H37.0505L36.5625 38.614C35.9696 37.8375 35.5414 36.7364 35.4038 35.6348C35.2948 34.7625 35.4422 34.3837 35.8887 34.3878C36.345 34.3921 36.4967 34.6394 36.6328 35.6007C36.8028 36.8015 37.3098 37.7648 38.2195 38.6157L38.908 39.2596L39.4201 39.0455C40.29 38.6822 40.7353 38.279 41.1204 37.5063L41.4906 36.7633V31.5658V26.3682L40.2379 26.3776C39.549 26.3828 38.6389 26.4801 38.2155 26.5941Z" fill="#325AE1"/>
</svg>
