<svg width="45" height="45" viewBox="0 0 45 45" fill="none" xmlns="http://www.w3.org/2000/svg">
<path fill-rule="evenodd" clip-rule="evenodd" d="M19.4193 16.1537V8.86956C19.4193 7.6574 20.2848 6.64286 21.4052 6.64286H24.7135V5.85556C24.7135 4.84544 23.8961 4 22.8379 4H10.6985C9.66578 4 8.82353 4.81897 8.82353 5.85556V14.2982C8.82353 15.3083 9.66578 16.1537 10.6985 16.1537H12.9867V18.6233C12.9867 18.91 13.3161 19.0776 13.5468 18.9086L17.2059 16.1537H19.4193ZM13.8851 11.4419H14.8957C14.8957 11.1791 14.9301 10.9339 14.9989 10.7066C15.0677 10.4793 15.2018 10.275 15.401 10.0938C15.6328 9.88071 15.8519 9.65692 16.0584 9.42247C16.2649 9.18803 16.4333 8.9376 16.5637 8.67118C16.6977 8.40121 16.7647 8.10637 16.7647 7.78667C16.7647 7.37106 16.6796 7.01229 16.5093 6.71035C16.3391 6.40486 16.091 6.17041 15.765 6.00701C15.4426 5.84361 15.0514 5.7619 14.5914 5.7619C14.1749 5.7619 13.7982 5.83828 13.4613 5.99102C13.1245 6.14377 12.8564 6.36401 12.6572 6.65174C12.4616 6.93947 12.3602 7.28403 12.3529 7.68544H13.3581C13.3617 7.43678 13.4215 7.23608 13.5374 7.08333C13.6533 6.92704 13.8054 6.81159 13.9938 6.73699C14.1821 6.66239 14.3813 6.6251 14.5914 6.6251C14.845 6.6251 15.0569 6.67305 15.2271 6.76896C15.401 6.86487 15.5314 7.00163 15.6183 7.17924C15.7089 7.35685 15.7541 7.56821 15.7541 7.81332C15.7541 8.05487 15.7107 8.26267 15.6237 8.43673C15.5368 8.60724 15.4227 8.76709 15.2814 8.91628C15.1438 9.06192 14.9917 9.21822 14.8251 9.38518C14.5969 9.61607 14.4139 9.8221 14.2763 10.0033C14.1387 10.1844 14.039 10.3851 13.9775 10.6054C13.9195 10.8221 13.8887 11.1009 13.8851 11.4419ZM13.8416 13.131C13.8416 12.9711 13.8924 12.8362 13.9938 12.726C14.0952 12.6159 14.2419 12.5609 14.4339 12.5609C14.6295 12.5609 14.778 12.6159 14.8794 12.726C14.9808 12.8362 15.0315 12.9711 15.0315 13.131C15.0315 13.2837 14.9808 13.4152 14.8794 13.5253C14.778 13.6354 14.6295 13.6905 14.4339 13.6905C14.2419 13.6905 14.0952 13.6354 13.9938 13.5253C13.8924 13.4152 13.8416 13.2837 13.8416 13.131Z" fill="white"/>
<path fill-rule="evenodd" clip-rule="evenodd" d="M20.2941 9.37937V16.0599C20.2941 17.0965 21.1364 17.9155 22.169 17.9155H26.3876L30.0467 20.6703C30.2774 20.8394 30.6068 20.6717 30.6068 20.385V17.9155H33.4192C34.4519 17.9155 35.2941 17.07 35.2941 16.0599V9.37937C35.2941 8.34278 34.4519 7.52381 33.4192 7.52381H22.1696C21.1115 7.52381 20.2941 8.36925 20.2941 9.37937ZM22.5 14.5714H29.5588C29.8025 14.5714 30 14.7686 30 15.0119C30 15.2552 29.8025 15.4524 29.5588 15.4524H22.5C22.2563 15.4524 22.0588 15.2552 22.0588 15.0119C22.0588 14.7686 22.2563 14.5714 22.5 14.5714ZM31.3235 12.8095H22.5C22.2563 12.8095 22.0588 13.0067 22.0588 13.25C22.0588 13.4933 22.2563 13.6905 22.5 13.6905H31.3235C31.5672 13.6905 31.7647 13.4933 31.7647 13.25C31.7647 13.0067 31.5672 12.8095 31.3235 12.8095ZM22.5 11.0476H33.0882C33.3319 11.0476 33.5294 11.2448 33.5294 11.4881C33.5294 11.7314 33.3319 11.9286 33.0882 11.9286H22.5C22.2563 11.9286 22.0588 11.7314 22.0588 11.4881C22.0588 11.2448 22.2563 11.0476 22.5 11.0476ZM33.0882 9.28571H22.5C22.2563 9.28571 22.0588 9.48292 22.0588 9.72619C22.0588 9.96946 22.2563 10.1667 22.5 10.1667H33.0882C33.3319 10.1667 33.5294 9.96946 33.5294 9.72619C33.5294 9.48292 33.3319 9.28571 33.0882 9.28571Z" fill="white"/>
<path fill-rule="evenodd" clip-rule="evenodd" d="M9.26471 28.6667C11.7015 28.6667 13.6765 26.6945 13.6765 24.2619C13.6765 21.8293 11.7015 19.8571 9.26471 19.8571C6.82789 19.8571 4.85294 21.8293 4.85294 24.2619C4.85294 26.6945 6.82789 28.6667 9.26471 28.6667ZM14.5588 24.2619C14.5588 27.181 12.1889 29.5476 9.26471 29.5476C6.34053 29.5476 3.97059 27.181 3.97059 24.2619C3.97059 21.3428 6.34053 18.9762 9.26471 18.9762C12.1889 18.9762 14.5588 21.3428 14.5588 24.2619Z" fill="white"/>
<path fill-rule="evenodd" clip-rule="evenodd" d="M17.0984 40.119C17.1831 40.1192 17.3033 40.0797 17.4249 39.9301C17.5481 39.7786 17.6471 39.537 17.6471 39.2377C17.6471 34.6798 14.6701 31.3095 11.3617 31.3095H7.16774C3.85973 31.3095 0.882353 34.6798 0.882353 39.2377C0.882353 39.5346 0.980955 39.776 1.10486 39.9283C1.22737 40.0789 1.34855 40.119 1.43355 40.119H17.0984ZM17.0967 41C17.8883 41.0015 18.5294 40.2136 18.5294 39.2377C18.5294 34.3731 15.3199 30.4286 11.3617 30.4286H7.16774C3.20997 30.4286 0 34.3731 0 39.2377C0 40.2106 0.641912 41 1.43355 41H17.0967Z" fill="white"/>
<path fill-rule="evenodd" clip-rule="evenodd" d="M35.7353 28.6667C38.1721 28.6667 40.1471 26.6945 40.1471 24.2619C40.1471 21.8293 38.1721 19.8571 35.7353 19.8571C33.2985 19.8571 31.3235 21.8293 31.3235 24.2619C31.3235 26.6945 33.2985 28.6667 35.7353 28.6667ZM41.0294 24.2619C41.0294 27.181 38.6595 29.5476 35.7353 29.5476C32.8111 29.5476 30.4412 27.181 30.4412 24.2619C30.4412 21.3428 32.8111 18.9762 35.7353 18.9762C38.6595 18.9762 41.0294 21.3428 41.0294 24.2619Z" fill="white"/>
<path fill-rule="evenodd" clip-rule="evenodd" d="M43.569 40.119C43.6537 40.1192 43.7739 40.0797 43.8955 39.9301C44.0187 39.7786 44.1176 39.537 44.1176 39.2377C44.1176 34.6798 41.1407 31.3095 37.8323 31.3095H33.6383C30.3303 31.3095 27.3529 34.6798 27.3529 39.2377C27.3529 39.5346 27.4515 39.776 27.5755 39.9283C27.698 40.0789 27.8191 40.119 27.9041 40.119H43.569ZM43.5673 41C44.3589 41.0015 45 40.2136 45 39.2377C45 34.3731 41.7904 30.4286 37.8323 30.4286H33.6383C29.6806 30.4286 26.4706 34.3731 26.4706 39.2377C26.4706 40.2106 27.1125 41 27.9041 41H43.5673Z" fill="white"/>
</svg>
