<svg width="45" height="45" viewBox="0 0 45 45" fill="none" xmlns="http://www.w3.org/2000/svg">
<path fill-rule="evenodd" clip-rule="evenodd" d="M11.5 1.25C10.5748 1.25 9.875 1.97483 9.875 2.8125V10H18.875V2.8125C18.875 1.97483 18.1751 1.25 17.25 1.25H11.5ZM27.5 22.5C27.5 18.4864 24.2302 15.3125 20.125 15.3125H8.625C4.51822 15.3125 1.25 18.4862 1.25 22.5V40.7812C1.25 42.3944 2.59523 43.75 4.3125 43.75H24.4375C26.154 43.75 27.5 42.3942 27.5 40.7812V22.5ZM11.5 0C9.90976 0 8.625 1.25947 8.625 2.8125V11.25H20.125V2.8125C20.125 1.25947 18.8402 0 17.25 0H11.5ZM28.75 22.5C28.75 17.7627 24.8867 14.0625 20.125 14.0625H8.625C3.86148 14.0625 0 17.7627 0 22.5V40.7812C0 43.1103 1.93074 45 4.3125 45H24.4375C26.8184 45 28.75 43.1103 28.75 40.7812V22.5Z" fill="white"/>
<path d="M41.0977 17.0684L42.1875 19.6875L44.8066 20.7773C44.9121 20.8301 45 20.9707 45 21.0937C45 21.2168 44.9121 21.2783 44.8066 21.4102L42.1875 22.5L41.0977 25.1191C40.9658 25.2246 40.9043 25.3125 40.7812 25.3125C40.6582 25.3125 40.5176 25.2246 40.4648 25.1191L39.375 22.5L36.7559 21.4102C36.5713 21.2783 36.5625 21.2168 36.5625 21.0937C36.5625 20.9707 36.5713 20.8301 36.7559 20.7773L39.375 19.6875L40.4648 17.0684C40.5176 16.9629 40.6582 16.875 40.7812 16.875C40.9043 16.875 40.9658 16.9629 41.0977 17.0684Z" fill="white"/>
<path d="M39.375 12.6562C39.375 12.7793 39.2871 12.8408 39.1816 12.9727L36.5625 14.0625L35.4727 16.6816C35.3408 16.7871 35.2793 16.875 35.1562 16.875C35.0332 16.875 34.8926 16.7871 34.8398 16.6816L33.75 14.0625L31.1309 12.9727C30.9463 12.8408 30.9375 12.7793 30.9375 12.6562C30.9375 12.5332 30.9463 12.3926 31.1309 12.3398L33.75 11.25L34.8398 8.63262C34.8926 8.52539 35.0332 8.4375 35.1562 8.4375C35.2793 8.4375 35.3408 8.52539 35.4727 8.63262L36.5625 11.25L39.1816 12.3398C39.2871 12.3926 39.375 12.5332 39.375 12.6562Z" fill="white"/>
<path d="M40.4648 8.24238L39.375 5.625L36.7559 4.5334C36.5713 4.47978 36.5625 4.33828 36.5625 4.21875C36.5625 4.09746 36.5713 3.95771 36.7559 3.9041L39.375 2.8125L40.4648 0.195029C40.5176 0.0878901 40.6582 0 40.7812 0C40.9043 0 40.9658 0.0878901 41.0977 0.195029L42.1875 2.8125L44.8066 3.9041C44.9121 3.95771 45 4.09746 45 4.21875C45 4.33828 44.9121 4.47978 44.8066 4.5334L42.1875 5.625L41.0977 8.24238C40.9658 8.34961 40.9043 8.4375 40.7812 8.4375C40.6582 8.4375 40.5176 8.34961 40.4648 8.24238Z" fill="white"/>
<path d="M33.75 4.21875C33.75 4.33828 33.6621 4.47978 33.5566 4.5334L30.9375 5.625L29.8477 8.24238C29.7158 8.34961 29.6543 8.4375 29.5312 8.4375C29.4082 8.4375 29.2676 8.34961 29.2148 8.24238L28.125 5.625L25.5059 4.5334C25.3213 4.47978 25.3125 4.33828 25.3125 4.21875C25.3125 4.09746 25.3213 3.95771 25.5059 3.9041L28.125 2.8125L29.2148 0.195029C29.2676 0.0878901 29.4082 0 29.5312 0C29.6543 0 29.7158 0.0878901 29.8477 0.195029L30.9375 2.8125L33.5566 3.9041C33.6621 3.95771 33.75 4.09746 33.75 4.21875Z" fill="white"/>
<path fill-rule="evenodd" clip-rule="evenodd" d="M10.5752 23.5603C10.3313 23.7028 10.2191 23.8938 10.2191 24.1668C10.2191 24.3676 10.3638 24.5739 10.9641 25.2283L11.7092 26.0406L11.5419 26.3787C11.4125 26.6405 11.3673 26.9124 11.3418 27.5831L11.3089 28.4495H10.0664L9.66756 27.6592C9.20609 26.7449 9.04506 26.5619 8.70228 26.5619C8.40017 26.5619 8.16176 26.8398 8.16176 27.1921C8.16176 27.4751 9.1143 29.4298 9.36141 29.654C9.49593 29.776 9.68228 29.8019 10.4257 29.8019H11.3269V31.5769H10.3911C9.52086 31.5769 9.44418 31.5901 9.29542 31.767C9.00779 32.1091 8.16176 33.9177 8.16176 34.1907C8.16176 34.54 8.4069 34.7887 8.75118 34.7887C9.07466 34.7887 9.22326 34.6038 9.7527 33.5421L10.1004 32.8449L11.3152 32.8447L11.5229 33.3307C12.3535 35.2747 14.7103 35.6685 16.0424 34.0858C16.2337 33.8585 16.4527 33.4849 16.5289 33.2555L16.6676 32.8385L17.9308 32.887L18.3281 33.6634C18.8258 34.6363 18.9555 34.7887 19.2857 34.7887C19.584 34.7887 19.8726 34.4712 19.8726 34.1428C19.8726 33.8812 18.9539 32.025 18.6758 31.7248C18.4667 31.499 18.4353 31.4923 17.584 31.4923H16.7075V29.8164L17.6155 29.788C18.399 29.7635 18.5444 29.7365 18.6761 29.5906C18.9195 29.3207 19.8726 27.3612 19.8726 27.1304C19.8726 26.8658 19.5426 26.5055 19.3004 26.5055C18.9835 26.5055 18.7824 26.7388 18.3516 27.6061L17.934 28.4469L16.7075 28.4495L16.7055 27.7944C16.704 27.3289 16.6486 26.9682 16.5139 26.5477L16.3243 25.9561L17.0698 25.1438C17.6372 24.5256 17.8153 24.2774 17.8153 24.1046C17.8153 23.7844 17.4906 23.4629 17.1661 23.4616C16.9394 23.4608 16.8095 23.5671 16.1729 24.2748L15.4405 25.089L15.0255 24.8936C14.4457 24.6206 13.5871 24.6215 13.0048 24.8955L12.5857 25.0927L11.8091 24.2777C11.0366 23.467 10.8853 23.379 10.5752 23.5603ZM12.6771 26.9547C12.7883 26.6404 13.1288 26.2587 13.4237 26.1181C14.2148 25.741 15.1915 26.2784 15.4333 27.2239C15.5454 27.6623 15.549 31.8494 15.4378 32.4034C15.34 32.8909 14.969 33.4086 14.5993 33.5736C13.9296 33.8726 13.1091 33.5915 12.7701 32.9471C12.5969 32.6178 12.5929 32.5502 12.5929 29.9015C12.5929 28.1931 12.624 27.1048 12.6771 26.9547Z" fill="white"/>
<path fill-rule="evenodd" clip-rule="evenodd" d="M20.9163 36.7986C17.0382 40.6767 10.7561 40.6767 6.8781 36.7986C3.00006 32.9206 3.00006 26.6385 6.8781 22.7605C10.7561 18.8825 17.0382 18.8825 20.9162 22.7605C24.7943 26.6385 24.7943 32.9206 20.9163 36.7986ZM7.36387 35.3773L19.4949 23.2463C16.1139 20.3426 11.0177 20.4926 7.81398 23.6964C4.61021 26.9001 4.46018 31.9963 7.36387 35.3773ZM8.29977 36.3131C11.6808 39.2166 16.7767 39.0664 19.9804 35.8628C23.184 32.6591 23.3342 27.5632 20.4307 24.1822L8.29977 36.3131Z" fill="white"/>
</svg>
