<svg width="55" height="36" viewBox="0 0 55 36" fill="none" xmlns="http://www.w3.org/2000/svg">
<path d="M10.5 23.834C13.8141 23.834 16.5 21.1476 16.5 17.834C16.5 14.5205 13.8141 11.834 10.5 11.834C7.18594 11.834 4.5 14.5205 4.5 17.834C4.5 21.1476 7.18594 23.834 10.5 23.834ZM12.8766 26.084H8.12344C3.63797 26.084 0 29.7215 0 34.2075C0 35.1047 0.7275 35.8326 1.62469 35.8326H19.3762C20.2734 35.834 21 35.1075 21 34.2075C21 29.7215 17.3625 26.084 12.8766 26.084Z" fill="white"/>
<path d="M34 2.94035V12.5239C34 13.7005 33.0454 14.6302 31.8751 14.6302H27.094L22.9471 17.7573C22.6856 17.9492 22.3123 17.7589 22.3123 17.4335V14.6302H19.1249C17.9546 14.6302 17 13.6705 17 12.5239V2.94035C17 1.76369 17.9546 0.834045 19.1249 0.834045H31.8744C33.0737 0.834045 34 1.79373 34 2.94035Z" fill="white"/>
<path d="M44.5 23.834C47.8141 23.834 50.5 21.1476 50.5 17.834C50.5 14.5205 47.8141 11.834 44.5 11.834C41.1859 11.834 38.5 14.5205 38.5 17.834C38.5 21.1476 41.1859 23.834 44.5 23.834ZM46.8766 26.084H42.1234C37.638 26.084 34 29.7215 34 34.2075C34 35.1047 34.7275 35.8326 35.6247 35.8326H53.3763C54.2734 35.834 55 35.1075 55 34.2075C55 29.7215 51.3625 26.084 46.8766 26.084Z" fill="white"/>
</svg>
