<svg width="45" height="45" viewBox="0 0 45 45" fill="none" xmlns="http://www.w3.org/2000/svg">
<path d="M21.7098 35.9559C21.7151 35.4146 22.0383 35.0713 22.5429 35.0713C23.0484 35.0713 23.4561 35.4551 23.4649 35.9392C23.4737 36.389 23.0202 36.8255 22.5447 36.8255C22.0418 36.8255 21.7046 36.4743 21.7098 35.9559Z" fill="white"/>
<path fill-rule="evenodd" clip-rule="evenodd" d="M29.8739 13.4644C30.3915 13.6651 30.846 13.987 30.8649 14.1663C30.8713 14.2274 30.7673 14.4121 30.6327 14.5784C30.417 14.8448 30.4024 14.884 30.5066 14.9167C30.7538 14.9941 31.413 15.3558 31.6416 15.5394C31.9209 15.7639 32.5059 16.4423 32.588 16.637C32.6756 16.8448 32.5739 17.0198 32.3103 17.1148C31.8057 17.2968 31.8035 17.3156 32.2424 17.6817C32.8152 18.1596 33.2401 18.8129 33.406 19.4708C33.4912 19.8087 33.3455 19.9976 32.9781 20.0256C32.8296 20.0369 32.6821 20.0784 32.6502 20.1177C32.6184 20.1571 32.6915 20.407 32.8129 20.673C33.1352 21.38 33.2653 22.1173 33.1832 22.7706C33.121 23.2659 32.9183 23.3529 32.468 23.0777C32.3154 22.9844 32.1665 22.9106 32.1371 22.9137C32.1078 22.9168 32.1193 23.239 32.1626 23.6296C32.2778 24.6693 32.02 25.8782 31.6429 26.0664C31.4868 26.1443 31.4737 26.1376 31.1334 25.805L30.7842 25.4638L30.6302 26.1717C30.4641 26.935 30.2004 27.5207 29.7967 28.0224C29.4337 28.4734 29.274 28.4555 29.013 27.9345C28.8004 27.5098 28.7601 27.4962 28.5872 27.7902C28.1257 28.575 27.0918 29.5652 26.5994 29.694C26.2768 29.7784 26.1774 29.6607 26.1323 29.1415L26.0916 28.6724L25.6861 29.0083C25.1441 29.4574 24.6782 29.7239 24.152 29.886C23.7005 30.025 23.0625 30.124 22.9909 30.066C22.8683 29.9668 22.8424 29.7997 22.9033 29.499C23.0186 28.9283 23.0318 28.9402 22.5011 29.1364C21.8524 29.3763 21.0318 29.4375 20.46 29.2885C20.2109 29.2237 19.9757 29.1452 19.9374 29.1142C19.8153 29.0153 19.8449 28.7406 19.998 28.5514C20.1726 28.3358 20.2348 28.1729 20.1644 28.1159C20.1367 28.0934 19.9409 28.0822 19.7293 28.091C19.065 28.1185 18.0996 27.8683 17.4809 27.5083C17.2876 27.3958 17.2276 27.3272 17.207 27.1948C17.1737 26.9817 17.2112 26.937 17.5819 26.7469C17.7473 26.662 17.8802 26.5699 17.8773 26.5421C17.8743 26.5143 17.6844 26.4046 17.4553 26.2985C17.2262 26.1923 16.8789 25.9969 16.6838 25.8644L16.3288 25.6234L15.6663 24.8571C15.5773 24.7523 15.4814 24.6121 15.4533 24.5454C15.3815 24.3752 15.572 24.1682 15.8665 24.0962C16.0029 24.0629 16.1726 23.9972 16.2437 23.9503C16.3683 23.8678 16.3616 23.8557 16.0485 23.6023C15.4613 23.127 15.0442 22.4325 14.9147 21.7145C14.8368 21.283 14.9553 21.0806 15.3007 21.0551C15.4242 21.046 15.5376 21.0232 15.5527 21.0045C15.5679 20.9857 15.506 20.8626 15.4153 20.7309C14.9588 20.0683 14.751 19.0676 14.9132 18.3123C15.0333 17.7528 15.2153 17.6087 15.5053 17.8435C15.582 17.9056 15.7252 17.9828 15.8234 18.015L16.002 18.0736L15.9472 17.5452C15.8493 16.6025 15.9909 15.8398 16.3774 15.228C16.5563 14.9449 16.5838 14.9249 16.7674 14.9433C16.9479 14.9615 16.9758 14.9833 17.0904 15.1959C17.1595 15.3239 17.2346 15.4438 17.2575 15.4623C17.2804 15.4808 17.3509 15.3004 17.4141 15.0614C17.5771 14.4453 17.793 14.0252 18.2183 13.496C18.6476 12.9618 18.9155 12.7251 19.1144 12.7042C19.3318 12.6813 19.3944 12.7726 19.4344 13.1716C19.484 13.6656 19.5478 13.7041 19.7423 13.3575C19.8274 13.2058 20.1034 12.8308 20.3557 12.5242C20.7358 12.0621 20.8967 11.9134 21.2958 11.6557C21.8534 11.2956 22.0662 11.2873 22.1733 11.6213C22.2068 11.7257 22.2178 11.8313 22.1979 11.856C22.1779 11.8806 22.1975 12.007 22.2414 12.1369L22.3211 12.3729L22.7683 12.0034C23.3546 11.5189 24.0171 11.2195 24.6731 11.1424C25.3654 11.0611 25.4743 11.1493 25.3569 11.6964C25.3209 11.8645 25.3107 12.0178 25.3344 12.037C25.3581 12.0561 25.5166 12.0312 25.6868 11.9814C26.3527 11.7869 27.7718 11.8095 28.2852 12.023C28.4478 12.0905 28.5083 12.4046 28.3876 12.5538C28.2772 12.6901 28.1556 13.054 28.2066 13.0953C28.3099 13.1789 28.9779 13.185 29.0842 13.1032L29.8739 13.4644ZM17.8218 25.7478C18.5591 26.0832 18.7396 26.4553 18.391 26.9215C18.3015 27.0412 18.2539 27.1597 18.2851 27.1853C18.4265 27.3009 19.3841 27.4478 19.8874 27.431C20.3156 27.4168 20.4808 27.4433 20.6086 27.5467C20.8166 27.715 20.9007 28.1105 20.794 28.4186C20.7506 28.5437 20.7301 28.6582 20.7483 28.6729C20.8032 28.7173 21.3993 28.7319 21.6548 28.6951C21.7862 28.6762 22.1402 28.5689 22.4414 28.4567C23.2777 28.1453 23.5547 28.266 23.6182 28.9699C23.6486 29.3074 23.6602 29.3286 23.8018 29.3065C24.136 29.2542 24.7925 28.8876 25.2977 28.4713C25.5912 28.2294 25.8873 28.0079 25.9557 27.9791C26.2606 27.8505 26.6231 28.1158 26.7191 28.5375C26.7556 28.6981 26.7957 28.7522 26.872 28.7442C27.0305 28.7275 27.7379 27.8981 28.0741 27.3347C28.3426 26.8848 28.3947 26.8248 28.5631 26.7708C28.8049 26.6932 29.0233 26.7971 29.2643 27.1041C29.37 27.2388 29.4669 27.3479 29.4798 27.3465C29.4926 27.3451 29.6037 27.1248 29.7268 26.8568C29.8658 26.5536 29.9896 26.1222 30.054 25.7154C30.1307 25.2314 30.1957 25.0228 30.3042 24.9131C30.494 24.721 30.8045 24.7335 31.1383 24.9466C31.2795 25.0368 31.4064 25.0962 31.4203 25.0786C31.434 25.061 31.4738 24.8699 31.5086 24.6538C31.5704 24.2703 31.5485 23.8512 31.4279 23.1106C31.3764 22.7945 31.391 22.7165 31.5356 22.5379C31.7597 22.2611 31.9117 22.2076 32.2628 22.2819L32.5578 22.3444L32.52 21.9345C32.496 21.6718 32.3798 21.3043 32.1967 20.9108C32.0394 20.5732 31.9162 20.2209 31.9227 20.128C31.938 19.9068 32.1972 19.5919 32.4579 19.4776C32.7101 19.3671 32.7084 19.32 32.4369 18.8794C32.2832 18.63 32.0784 18.4129 31.6833 18.0801C31.2205 17.6905 31.1363 17.5949 31.1107 17.4303C31.0848 17.264 31.1152 17.2011 31.3314 16.9758C31.4693 16.8319 31.6295 16.6893 31.6872 16.6588C31.7768 16.6115 31.7475 16.5586 31.4883 16.2984C31.161 15.97 30.5908 15.621 30.1895 15.5036C29.8197 15.3954 29.6981 15.2641 29.6924 14.967C29.6888 14.778 29.7349 14.6444 29.8548 14.4963L30.0222 14.2895L29.7999 14.154C29.4999 13.9713 28.8604 13.8141 28.3463 13.7967C27.9185 13.7823 27.8472 13.7611 27.6627 13.5939C27.5319 13.4753 27.4844 13.0575 27.5686 12.7656L27.6335 12.5405L27.4028 12.5048C27.0022 12.4429 26.095 12.5333 25.6241 12.6821C25.0781 12.8547 24.8475 12.8126 24.7178 12.5168C24.6685 12.4043 24.635 12.2016 24.6433 12.0664C24.6612 11.7763 24.5834 11.7582 24.1006 11.94C23.7088 12.0876 23.3847 12.3087 22.9123 12.7506C22.5095 13.1275 22.22 13.2318 22.023 13.0708C21.965 13.0234 21.841 12.8281 21.7475 12.6367C21.654 12.4454 21.5701 12.2829 21.5612 12.2757C21.5523 12.2685 21.4263 12.3584 21.2813 12.4754C20.9024 12.7813 20.5424 13.2481 20.2537 13.808C20.0533 14.1965 19.9685 14.3123 19.8354 14.3787C19.5735 14.5093 19.3389 14.4035 19.0576 14.0276L18.8192 13.7093L18.58 14.0743C18.2433 14.588 18.1358 14.8444 17.9626 15.547C17.8307 16.0819 17.7895 16.1732 17.6478 16.2438C17.4612 16.3369 17.2189 16.2754 16.9658 16.0705C16.8694 15.9925 16.7713 15.9524 16.7479 15.9813C16.6131 16.1478 16.5543 16.8887 16.6181 17.6158C16.6609 18.1034 16.6567 18.4932 16.6081 18.5531C16.4936 18.6947 16.0774 18.7643 15.7784 18.692C15.481 18.62 15.4516 18.692 15.5383 19.2825C15.6058 19.743 15.68 19.9226 16.0208 20.4511C16.2736 20.8428 16.3407 21.1809 16.1994 21.3507C16.1621 21.3955 16.0091 21.4935 15.8593 21.5685L15.587 21.7048L15.6526 21.9401C15.7587 22.3213 16.1337 22.827 16.5754 23.1845C16.931 23.4723 16.9806 23.5366 17.0251 23.7671C17.0654 23.9758 17.0435 24.0653 16.9123 24.2273C16.8228 24.338 16.6536 24.4802 16.5363 24.5435L16.3231 24.6584L16.5761 24.9213C16.8652 25.2219 17.3 25.5103 17.8218 25.7478Z" fill="white"/>
<path fill-rule="evenodd" clip-rule="evenodd" d="M29.6484 15.9852L29.6539 15.9796L30.9396 14.6408L31.4242 14.1573C31.8932 13.6893 32.3565 13.227 32.8188 12.7642C33.4458 12.1358 34.0719 11.5064 34.6901 10.885C35.2617 11.2767 35.6711 11.0461 35.9952 10.7239C36.5378 10.1862 37.0749 9.64275 37.612 9.09933C38.6089 8.09066 39.6061 7.08169 40.6378 6.1099C42.2194 4.62059 42.1472 1.90252 40.319 0.665829C39.0289 -0.206454 37.2545 -0.308558 36.0234 0.88412C34.8904 1.98089 33.7772 3.09789 32.6639 4.21495C32.1851 4.69539 31.7062 5.17597 31.2258 5.65483C30.5662 6.31234 30.5636 6.33171 30.9343 7.18463C30.746 7.37259 30.5564 7.56014 30.3666 7.74795C29.8827 8.22672 29.3968 8.70749 28.9256 9.20118C28.7284 9.40715 28.5522 9.41595 28.3312 9.30856C26.747 8.54278 25.0403 8.31393 23.3161 8.19686C22.026 8.10884 20.7535 8.32185 19.5233 8.67041C17.1412 9.34465 15.1017 10.5989 13.4312 12.4491C12.6377 13.3285 11.9597 14.2773 11.4313 15.3318C10.7039 16.7841 10.1852 18.3051 10.1165 19.9406C10.1123 20.0419 10.1078 20.1435 10.1033 20.2452C10.0624 21.1699 10.021 22.1048 10.1377 23.0142C10.2257 23.7005 10.427 24.3721 10.6283 25.0438C10.7149 25.3327 10.8015 25.6218 10.8791 25.9119L10.87 25.9242C10.8479 25.9538 10.8353 25.9708 10.8096 26.0043C10.7598 26.0057 10.7101 26.0073 10.6605 26.009C10.5494 26.0128 10.4383 26.0166 10.327 26.0166L7.68947 26.0199L7.67782 26.0199L7.67033 26.0199L7.66233 26.0199L7.6522 26.02H7.64989L7.64392 26.02L7.64006 26.02C5.61426 26.0226 3.45212 26.0254 2.50007 26.0254L2.49743 26.0281H2.48422C1.17474 26.0228 0.00616432 27.2603 0 28.6458C0 28.6792 0.000880617 28.7118 0.00264185 28.7452L0 28.7479V40.871C0.260663 41.2785 0.618193 41.4554 1.1131 41.4052C1.36677 41.3795 1.62369 41.3855 1.90208 41.392C2.03338 41.395 2.16974 41.3982 2.3125 41.3982C2.1399 42.972 2.32219 44.3733 4.04291 45H7.29503C7.42705 44.9075 7.56522 44.8205 7.7034 44.7335C8.02701 44.5297 8.35071 44.3259 8.5957 44.052C8.85548 43.7616 8.9726 43.295 9.03601 42.8884C9.0867 42.563 9.07513 42.2275 9.06327 41.8838C9.05803 41.732 9.05274 41.5785 9.05274 41.4237H35.9732C35.8279 42.9658 35.8675 44.434 37.7045 45H40.8685C42.6853 44.4305 42.8323 42.9764 42.6985 41.3982C42.8598 41.3982 43.0125 41.3984 43.1595 41.3986C43.4379 41.399 43.6961 41.3994 43.9542 41.3982C44.6755 41.3956 45.0444 40.981 44.9942 40.2187C44.9167 39.0384 44.8824 37.8536 44.9793 36.6741C45.0788 35.4603 44.8401 35.0678 43.8265 35.0669H26.6897C26.6585 35.0669 26.6272 35.0666 26.5958 35.0664C26.4805 35.0655 26.3645 35.0646 26.2503 35.0757C25.8664 35.1127 25.6409 35.3494 25.5238 35.6962C25.4155 36.0149 25.5212 36.2798 25.7395 36.5254C25.9641 36.7771 26.2345 36.8326 26.5568 36.8326C30.9762 36.8275 35.3963 36.8278 39.8159 36.8281L42.7707 36.8282H43.2119V39.6105H1.78765V36.8282H2.29841H18.3371C18.3748 36.8282 18.4126 36.829 18.4504 36.8299C18.545 36.8321 18.6394 36.8342 18.7325 36.8229C19.1657 36.7701 19.4828 36.4691 19.5153 36.0914C19.562 35.5563 19.3753 35.2517 18.8848 35.1135C18.7271 35.0695 18.5539 35.0686 18.3872 35.0679L18.3679 35.0678C14.7174 35.0619 11.0031 35.0576 7.34732 35.0534L6.86969 35.0528V34.9824V32.9526H7.38045C8.04352 32.9526 8.70667 32.9533 9.36984 32.954C11.0943 32.9558 12.8192 32.9575 14.5434 32.9473C15.8943 32.9394 17.2257 31.9492 17.6749 30.6641C18.124 29.379 17.7999 27.8439 17.7999 27.8439L21.1061 24.5619C23.3886 25.9843 25.8077 25.3955 27.3127 23.9942C28.6001 22.7945 29.5212 20.2595 27.9678 17.691C28.3784 17.2803 28.5928 17.0595 28.8047 16.8413C29.02 16.6197 29.2333 16.4001 29.6484 15.9852ZM23.8236 19.6301C24.4392 19.6319 24.7007 19.8827 24.7034 20.4742C24.7052 21.0349 24.3644 21.4152 23.8518 21.3826C23.4476 21.3571 23.0064 21.0393 23.0249 20.4681C23.0425 19.94 23.3208 19.6284 23.8236 19.6301ZM1.81985 29.5334L1.81989 29.5224L1.81985 29.5106C1.81985 28.5283 2.48393 27.7321 3.30312 27.7321H3.57767H8.91376C9.86044 27.7324 10.6283 28.5285 10.6283 29.5106C10.6283 30.4926 9.861 31.2887 8.91432 31.2891H5.33548V35.0839H1.81985V29.5334ZM14.218 31.2924C15.2011 31.2924 15.9981 30.4954 15.9981 29.5122C15.9981 28.5291 15.2011 27.7321 14.218 27.7321C13.2348 27.7321 12.4378 28.5291 12.4378 29.5122C12.4378 30.4954 13.2348 31.2924 14.218 31.2924Z" fill="white"/>
</svg>
