<?xml version="1.0" encoding="utf-8"?>
<!-- Generator: Adobe Illustrator 28.0.0, SVG Export Plug-In . SVG Version: 6.00 Build 0)  -->
<svg version="1.1" id="Layer_1" xmlns="http://www.w3.org/2000/svg" xmlns:xlink="http://www.w3.org/1999/xlink" x="0px" y="0px"
	 viewBox="0 0 80 80" style="enable-background:new 0 0 80 80;" xml:space="preserve">
<style type="text/css">
	.st0{fill:#325AE1;}
</style>
<path class="st0" d="M25,66.93c0-0.98,0.05-1.78-0.01-2.58c-0.18-2.56-0.41-5.12-0.59-7.68c-0.02-0.26,0.08-0.59,0.25-0.78
	c1.19-1.31,2.41-2.59,3.59-3.84c0.93,0.69,1.87,1.3,2.82,1.84c-0.21,0.32-0.41,0.64-0.61,0.96c-0.19,0.31-0.35,0.92-0.19,1.11
	c0.24,0.28,0.78,0.43,1.18,0.41c0.63-0.02,1.26-0.22,1.88-0.36c0.53-0.12,1.07-0.23,1.61-0.35c1.4,0.5,2.81,0.84,4.19,1.06
	c-0.1,0.44-0.18,0.86-0.24,1.29c-0.07,0.57,0.16,1.17,0.26,1.76c0.54-0.16,1.15-0.19,1.6-0.49c1.17-0.77,2.33-1.57,3.52-2.38
	c1.09-0.09,2.16-0.26,3.2-0.49c0.15,0.83,0.3,1.61,0.49,2.38c0.1,0.38,0.47,0.83,0.82,0.95c0.24,0.08,0.75-0.28,0.97-0.57
	c0.53-0.68,0.98-1.43,1.45-2.16c0.54-0.84,1.09-1.68,1.65-2.54c0.74-0.37,1.44-0.78,2.12-1.23c0.21,0.35,0.42,0.67,0.66,0.95
	c0.59,0.7,1.29,1.3,1.94,1.94c0.36-0.83,0.87-1.63,1.06-2.5c0.31-1.4,0.56-2.82,0.82-4.27c0.47-0.55,0.93-1.12,1.35-1.73
	c0.61,0.43,1.17,0.83,1.76,1.16c0.55,0.31,1.22,0.4,1.84,0.59c0.07-0.64,0.28-1.32,0.17-1.93c-0.31-1.66-0.67-3.32-1.04-5.03
	c0.25-0.69,0.48-1.39,0.67-2.11c0.94,0.21,1.81,0.42,2.7,0.55c1.24,0.18,1.62-0.39,1.08-1.51c-0.14-0.28-0.33-0.55-0.51-0.81
	c-0.83-1.21-1.67-2.42-2.53-3.68c0.01-0.88-0.03-1.77-0.12-2.67c0.71-0.12,1.37-0.23,2.02-0.39c0.48-0.12,0.9-0.5,1.34-0.77
	c-0.3-0.47-0.5-1.08-0.93-1.38c-1.12-0.8-2.31-1.5-3.48-2.24c-0.36-1.07-0.8-2.14-1.34-3.2c0.43-0.28,0.84-0.56,1.23-0.85
	c0.39-0.3,0.6-0.82,0.89-1.24c-0.43-0.29-0.82-0.74-1.29-0.85c-0.96-0.23-1.93-0.4-2.99-0.59c-0.09-0.12-0.18-0.24-0.27-0.37
	c1.62-1.51,3.27-3.06,4.67-4.37c-1.18-1.27-2.26-2.43-3.6-3.86c-1.5,1.62-3.02,3.26-4.53,4.88C45.88,9,33.34,11.81,26.39,18.82
	c-6.7,6.75-9.61,19.05-1.54,29.85c-1.11,1.07-2.27,2.12-3.35,3.26c-0.56,0.59-1.04,0.74-1.86,0.46c-4.28-1.44-9.18,1.44-9.52,5.93
	c-0.34,4.46-0.07,8.96-0.07,13.56c20,0,39.94,0,59.9,0c0-1.67,0-3.22,0-4.95C54.95,66.93,40.02,66.93,25,66.93z M42.57,32.1
	c1.33,0.04,2.37,1.1,2.38,2.45c0.01,1.38-1.08,2.46-2.49,2.45c-1.4-0.01-2.47-1.11-2.44-2.5C40.04,33.12,41.17,32.06,42.57,32.1z
	 M38.76,41.86c0.28-0.27,1-0.3,1.44-0.17c4.97,1.46,9.92-2.19,9.79-7.27c-0.01-0.59-0.04-1.24-0.29-1.74
	c-0.56-1.09-0.13-1.74,0.65-2.49c1.56-1.5,3.07-3.06,4.58-4.61c3.28,3.69,4.57,7.92,3.64,12.74c-1.16,5.94-4.75,9.92-10.59,11.58
	c-5.18,1.48-9.83,0.24-13.96-3.3C35.6,44.99,37.16,43.41,38.76,41.86z M19.93,66.89c-1.72,0-3.27,0-4.92,0
	c0-2.64-0.08-5.2,0.03-7.76c0.05-1.25,1.24-2.11,2.46-2.09c1.21,0.02,2.34,0.91,2.39,2.18C20,61.74,19.93,64.27,19.93,66.89z"/>
</svg>
