<svg width="45" height="45" viewBox="0 0 45 45" fill="none" xmlns="http://www.w3.org/2000/svg">
<path fill-rule="evenodd" clip-rule="evenodd" d="M1.46372 21.6988L1.21429 21.7512C0.838069 21.8302 0.368784 22.2037 0.18049 22.574C-0.0502525 23.0277 -0.063132 24.9867 0.161352 25.4809C0.339941 25.8743 0.765327 26.227 1.16894 26.3164L1.46372 26.3817V29.941C1.46372 32.3682 1.49719 33.6172 1.56902 33.8676C1.70526 34.3429 2.20003 34.9423 2.67521 35.2079C3.0274 35.4048 3.18495 35.4198 5.18498 35.4477L7.31908 35.4774L7.42982 35.969C7.73875 37.3408 8.89047 38.8345 10.1033 39.4364C12.1592 40.4566 14.2981 40.0781 15.8929 38.4116C16.6299 37.6415 17.0629 36.87 17.2672 35.9629L17.3792 35.4653H30.5357L30.6477 35.9629C30.9582 37.341 32.1075 38.8333 33.3227 39.4364C35.3786 40.4566 37.5175 40.0781 39.1123 38.4116C39.8472 37.6436 40.2822 36.8701 40.4847 35.9709L40.5949 35.4813L42.0039 35.4483C43.245 35.4192 43.4575 35.3904 43.7885 35.2066C44.263 34.9431 44.7582 34.3436 44.8947 33.8676C44.9675 33.6136 45 32.2448 45 29.4294C45 25.9895 44.9777 25.2787 44.856 24.8437C44.5542 23.7652 43.8543 22.9508 42.6924 22.3258L42.0302 21.9696L41.5127 18.6946C40.9275 14.992 40.8032 14.5794 40.0285 13.7699C39.5149 13.2332 38.9042 12.883 38.2157 12.7303C37.8998 12.6603 36.3126 12.6238 33.5863 12.6238C28.9979 12.6238 28.7909 12.6454 27.8687 13.2201C27.6003 13.3874 27.2738 13.6628 27.1431 13.8322L26.9052 14.1402L26.1343 15.7515V21.7225H2.91493L1.46372 21.6988ZM27.7185 15.7915C27.878 15.2304 28.4754 14.5706 29.0011 14.3748C29.449 14.208 37.5755 14.1741 38.1359 14.3366C38.5588 14.4594 39.1477 14.9985 39.3811 15.4764C39.4931 15.706 39.7461 17.041 40.1004 19.274C40.401 21.168 40.666 22.803 40.6892 22.9072C40.718 23.0369 41.0618 23.271 41.7776 23.6485C42.495 24.0268 42.8974 24.301 43.0579 24.5209C43.3143 24.8722 43.5488 25.58 43.5488 26.0026V26.2718H40.6464V29.8723L43.5646 31.3993L43.534 32.4457L43.5332 32.474C43.5146 33.1123 43.5045 33.4554 43.3386 33.6398C43.1458 33.8541 42.7423 33.8541 41.8699 33.8541H41.8369H40.5986L40.4866 33.3565C40.3378 32.6963 39.9168 31.8141 39.5181 31.3274L39.1952 30.9332V20.8918L38.8277 18.8287C38.4488 16.7014 38.3641 16.4181 38.002 16.0659C37.6002 15.6749 37.411 15.6567 33.7436 15.6567C30.4011 15.6567 30.1894 15.6669 29.857 15.8441C29.6637 15.9472 29.4102 16.1711 29.2937 16.3417L29.082 16.6519L29.0339 33.8541H27.5855V25.057C27.5855 17.6 27.6058 16.1884 27.7185 15.7915ZM30.4879 23.2389V17.2656L37.0519 17.3153L37.3021 18.6896C37.4396 19.4455 37.5545 20.0958 37.5574 20.135C37.5602 20.1741 36.8875 20.206 36.0624 20.206C34.7469 20.206 34.5189 20.2291 34.2106 20.3934C33.4541 20.7968 33.1898 21.7421 33.5542 22.7414L33.7357 23.2389H30.4879ZM35.5111 22.9961C35.1921 22.747 34.9652 22.4094 34.894 22.0779L34.8381 21.8173H37.744V23.2557L36.7526 23.2236C35.923 23.1968 35.7203 23.1597 35.5111 22.9961ZM1.46372 24.7554V23.3337H26.1343V24.7554H1.46372ZM30.6315 33.3802C30.5111 33.8568 30.4993 33.5141 30.4939 29.3758L30.4879 24.8502H37.744V27.3245C37.744 29.6429 37.734 29.7948 37.5852 29.7333C37.1293 29.5447 36.0256 29.3049 35.6207 29.3064C34.9278 29.3088 33.961 29.5513 33.2996 29.8883C32.0971 30.5012 30.9937 31.9453 30.6315 33.3802ZM2.91493 27.7883V26.3666H26.1343V33.8541H17.3792L17.2672 33.3565C17.0629 32.4494 16.6299 31.6779 15.8929 30.9078C14.2984 29.2416 12.1042 28.8568 10.0803 29.8883C8.87967 30.5003 7.7344 31.9981 7.42837 33.3565L7.31636 33.8541H3.36018L3.1376 33.6214C2.96028 33.4362 2.91493 33.2919 2.91493 32.9127V32.4365L6.39575 32.385L6.92027 30.2051C7.20879 29.0062 7.44597 27.972 7.44742 27.9068C7.44942 27.8151 6.93732 27.7883 5.18245 27.7883H2.91493ZM42.0976 28.8288V27.8831H43.5488V29.5912L42.0976 28.8288ZM2.91493 30.8212V29.3995H4.23009C5.08376 29.3995 5.54525 29.4343 5.54525 29.4985C5.54525 29.553 5.47904 29.8728 5.39813 30.2093L5.25111 30.8212H2.91493ZM8.80512 35.2856C8.47306 33.5221 9.55938 31.6613 11.2511 31.0957C11.53 31.0025 12.0059 30.9238 12.3086 30.9211C14.9857 30.8963 16.7644 33.8506 15.5634 36.327C14.0018 39.5472 9.47612 38.8499 8.80512 35.2856ZM32.0245 35.2856C31.6924 33.5221 32.7787 31.6613 34.4705 31.0957C34.7494 31.0025 35.2253 30.9238 35.528 30.9211C38.2051 30.8963 39.9837 33.8506 38.7827 36.327C37.2212 39.5472 32.6955 38.8499 32.0245 35.2856Z" fill="white"/>
<path fill-rule="evenodd" clip-rule="evenodd" d="M11.803 32.4207C10.8103 32.7603 10.171 33.6375 10.171 34.6597C10.171 35.5012 10.652 36.3195 11.3825 36.7209C11.9025 37.0067 12.793 37.0067 13.3131 36.7209C14.9063 35.8454 14.9127 33.4575 13.3242 32.6106C12.9211 32.3957 12.1553 32.3001 11.803 32.4207ZM11.6222 34.6597C11.6222 34.5247 11.7224 34.3095 11.8449 34.1816C12.3004 33.7054 13.019 33.9981 13.019 34.6597C13.019 35.0836 12.7422 35.3705 12.3336 35.3705C11.9998 35.3705 11.6222 34.9932 11.6222 34.6597Z" fill="white"/>
<path fill-rule="evenodd" clip-rule="evenodd" d="M35.0224 32.4207C34.0297 32.7603 33.3903 33.6375 33.3903 34.6597C33.3903 35.5012 33.8713 36.3195 34.6018 36.7209C35.1219 37.0067 36.0124 37.0067 36.5325 36.7209C38.1256 35.8454 38.1321 33.4575 36.5435 32.6106C36.1405 32.3957 35.3747 32.3001 35.0224 32.4207ZM34.8415 34.6597C34.8415 34.5247 34.9418 34.3095 35.0642 34.1816C35.5198 33.7054 36.2383 33.9981 36.2383 34.6597C36.2383 35.0836 35.9616 35.3705 35.553 35.3705C35.2191 35.3705 34.8415 34.9932 34.8415 34.6597Z" fill="white"/>
<path fill-rule="evenodd" clip-rule="evenodd" d="M5.39468 5.26248V9.27753H4.48508C3.5884 9.27753 3.57363 9.2794 3.44822 9.4088L3.32094 9.54001V13.5551H2.41135C1.51467 13.5551 1.49989 13.5569 1.37449 13.6863L1.24721 13.8175V18.6881H26.9615V13.8175L26.8342 13.6863C26.7088 13.5569 26.694 13.5551 25.7974 13.5551H24.8878V9.54001L24.7605 9.4088C24.6351 9.2794 24.6203 9.27753 23.7236 9.27753H22.814V5.26248L22.5595 5H5.64917L5.39468 5.26248ZM6.22417 9.27753H9.54214V5.85551H6.22417V9.27753ZM10.3716 7.13877H11.6116C12.2936 7.13877 12.888 7.12438 12.9324 7.10679C12.9769 7.0892 13.093 6.96023 13.1906 6.82025C13.3093 6.64968 13.4586 6.51901 13.6426 6.42447L13.9174 6.28326H17.8371V7.13877H15.975C14.9508 7.13877 14.0765 7.15315 14.032 7.17074C13.9876 7.18833 13.8679 7.32227 13.7661 7.46846C13.6353 7.65635 13.502 7.77211 13.3113 7.8637C13.048 7.99016 13.0098 7.99326 11.7066 7.99374L10.3716 7.99427V9.27753H21.9845V8.42203H18.2518V7.56652H21.9845V5.85551H10.3716V7.13877ZM16.5928 8.42203H17.4223V7.56652H16.5928V8.42203ZM4.15044 13.5551H7.46841V10.133H4.15044V13.5551ZM8.2979 13.5551H11.6159V10.133H8.2979V13.5551ZM12.4454 11.4163H13.6854C14.3674 11.4163 14.9617 11.4019 15.0062 11.3843C15.0506 11.3667 15.1668 11.2378 15.2643 11.0978C15.3831 10.9272 15.5323 10.7965 15.7164 10.702L15.9911 10.5608H19.9108V11.4163H18.0487C17.0245 11.4163 16.1502 11.4307 16.1058 11.4483C16.0613 11.4659 15.9417 11.5998 15.8399 11.746C15.709 11.9339 15.5758 12.0496 15.385 12.1412C15.1217 12.2677 15.0836 12.2708 13.7803 12.2713L12.4454 12.2718V13.5551H24.0583V12.6996H20.3256V11.8441H24.0583V10.133H12.4454V11.4163ZM18.6666 12.6996H19.4961V11.8441H18.6666V12.6996ZM2.0767 17.8326H5.39468V14.4106H2.0767V17.8326ZM6.22417 17.8326H9.54214V14.4106H6.22417V17.8326ZM10.3716 17.8326H13.6896V14.4106H10.3716V17.8326ZM14.5191 15.6938H15.7591C16.4411 15.6938 17.0355 15.6794 17.0799 15.6619C17.1243 15.6443 17.2405 15.5153 17.338 15.3753C17.4568 15.2047 17.6061 15.0741 17.7901 14.9795L18.0648 14.8383H21.9845V15.6938H20.1224C19.0983 15.6938 18.2239 15.7082 18.1795 15.7258C18.1351 15.7434 18.0154 15.8773 17.9136 16.0235C17.7827 16.2114 17.6495 16.3272 17.4588 16.4188C17.1955 16.5452 17.1573 16.5483 15.8541 16.5488L14.5191 16.5493V17.8326H26.132V16.9771H22.3993V16.1216H26.132V14.4106H14.5191V15.6938ZM20.7403 16.9771H21.5698V16.1216H20.7403V16.9771Z" fill="white"/>
<path fill-rule="evenodd" clip-rule="evenodd" d="M2.41135 17.9217C1.51467 17.9217 1.49989 17.9234 1.37449 18.0384L1.24721 18.155V22.4844H26.9615V18.155L26.8342 18.0384C26.7088 17.9234 26.694 17.9217 25.7974 17.9217H2.41135ZM2.0767 21.7239V18.6821H5.39468V21.7239H2.0767ZM6.22417 21.7239V18.6821H9.54214V21.7239H6.22417ZM10.3716 21.7239V18.6821H13.6896V21.7239H10.3716ZM14.5191 19.8228V18.6821H26.132V20.203H22.3993V20.9635H26.132V21.7239H14.5191V20.5833L15.8541 20.5828C17.1573 20.5824 17.1955 20.5796 17.4588 20.4672C17.6495 20.3858 17.7827 20.2829 17.9136 20.1159C18.0154 19.9859 18.1351 19.8669 18.1795 19.8512C18.2239 19.8356 19.0983 19.8228 20.1224 19.8228H21.9845V19.0624H18.0648L17.7901 19.1879C17.6061 19.2719 17.4568 19.3881 17.338 19.5397C17.2405 19.6641 17.1243 19.7788 17.0799 19.7944C17.0355 19.81 16.4411 19.8228 15.7591 19.8228H14.5191Z" fill="white"/>
<path d="M20.7403 20.9635H21.5698V20.203H20.7403V20.9635Z" fill="white"/>
</svg>
