<svg width="45" height="45" viewBox="0 0 45 45" fill="none" xmlns="http://www.w3.org/2000/svg">
<path fill-rule="evenodd" clip-rule="evenodd" d="M12.4424 16.8065V24.0418H10.8885C9.35668 24.0418 9.33144 24.0451 9.1172 24.2783L8.89977 24.5148V31.7501H7.34588C5.81405 31.7501 5.78881 31.7534 5.57457 31.9866L5.35714 32.2231V41H45V32.2231L44.7826 31.9866C44.5683 31.7534 44.5431 31.7501 43.0113 31.7501H41.7857V24.5148L41.5683 24.2783C41.354 24.0451 41.3288 24.0418 39.797 24.0418H38.5714V16.8065L38.1367 16.3335H12.8772L12.4424 16.8065ZM13.8594 24.0418H19.5276V17.8751H13.8594V24.0418ZM20.9447 20.1876H23.063C24.2281 20.1876 24.1721 20.1617 24.248 20.13C24.3239 20.0983 24.5223 19.8659 24.6889 19.6136C24.8918 19.3063 25.1468 19.0708 25.4612 18.9004L25.9305 18.646H31.5553V20.1876H28.3742C26.6246 20.1876 26.2024 20.2135 26.1264 20.2452C26.0505 20.2769 25.8461 20.5183 25.6722 20.7817C25.4487 21.1203 25.221 21.3289 24.8952 21.494C24.4454 21.7219 24.6889 21.7283 23.2253 21.7283L20.9447 21.7293V24.0418H37.1544V22.5001H32.2638V20.9584H37.1544V17.8751H20.9447V20.1876ZM29.4297 22.5001H30.8468V20.9584H29.4297V22.5001ZM10.3168 31.7501H15.985V25.5834H10.3168V31.7501ZM17.4021 31.7501H23.0703V25.5834H17.4021V31.7501ZM24.4873 27.8959H26.6056C27.7707 27.8959 27.7147 27.87 27.7906 27.8383C27.8665 27.8066 28.065 27.5742 28.2316 27.3219C28.4345 27.0146 28.6895 26.7791 29.0039 26.6087L29.4732 26.3542H35.0979V27.8959H31.9168C30.1672 27.8959 29.745 27.9218 29.6691 27.9535C29.5932 27.9852 29.3888 28.2266 29.2148 28.49C28.9913 28.8286 28.7637 29.0372 28.4378 29.2023C27.988 29.4301 28.2316 29.4366 26.7679 29.4366L24.4873 29.4376V31.7501H40.3687V30.2084H35.8065V28.6667H40.3687V25.5834H24.4873V27.8959ZM32.9724 30.2084H34.3894V28.6667H32.9724V30.2084ZM6.77419 39.4583H12.4424V33.2917H6.77419V39.4583ZM13.8594 39.4583H19.5276V33.2917H13.8594V39.4583ZM20.9447 39.4583H26.6129V33.2917H20.9447V39.4583ZM28.03 35.6042H29.0768C30.2419 35.6042 31.2573 35.5783 31.3332 35.5466C31.4091 35.5149 31.6076 35.2825 31.7742 35.0302C31.9771 34.7229 32.2321 34.4874 32.5465 34.317L33.0158 34.0625H38.6406V35.6042H35.4595C33.7098 35.6042 33.2876 35.6301 33.2117 35.6618C33.1358 35.6935 32.9314 35.9349 32.7575 36.1983C32.5339 36.5369 32.3063 36.7455 31.9805 36.9106C31.5306 37.1384 31.4655 37.144 29.2391 37.1449L28.03 37.1459V39.4583H43.583V37.9167H39.3491V36.375H43.583V33.2917H28.03V35.6042ZM36.515 37.9167H37.932V36.375H36.515V37.9167Z" fill="white"/>
<path fill-rule="evenodd" clip-rule="evenodd" d="M0.347708 6.94226H3.04354L3.06145 6.68709C3.07908 5.32744 3.06574 5.23972 3.21429 4.94731C3.39345 4.59458 3.64957 4.33005 3.9962 4.13981L4.25046 4.00023L7.20705 4.00019L13.3747 4.00019C13.9142 4.00019 20.0531 4.00023 20.0531 4.00023L23.576 4.00023L23.8145 4.13377C24.1701 4.33283 24.4101 4.57688 24.596 4.92842L24.7625 5.24326L24.8136 6.94226L27.5095 6.94226L27.8571 7.30655V10.4258L27.5095 10.7901H24.8061L24.8078 14.754C24.8078 15.0303 24.5205 15.2131 24.2409 15.2121C23.9624 15.2112 23.6778 14.9987 23.6778 14.754C23.6778 14.5093 23.6758 13.0325 23.6758 13.0325L4.18084 13.0325V18.2369L4.00699 18.419C3.87314 18.5593 3.78319 18.6012 3.61583 18.6012C3.44848 18.6012 3.35853 18.5593 3.22467 18.419L3.05082 18.2369L3.05106 10.7901H0.347708L1.57478e-07 10.4258L0 7.30655L0.347708 6.94226ZM3.05106 8.12613H1.13002V9.60625H3.05106V8.12613ZM4.39098 5.30246C4.32188 5.36757 4.24458 5.47412 4.2191 5.53923C4.19368 5.60434 4.18662 7.25221 4.18464 9.91367L4.18084 11.8486L23.5911 11.8486L23.5458 5.51229C23.5458 5.51229 23.5458 5.18407 23.3192 5.18407C23.0925 5.18407 13.3747 5.18407 13.3747 5.18407C3.51727 5.18407 4.51556 5.18502 4.39098 5.30246ZM26.7271 8.12612H24.8061L24.8061 9.60624H26.7271V8.12612Z" fill="white"/>
<path d="M3.6189 20.2747C3.45469 20.2747 3.36643 20.3158 3.23509 20.4532C2.95662 20.7446 3.02536 21.1806 3.37962 21.3702C3.75074 21.5688 4.1733 21.2675 4.1733 20.8042C4.1733 20.543 3.89233 20.2747 3.6189 20.2747Z" fill="white"/>
<path d="M3.05082 23.1089L3.22467 22.9268C3.35853 22.7865 3.44848 22.7446 3.61583 22.7446C3.78319 22.7446 3.87314 22.7865 4.00699 22.9268L4.18084 23.1089V28.1627L5.42059 29.4575L6.20724 28.6463C6.96684 27.8631 7.00208 27.8352 7.23187 27.8352C7.46166 27.8352 7.49691 27.8631 8.25488 28.6446V30.3836L7.23187 29.2938L5.67812 30.8836L5.17159 30.9087L3.05082 28.6869L3.05082 23.1089Z" fill="white"/>
<path d="M7.42663 18.8145C7.45302 18.7494 8.45015 17.6773 9.64238 16.4321C11.2617 14.7408 11.8454 14.1662 11.9497 14.1611C12.2333 14.1473 12.3187 14.1781 12.4706 14.3496C12.5886 14.4828 12.626 14.5845 12.626 14.7723C12.626 15.0187 12.6175 15.0285 10.4931 17.2619C9.31998 18.4951 8.28714 19.5444 8.19793 19.5937C7.74349 19.8446 7.22221 19.318 7.42663 18.8145Z" fill="white"/>
<path d="M6.01478 16.3444C7.51545 14.7722 7.71613 14.5823 7.87671 14.5823C8.36945 14.5823 8.65163 15.0268 8.43291 15.4584C8.33539 15.6507 5.3175 18.8039 5.14167 18.8971C4.75503 19.1021 4.3328 18.7908 4.3328 18.3007C4.3328 18.125 4.49332 17.9383 6.01478 16.3444Z" fill="white"/>
<path d="M15.002 10.4756C15.0283 10.4105 16.0255 9.33831 17.2177 8.09308C18.837 6.40178 19.4207 5.82724 19.525 5.82215C19.8087 5.8083 19.8941 5.83914 20.0459 6.01062C20.1639 6.1438 20.2013 6.24551 20.2013 6.43333C20.2013 6.67969 20.1928 6.68957 18.0684 8.9229C16.8953 10.1562 15.8625 11.2055 15.7733 11.2548C15.3188 11.5056 14.7975 10.979 15.002 10.4756Z" fill="white"/>
<path d="M13.5901 8.00544C15.0908 6.43324 15.2915 6.24333 15.452 6.24333C15.9448 6.24333 16.227 6.68782 16.0082 7.11939C15.9107 7.31177 12.8928 10.4649 12.717 10.5582C12.3304 10.7631 11.9081 10.4518 11.9081 9.96168C11.9081 9.786 12.0687 9.59931 13.5901 8.00544Z" fill="white"/>
</svg>
