<svg width="45" height="45" viewBox="0 0 45 45" fill="none" xmlns="http://www.w3.org/2000/svg">
<path fill-rule="evenodd" clip-rule="evenodd" d="M0.146049 10.1111C0.0301821 10.266 -0.000229964 14.2389 1.30615e-06 23.9551C0.000116941 35.4138 0.0135306 36.2512 0.202363 36.6132C0.313489 36.8263 0.55135 37.1061 0.730932 37.2348C1.05483 37.4671 -0.225027 37.4691 10.5806 37.5C10.8346 37.5 13.4804 37.5 13.7695 37.5V36.2821L7.74733 36.2821V20.0246C7.74733 17.9212 7.78202 16.1664 7.82446 16.125C7.86678 16.0836 11.0176 16.0496 17.8078 16.0496H27.4702L27.7094 16.3779C27.9427 16.6983 28.0336 17.5 28.0336 21.25H29.2773C29.2773 18.8255 29.2461 18.1972 29.2773 18.1972C29.3086 18.1972 29.578 18.3791 29.8759 18.6014C30.9762 19.4224 33.0712 20.2318 34.0957 20.2318H34.4241V26.9006H35.6961V20.2318H36.0245C36.9777 20.2318 38.8989 19.5214 40.071 18.7354C42.6066 17.0354 44.098 13.7445 43.6803 10.7721C42.8118 4.5939 35.9941 1.36213 30.5267 4.53693C29.8799 4.91253 28.3768 6.2542 28.0336 6.76227L27.8554 7.02597L17.8078 0L0.146049 10.1111ZM1.2743 24.1475L1.27673 10.7721L17.8965 1.38666C18.291 1.54027 27.139 8.07117 27.139 8.14373C27.139 8.19787 27.0374 8.49413 26.9132 8.80213C26.2826 10.366 26.1839 12.3888 26.6575 14.0413L26.8756 14.8024L17.8078 14.8325C11.9555 14.8325 7.56394 14.8687 7.19992 15.0839C6.49177 15.5027 6.47534 15.6124 6.47534 19.938L6.47534 36.2821H2.37978C1.97158 36.2821 1.5553 36.2512 1.45469 36.2135C1.28945 36.1515 1.27199 34.9847 1.2743 24.1475ZM28.7597 7.92264C29.9071 6.18729 31.5832 5.08083 33.7383 4.63606C34.4564 4.48776 36.3254 4.58271 37.0837 4.80583C39.8067 5.6071 41.8635 7.83211 42.3579 10.5112C42.6525 12.1083 42.4536 13.4369 41.6818 15.026C40.7943 16.8533 38.8178 18.3976 36.7368 18.8897C35.8499 19.0992 34.0682 19.0685 33.1521 18.8277C30.5149 18.1344 28.3305 15.8635 27.7614 13.2239C27.3951 11.5247 27.8002 9.37373 28.7597 7.92264Z" fill="white"/>
<path fill-rule="evenodd" clip-rule="evenodd" d="M13.5571 32.4655L13.377 32.5014C13.1053 32.5555 12.7663 32.8113 12.6304 33.0649C12.4637 33.3756 12.4544 34.7173 12.6165 35.0559C12.7455 35.3253 13.0527 35.5669 13.3442 35.6281L13.5571 35.6728V38.1106C13.5571 39.7729 13.5813 40.6284 13.6332 40.7999C13.7316 41.1254 14.0889 41.536 14.4321 41.7179C14.6865 41.8527 14.8002 41.863 16.2447 41.8821L17.786 41.9024L17.866 42.2391C18.0891 43.1787 18.9209 44.2017 19.7968 44.614C21.2817 45.3127 22.8264 45.0535 23.9782 43.9121C24.5105 43.3847 24.8232 42.8563 24.9708 42.235L25.0517 41.8942H34.5536L34.6345 42.235C34.8587 43.1788 35.6887 44.2009 36.5664 44.614C38.0512 45.3127 39.596 45.0535 40.7477 43.9121C41.2785 43.3861 41.5927 42.8563 41.739 42.2404L41.8186 41.9051L42.8361 41.8825C43.7325 41.8626 43.8859 41.8429 44.125 41.717C44.4677 41.5365 44.8254 41.1259 44.9239 40.7999C44.9766 40.626 45 39.6884 45 37.7602C45 35.4042 44.9839 34.9173 44.896 34.6194C44.678 33.8808 44.1725 33.323 43.3334 32.8949L42.8551 32.6509L42.4814 30.4079C42.0588 27.872 41.969 27.5894 41.4095 27.0349C41.0385 26.6674 40.5975 26.4275 40.1002 26.323C39.8721 26.275 38.7258 26.25 36.7568 26.25C33.4429 26.25 33.2934 26.2648 32.6274 26.6584C32.4335 26.773 32.1977 26.9616 32.1033 27.0776L31.9316 27.2886L31.3748 28.3922V32.4817H14.6052L13.5571 32.4655ZM32.519 28.4195C32.6341 28.0353 33.0655 27.5834 33.4453 27.4493C33.7687 27.335 39.6379 27.3118 40.0426 27.4231C40.348 27.5072 40.7734 27.8764 40.9419 28.2038C41.0228 28.361 41.2055 29.2754 41.4614 30.8047C41.6785 32.102 41.8699 33.2217 41.8866 33.2931C41.9075 33.3819 42.1557 33.5423 42.6727 33.8008C43.1909 34.06 43.4814 34.2478 43.5974 34.3984C43.7826 34.6389 43.9519 35.1237 43.9519 35.4131V35.5976H41.8557V38.0635L43.9633 39.1093L43.9412 39.826L43.9406 39.8454C43.9272 40.2826 43.9199 40.5176 43.8001 40.6439C43.6608 40.7907 43.3695 40.7907 42.7394 40.7907H42.7155H41.8212L41.7403 40.4499C41.6329 39.9977 41.3288 39.3935 41.0408 39.0601L40.8076 38.7902V31.9127L40.5423 30.4998C40.2686 29.0428 40.2074 28.8488 39.9459 28.6075C39.6557 28.3397 39.5191 28.3272 36.8704 28.3272C34.4564 28.3272 34.3035 28.3342 34.0634 28.4556C33.9238 28.5262 33.7407 28.6795 33.6566 28.7964L33.5037 29.0088L33.4689 40.7907H32.4229V34.7655C32.4229 29.6582 32.4375 28.6914 32.519 28.4195ZM34.519 33.5203V29.4291L39.2597 29.4632L39.4404 30.4045C39.5397 30.9222 39.6227 31.3676 39.6248 31.3944C39.6268 31.4212 39.141 31.4431 38.545 31.4431C37.595 31.4431 37.4303 31.4589 37.2077 31.5714C36.6613 31.8477 36.4704 32.4951 36.7336 33.1795L36.8647 33.5203H34.519ZM38.1469 33.354C37.9165 33.1834 37.7527 32.9522 37.7013 32.7251L37.6608 32.5466H39.7595V33.5318L39.0435 33.5098C38.4444 33.4914 38.298 33.4661 38.1469 33.354ZM13.5571 34.5589V33.5852H31.3748V34.5589H13.5571ZM34.6227 40.4661C34.5358 40.7925 34.5273 40.5578 34.5234 37.7235L34.519 34.6239H39.7595V36.3186C39.7595 37.9064 39.7523 38.0104 39.6449 37.9683C39.3156 37.8392 38.5185 37.6749 38.226 37.6759C37.7256 37.6776 37.0274 37.8436 36.5497 38.0745C35.6813 38.4943 34.8844 39.4833 34.6227 40.4661ZM14.6052 36.6362V35.6625H31.3748V40.7907H25.0517L24.9708 40.4499C24.8232 39.8286 24.5105 39.3002 23.9782 38.7728C22.8266 37.6316 21.2419 37.368 19.7802 38.0745C18.9131 38.4936 18.086 39.5195 17.8649 40.4499L17.784 40.7907H14.9268L14.766 40.6313C14.638 40.5045 14.6052 40.4056 14.6052 40.1459V39.8197L17.1192 39.7845L17.498 38.2915C17.7063 37.4703 17.8776 36.762 17.8787 36.7173C17.8801 36.6546 17.5103 36.6362 16.2429 36.6362H14.6052ZM42.9038 37.3488V36.7011H43.9519V37.871L42.9038 37.3488ZM14.6052 38.7134V37.7397H15.5551C16.1716 37.7397 16.5049 37.7635 16.5049 37.8075C16.5049 37.8448 16.4571 38.0639 16.3987 38.2943L16.2925 38.7134H14.6052ZM18.8593 41.7711C18.6194 40.5633 19.404 39.2888 20.6258 38.9014C20.8272 38.8376 21.171 38.7837 21.3896 38.7818C23.323 38.7648 24.6076 40.7883 23.7402 42.4844C22.6124 44.6899 19.3439 44.2123 18.8593 41.7711ZM35.6288 41.7711C35.389 40.5633 36.1735 39.2888 37.3953 38.9014C37.5968 38.8376 37.9405 38.7837 38.1591 38.7818C40.0926 38.7648 41.3771 40.7883 40.5098 42.4844C39.382 44.6899 36.1134 44.2123 35.6288 41.7711Z" fill="white"/>
<path fill-rule="evenodd" clip-rule="evenodd" d="M21.0244 39.8089C20.3075 40.0415 19.8457 40.6423 19.8457 41.3424C19.8457 41.9187 20.1931 42.4792 20.7207 42.7542C21.0963 42.9499 21.7394 42.9499 22.115 42.7542C23.2656 42.1545 23.2703 40.519 22.123 39.939C21.8319 39.7918 21.2788 39.7263 21.0244 39.8089ZM20.8938 41.3424C20.8938 41.2499 20.9662 41.1026 21.0546 41.0149C21.3837 40.6888 21.9026 40.8893 21.9026 41.3424C21.9026 41.6327 21.7027 41.8293 21.4076 41.8293C21.1665 41.8293 20.8938 41.5709 20.8938 41.3424Z" fill="white"/>
<path fill-rule="evenodd" clip-rule="evenodd" d="M37.7939 39.8089C37.077 40.0415 36.6152 40.6423 36.6152 41.3424C36.6152 41.9187 36.9626 42.4792 37.4902 42.7542C37.8658 42.9499 38.5089 42.9499 38.8846 42.7542C40.0352 42.1545 40.0398 40.519 38.8926 39.939C38.6014 39.7918 38.0484 39.7263 37.7939 39.8089ZM37.6633 41.3424C37.6633 41.2499 37.7357 41.1026 37.8241 41.0149C38.1532 40.6888 38.6721 40.8893 38.6721 41.3424C38.6721 41.6327 38.4723 41.8293 38.1772 41.8293C37.936 41.8293 37.6633 41.5709 37.6633 41.3424Z" fill="white"/>
<path fill-rule="evenodd" clip-rule="evenodd" d="M16.4083 21.4265V24.1265H15.753C15.107 24.1265 15.0964 24.1278 15.006 24.2148L14.9143 24.303V27.003H14.2591C13.6131 27.003 13.6024 27.0042 13.5121 27.0913L13.4204 27.1795V30.4548H31.945V27.1795L31.8533 27.0913C31.763 27.0042 31.7523 27.003 31.1064 27.003H30.6488V24.303L30.5571 24.2148C30.4667 24.1278 30.4053 24.1265 29.9268 24.1265H29.4824V21.4265L29.2991 21.25H16.5916L16.4083 21.4265ZM17.0058 24.1265H19.3961V21.8253H17.0058V24.1265ZM19.9937 22.6882H20.8869C21.3783 22.6882 21.8065 22.6786 21.8385 22.6667C21.8705 22.6549 21.9542 22.5682 22.0244 22.4741C22.11 22.3594 22.2175 22.2715 22.3501 22.2079L22.548 22.1129H25.3718V22.6882H24.0303C23.2925 22.6882 22.6626 22.6979 22.6306 22.7097C22.5986 22.7216 22.5124 22.8116 22.4391 22.91C22.3448 23.0363 22.2488 23.1141 22.1114 23.1757C21.9217 23.2608 21.8942 23.2629 20.9554 23.2632L19.9937 23.2635V24.1265H28.8849V23.5512H25.6706V22.9759H28.8849V21.8253H19.9937V22.6882ZM24.4754 23.5512H25.073V22.9759H24.4754V23.5512ZM15.5119 27.003H17.9022V24.7018H15.5119V27.003ZM18.4997 27.003H20.89V24.7018H18.4997V27.003ZM21.4876 25.5647H22.3809C22.8722 25.5647 23.3004 25.5551 23.3324 25.5432C23.3644 25.5314 23.4481 25.4447 23.5183 25.3505C23.6039 25.2358 23.7114 25.148 23.844 25.0844L24.0419 24.9894H26.8657V25.5647H25.5242C24.7864 25.5647 24.1565 25.5744 24.1245 25.5862C24.0925 25.5981 24.0063 25.6881 23.933 25.7864C23.8387 25.9128 23.7427 25.9906 23.6053 26.0522C23.4156 26.1373 23.3881 26.1394 22.4493 26.1397L21.4876 26.14V27.003H30.0512V26.4277H27.1645V25.8524H30.0512V24.7018H21.4876V25.5647ZM25.9693 26.4277H26.5669V25.8524H25.9693V26.4277ZM14.018 29.8795H16.4083V27.5783H14.018V29.8795ZM17.0058 29.8795H19.3961V27.5783H17.0058V29.8795ZM19.9937 29.8795H22.3839V27.5783H19.9937V29.8795ZM22.9815 28.4412H23.8748C24.3661 28.4412 24.7943 28.4316 24.8263 28.4197C24.8583 28.4079 24.942 28.3212 25.0123 28.227C25.0978 28.1123 25.2053 28.0245 25.3379 27.9609L25.5358 27.8659H28.3596V28.4412H27.0181C26.2803 28.4412 25.6505 28.4509 25.6185 28.4627C25.5864 28.4746 25.5002 28.5646 25.4269 28.6629C25.3326 28.7893 25.2366 28.8671 25.0992 28.9287C24.9096 29.0138 24.8821 29.0158 23.9432 29.0162L22.9815 29.0165V29.8795H31.3475V29.3042H28.6584V28.7289H31.3475V27.5783H22.9815V28.4412ZM27.4633 29.3042H28.0608V28.7289H27.4633V29.3042Z" fill="white"/>
<path fill-rule="evenodd" clip-rule="evenodd" d="M14.2591 29.9945C13.6131 29.9945 13.6024 29.9956 13.5121 30.074L13.4204 30.1534V33.1011H31.945V30.1534L31.8533 30.074C31.763 29.9956 31.7523 29.9945 31.1064 29.9945H14.2591ZM14.018 32.5833V30.5123H16.4083V32.5833H14.018ZM17.0058 32.5833V30.5123H19.3961V32.5833H17.0058ZM19.9937 32.5833V30.5123H22.3839V32.5833H19.9937ZM22.9815 31.2889V30.5123H31.3475V31.5478H28.6584V32.0656H31.3475V32.5833H22.9815V31.8067L23.9432 31.8064C24.8821 31.8061 24.9096 31.8042 25.0992 31.7277C25.2366 31.6722 25.3326 31.6022 25.4269 31.4885C25.5002 31.4 25.5864 31.3189 25.6185 31.3083C25.6505 31.2976 26.2803 31.2889 27.0181 31.2889H28.3596V30.7712H25.5358L25.3379 30.8566C25.2053 30.9138 25.0978 30.9929 25.0123 31.0962C24.942 31.1809 24.8583 31.2589 24.8263 31.2696C24.7943 31.2802 24.3661 31.2889 23.8748 31.2889H22.9815Z" fill="white"/>
<path d="M27.4633 32.0656H28.0608V31.5478H27.4633V32.0656Z" fill="white"/>
<path fill-rule="evenodd" clip-rule="evenodd" d="M33.7383 4.63606C31.5832 5.08083 29.9071 6.18729 28.7597 7.92264C27.8002 9.37373 27.3951 11.5247 27.7614 13.2239C28.3305 15.8635 30.5149 18.1344 33.1521 18.8277C34.0682 19.0685 35.8499 19.0992 36.7368 18.8897C38.8178 18.3976 40.7943 16.8533 41.6818 15.026C42.4536 13.4369 42.6525 12.1083 42.3579 10.5112C41.8635 7.83211 39.8067 5.6071 37.0837 4.80583C36.3254 4.58271 34.4564 4.48776 33.7383 4.63606ZM29.6831 8.92895C29.8319 8.38833 30.4076 7.71139 30.895 7.50387C31.7422 7.14307 32.939 7.4868 33.4438 8.23596C34.3736 9.61584 33.4312 11.4278 31.7727 11.4489C30.3838 11.4664 29.333 10.1993 29.6831 8.92895ZM34.4854 11.5667C35.7348 9.46314 36.8386 7.65295 36.9384 7.5441C37.0381 7.43526 37.2404 7.3463 37.3881 7.3463C37.7067 7.3463 38.0684 7.82295 37.9597 8.09965C37.7753 8.56929 33.3488 15.9321 33.1395 16.1172C32.9259 16.3062 32.8774 16.3096 32.595 16.1553C31.989 15.8244 32.0621 15.6468 34.4854 11.5667ZM36.6515 15.351C35.8724 14.2005 36.4269 12.6149 37.7534 12.1995C37.9257 12.1456 38.2886 12.1242 38.56 12.1521C39.6778 12.267 40.3463 12.955 40.4106 14.0569C40.4603 14.9066 40.2247 15.3911 39.5277 15.8741C38.6208 16.5027 37.264 16.2559 36.6515 15.351Z" fill="white"/>
<path d="M37.851 13.5712C37.4296 13.8952 37.4296 14.4741 37.851 14.7981C38.0185 14.9269 38.2456 15.0324 38.3557 15.0324C38.7436 15.0324 39.1652 14.5909 39.1652 14.1846C39.1652 13.7784 38.7436 13.3369 38.3557 13.3369C38.2456 13.3369 38.0185 13.4424 37.851 13.5712Z" fill="white"/>
<path d="M31.2253 8.75658C30.4146 9.31156 31.2226 10.5648 32.1039 10.1194C32.6342 9.85128 32.7239 9.37158 32.3342 8.88747C32.0617 8.54872 31.6071 8.49503 31.2253 8.75658Z" fill="white"/>
</svg>
