<svg width="40" height="40" viewBox="0 0 40 40" fill="none" xmlns="http://www.w3.org/2000/svg">
<path d="M24.197 0.00375366C24.4034 0.0417212 24.6075 0.0844301 24.8163 0.117652C27.3502 0.518684 29.597 1.54381 31.5235 3.24523C32.4322 4.04729 33.1796 4.98224 33.7134 6.07619C33.7466 6.145 33.8154 6.20907 33.8818 6.2423C35.1654 6.87351 36.2236 7.77998 37.118 8.88342C37.8559 9.79464 38.4514 10.796 38.9188 11.871C39.3838 12.9388 39.716 14.0446 39.8797 15.1979C40.06 16.4746 40.0553 17.7488 39.7777 19.0136C39.7279 19.2343 39.6614 19.4526 39.5879 19.6686C39.5238 19.8561 39.5072 20.0316 39.576 20.2262C40.0292 21.491 40.0529 22.8009 39.9604 24.1179C39.8607 25.5369 39.474 26.8895 38.8927 28.1828C38.0077 30.15 36.7645 31.8443 34.9709 33.0877C34.6482 33.3108 34.2923 33.484 33.9554 33.6905C33.8724 33.7403 33.7846 33.8115 33.7419 33.8946C33.0348 35.3278 31.9909 36.474 30.7168 37.4137C28.7002 38.8992 26.4438 39.7629 23.9384 39.9646C22.6477 40.069 21.3855 39.9409 20.1541 39.5328C20.0782 39.5067 19.9762 39.5114 19.9003 39.5375C18.6357 39.9694 17.3332 40.0714 16.0116 39.9646C13.9333 39.7985 12.0162 39.1365 10.2439 38.0473C8.7065 37.1028 7.40396 35.914 6.52373 34.317C6.31969 33.9468 6.0682 33.7071 5.70282 33.5078C4.31487 32.7437 3.2306 31.6426 2.3314 30.347C1.65047 29.3645 1.11664 28.3086 0.722795 27.1862C0.350301 26.1231 0.0964364 25.0268 0.0371221 23.8949C0.0347495 23.8569 0.0157691 23.8189 0.00390625 23.7833C0.00390625 23.3396 0.00390625 22.8958 0.00390625 22.4521C0.0157691 22.4283 0.0347495 22.407 0.0371221 22.3833C0.0679655 21.6215 0.234047 20.8836 0.461814 20.1598C0.490285 20.0696 0.483165 19.9581 0.459439 19.8655C0.366909 19.4716 0.250655 19.0825 0.165243 18.6862C0.0940658 18.3516 0.0561028 18.0122 0.00390625 17.6753C0.00390625 17.1485 0.00390625 16.6217 0.00390625 16.0949C0.0133965 16.0783 0.0323783 16.064 0.0347508 16.045C0.120163 15.4803 0.160496 14.9036 0.300478 14.3531C0.495028 13.5795 0.71805 12.8059 1.01225 12.0679C1.48676 10.8767 2.14871 9.78515 2.97437 8.80037C3.83561 7.77287 4.83209 6.91385 6.03736 6.30637C6.13938 6.25654 6.22716 6.1545 6.28885 6.05484C6.49289 5.72737 6.65897 5.37616 6.87724 5.05818C7.62935 3.95712 8.58075 3.05302 9.68162 2.30079C11.2736 1.2116 13.0175 0.502079 14.9155 0.167489C15.2239 0.112911 15.5324 0.0607073 15.8384 0.00612895C16.517 0.00612895 17.1956 0.00612895 17.8741 0.00612895C17.9097 0.0203668 17.9429 0.0417218 17.9785 0.0488407C18.4388 0.136641 18.9157 0.17697 19.357 0.319349C19.7911 0.459354 20.185 0.494956 20.6073 0.312237C20.7995 0.229183 21.0225 0.207828 21.2313 0.165114C21.497 0.110536 21.7628 0.0606952 22.0285 0.00848976C22.7545 0.00374381 23.4757 0.00375366 24.197 0.00375366ZM6.62575 33.9586C6.61626 33.9515 6.60914 33.942 6.59965 33.9349C6.59728 33.9349 6.59016 33.942 6.58542 33.9468C6.59491 33.9539 6.6044 33.961 6.61626 33.9681C6.93419 34.2932 7.23313 34.6373 7.57003 34.9411C8.65667 35.9187 9.89041 36.6828 11.193 37.3283C13.2191 38.332 15.3378 39.0534 17.5941 39.3097C18.268 39.3856 18.9489 39.3785 19.6274 39.4094C17.1552 38.0401 15.5466 35.9353 14.2892 33.5149C14.2654 33.5173 14.2512 33.5149 14.2393 33.5173C14.1871 33.5339 14.1349 33.5529 14.0827 33.5695C12.3223 34.1627 10.5191 34.4783 8.66142 34.3217C7.97574 34.2647 7.30193 34.0844 6.62575 33.9586ZM10.5595 12.9198C10.5618 12.946 10.5666 12.9721 10.569 12.9982C10.5049 13.029 10.4408 13.0598 10.3744 13.0883C9.44199 13.4704 8.50245 13.8406 7.57715 14.2368C7.00062 14.486 6.99824 14.5097 7.24736 15.084C7.66256 16.0403 8.092 16.9871 8.51194 17.9411C8.5333 17.9909 8.52618 18.0526 8.5333 18.1072C8.47873 18.0787 8.40043 18.0645 8.37196 18.0194C8.05641 17.4854 7.729 16.9586 7.43954 16.4105C7.15483 15.8694 6.91046 15.3071 6.64236 14.7447C6.61864 14.7565 6.58542 14.766 6.55695 14.7826C5.56047 15.3688 4.66126 16.0688 3.89255 16.9373C3.09537 17.839 2.49036 18.8689 1.90196 19.9083C1.87586 19.9533 1.88061 20.0411 1.90671 20.0886C2.03957 20.3306 2.18667 20.5632 2.32903 20.8005C3.11672 22.1341 4.05626 23.3372 5.32558 24.2532C5.71943 24.5379 6.13463 24.7942 6.53797 25.0623C6.8203 24.4454 7.0718 23.864 7.34939 23.2969C7.6246 22.7345 7.91169 22.1744 8.2913 21.6761C8.32451 21.6927 8.35773 21.7093 8.39094 21.726C7.86186 22.8792 7.32092 24.0277 6.9674 25.2688C8.12047 25.8881 9.34472 26.3129 10.5761 26.7282C10.5618 26.7685 10.55 26.8065 10.5357 26.8468C9.26642 26.6143 8.04455 26.2132 6.80844 25.6912C6.70167 26.3105 6.58304 26.8967 6.50238 27.4899C6.38138 28.3869 6.39324 29.2886 6.55932 30.1761C6.71354 30.9948 6.9247 31.804 7.10027 32.6179C7.13585 32.7793 7.20703 32.8694 7.37548 32.8932C7.51072 32.9122 7.64359 32.9596 7.77645 32.9952C9.28303 33.3844 10.8038 33.6549 12.3674 33.4271C12.9368 33.344 13.5015 33.2206 14.0685 33.1162C14.059 33.0427 14.0614 33.0213 14.0543 33.0023C13.7862 32.2857 13.5062 31.5738 13.2547 30.85C13.1195 30.4609 13.0317 30.0551 12.9297 29.6541C12.9131 29.5876 12.9273 29.5141 12.9273 29.4452C12.9581 29.4405 12.989 29.4357 13.0198 29.431C13.4469 30.6341 13.8953 31.8277 14.5169 32.9454C14.562 32.9335 14.5905 32.9288 14.6166 32.9193C15.7649 32.5515 16.8586 32.0508 17.931 31.505C17.9832 31.4789 18.0544 31.4812 18.1161 31.4717C18.0829 31.5287 18.0639 31.6118 18.0141 31.6402C17.345 32.027 16.6783 32.4186 15.995 32.784C15.5964 32.9976 15.1694 33.1613 14.7423 33.3535C15.3022 34.3359 15.9761 35.2116 16.797 35.9733C17.7223 36.8323 18.7994 37.4659 19.8908 38.0805C19.9549 38.1161 20.0782 38.1066 20.147 38.0686C20.427 37.9167 20.6951 37.7435 20.9656 37.5798C22.2634 36.7967 23.4236 35.8617 24.3085 34.6159C24.5742 34.241 24.8186 33.8495 25.0867 33.4437C24.9776 33.401 24.9088 33.3725 24.84 33.344C23.7937 32.9382 22.7972 32.4304 21.8434 31.8372C21.7817 31.7992 21.7367 31.7351 21.6845 31.6829C21.7011 31.6616 21.7177 31.6426 21.7343 31.6212C21.7888 31.6402 21.8458 31.6568 21.898 31.6806C22.0736 31.7612 22.2444 31.8562 22.4223 31.9274C23.3192 32.2857 24.2207 32.6369 25.1176 32.9928C25.2243 33.0355 25.2931 33.0261 25.3453 32.9098C25.528 32.5016 25.7392 32.103 25.9029 31.6853C26.1781 30.9805 26.4225 30.2615 26.6858 29.552C26.7001 29.5093 26.7546 29.4832 26.7902 29.4476C26.8068 29.4951 26.8448 29.5473 26.8353 29.5876C26.6787 30.2093 26.534 30.8358 26.3466 31.448C26.1686 32.0247 25.9408 32.5894 25.7297 33.1732C25.9598 33.2278 26.1923 33.2871 26.4272 33.3369C27.5922 33.5837 28.7713 33.6762 29.9481 33.4745C30.8734 33.3156 31.7845 33.0854 32.6979 32.8718C32.7715 32.8552 32.8569 32.746 32.8782 32.6654C32.9992 32.205 33.1274 31.7446 33.2057 31.2772C33.3243 30.5724 33.4382 29.8629 33.4904 29.1486C33.5521 28.3252 33.4429 27.5065 33.2745 26.6973C33.2223 26.4411 33.1463 26.1871 33.0894 25.9593C32.259 26.2488 31.4689 26.536 30.6694 26.8017C30.3159 26.918 29.9481 26.994 29.5851 27.0818C29.5472 27.0912 29.495 27.0533 29.4523 27.039C29.4807 27.0058 29.5044 26.9631 29.54 26.9441C29.6136 26.9085 29.6966 26.8895 29.7726 26.8563C30.7643 26.4387 31.756 26.0187 32.7501 25.6034C32.9186 25.5322 32.9542 25.4373 32.8877 25.2688C32.7383 24.8986 32.622 24.5142 32.4607 24.1488C32.1499 23.444 31.813 22.7463 31.4927 22.0463C31.4713 21.9988 31.4855 21.9372 31.4832 21.8826C31.5306 21.9087 31.6018 21.9229 31.6255 21.9632C32.0645 22.7463 32.5034 23.527 32.9257 24.3172C33.087 24.6186 33.208 24.9413 33.3504 25.2664C34.3398 24.7017 35.2223 24.0182 35.9863 23.1901C36.736 22.3785 37.315 21.4459 37.863 20.492C38.1572 19.9818 38.1548 19.9818 37.844 19.4788C37.8156 19.4313 37.7847 19.3862 37.7562 19.3387C37.1109 18.2543 36.3944 17.2244 35.4501 16.3725C34.8356 15.8196 34.1642 15.3522 33.4358 14.9416C33.3456 15.1599 33.2745 15.3759 33.1724 15.5776C32.7288 16.4485 32.2756 17.317 31.8225 18.1831C31.7964 18.2329 31.7252 18.259 31.6754 18.297C31.6754 18.2306 31.6564 18.1546 31.6801 18.0977C31.9055 17.5946 32.1546 17.101 32.3634 16.5908C32.6149 15.981 32.8332 15.3569 33.0704 14.7281C32.7193 14.5619 32.4156 14.3958 32.0929 14.2724C31.2625 13.9497 30.425 13.646 29.5922 13.3304C29.5377 13.309 29.4997 13.2521 29.4523 13.2117C29.5116 13.1999 29.578 13.1666 29.6302 13.1809C30.4108 13.3944 31.1913 13.6009 31.9648 13.8358C32.3658 13.9568 32.7525 14.1277 33.1962 14.2938C33.2887 13.7717 33.3836 13.2639 33.4666 12.7561C33.6351 11.731 33.6114 10.7035 33.4239 9.68548C33.2911 8.96885 33.0847 8.26407 32.9494 7.54743C32.8901 7.22708 32.724 7.1298 32.4346 7.05149C30.6528 6.58164 28.8639 6.29451 27.0251 6.66469C26.6574 6.73826 26.2944 6.82842 25.9266 6.9091C25.9409 6.9708 25.9432 6.99215 25.9503 7.00876C26.451 8.08847 26.8187 9.21327 27.0773 10.3737C27.0892 10.4259 27.0536 10.4899 27.0417 10.5492C27.0061 10.5065 26.9563 10.4709 26.9373 10.4211C26.7214 9.86108 26.5245 9.29393 26.2944 8.74341C26.0547 8.17389 25.7819 7.61624 25.5162 7.03961C25.2813 7.11792 25.0725 7.17251 24.8779 7.25794C23.9669 7.6566 23.0605 8.06473 22.1495 8.46102C22.0688 8.49662 21.9692 8.48951 21.8766 8.50375C21.9336 8.44442 21.981 8.3661 22.0498 8.32813C22.866 7.87727 23.6822 7.42879 24.5054 6.98979C24.7498 6.85928 25.0155 6.76435 25.2765 6.65282C24.7949 5.81278 24.2397 5.05819 23.5825 4.38189C22.7165 3.48966 21.6892 2.8181 20.6215 2.20113C20.4175 2.08485 20.2135 1.88077 20.0094 1.88077C19.8054 1.88077 19.6037 2.08959 19.402 2.20824C18.1327 2.95573 16.9346 3.79813 16.0235 4.9775C15.6368 5.47819 15.2928 6.00974 14.9131 6.5484C15.0413 6.60061 15.1172 6.63147 15.1931 6.65994C16.2442 7.07759 17.2477 7.58302 18.2063 8.18339C18.2561 8.21424 18.2822 8.2783 18.3202 8.32813C18.3035 8.34712 18.2869 8.36611 18.2703 8.3851C17.1267 7.83694 15.9689 7.31963 14.702 6.94233C14.403 7.65422 14.0922 8.36136 13.8075 9.07563C13.6343 9.50988 13.4991 9.96075 13.3425 10.4021C13.3211 10.4591 13.2737 10.5065 13.2381 10.5611C13.212 10.5492 13.1883 10.5374 13.1622 10.5255C13.3994 9.25597 13.7933 8.03151 14.3058 6.83079C14.1444 6.79045 13.9973 6.75249 13.8502 6.71689C12.69 6.44163 11.5132 6.32297 10.3317 6.49146C9.43962 6.6196 8.56177 6.8569 7.67206 7.02064C7.30668 7.08708 7.13348 7.24132 7.04095 7.62812C6.74438 8.88817 6.47628 10.1458 6.51424 11.451C6.54034 12.3385 6.68981 13.2022 6.92944 14.066C6.98164 14.0494 7.02197 14.0399 7.05993 14.0233C8.12284 13.5463 9.22372 13.1833 10.3578 12.9246C10.4195 12.908 10.4907 12.9198 10.5595 12.9198ZM14.5003 6.39179C15.0768 5.21005 15.7578 4.11136 16.6119 3.12183C17.4684 2.12755 18.4269 1.25906 19.6346 0.644459C15.7886 0.262411 9.30438 2.8086 6.58542 6.0311C9.26168 5.22429 11.8786 5.56363 14.5003 6.39179ZM6.49289 14.2701C5.65774 11.75 5.29711 9.21801 6.04447 6.58401C5.9472 6.66469 5.88077 6.71215 5.81908 6.7691C4.29114 8.2095 3.214 9.96075 2.35987 11.852C2.00399 12.6422 1.68843 13.4561 1.42982 14.2819C1.16884 15.1148 0.979035 15.9715 0.803465 16.8281C0.691954 17.3739 0.646873 17.9339 0.604166 18.4892C0.578068 18.857 0.611286 19.232 0.620776 19.6543C1.9684 17.1366 4.06575 15.5349 6.49289 14.2701ZM20.389 39.3548C24.6881 39.6989 31.0751 36.8608 33.4358 33.9349C33.3172 33.9752 33.208 34.0132 33.0965 34.0464C31.915 34.3929 30.705 34.4641 29.4831 34.3881C28.1853 34.3098 26.9231 34.0488 25.6894 33.643C25.5423 33.5932 25.4829 33.6383 25.4236 33.764C25.0179 34.6064 24.5339 35.399 23.9764 36.1489C23.2076 37.1788 22.3251 38.0971 21.2598 38.8256C20.9893 39.0083 20.7022 39.1649 20.389 39.3548ZM33.5971 14.4836C34.7763 15.0508 35.8819 15.7413 36.876 16.5956C37.8701 17.4499 38.7385 18.4133 39.3577 19.6306C39.3696 19.5262 39.3815 19.4598 39.3838 19.3957C39.4431 18.4584 39.3411 17.5329 39.175 16.6146C38.8809 14.9796 38.3613 13.4158 37.6756 11.9018C36.9591 10.3214 36.0883 8.83833 34.9424 7.52844C34.6458 7.19148 34.316 6.88299 34.0005 6.56264C34.3753 7.88439 34.4774 9.20378 34.3872 10.5516C34.3018 11.8971 34.0195 13.1975 33.5971 14.4836ZM20.3463 0.630208C21.6228 1.24481 22.6193 2.13231 23.5113 3.14557C24.4011 4.15408 25.1247 5.2765 25.7178 6.47959C28.2494 5.64905 30.7928 5.27412 33.4026 6.0311C31.0537 3.12183 24.6383 0.262397 20.3463 0.630208ZM5.97092 33.4176C5.99465 33.3986 6.01837 33.3773 6.0421 33.3583C6.00414 33.242 5.96381 33.1257 5.93059 33.0095C5.64825 31.9701 5.57233 30.9165 5.60555 29.8415C5.65062 28.3916 5.92347 26.9939 6.38138 25.6247C6.41697 25.5203 6.38612 25.48 6.29596 25.4373C5.42286 25.0291 4.60432 24.5284 3.83561 23.9494C2.79642 23.1687 1.86875 22.2789 1.14037 21.192C0.979035 20.9524 0.834306 20.6985 0.682462 20.4517C0.665854 20.4564 0.646873 20.4588 0.630265 20.4635C0.630265 20.8812 0.608913 21.2988 0.635011 21.7141C0.69907 22.7701 0.886504 23.8047 1.16172 24.8274C1.47965 26.0092 1.89247 27.1529 2.40732 28.2588C3.1096 29.7727 3.95898 31.1989 5.0646 32.4565C5.35643 32.7887 5.66961 33.0996 5.97092 33.4176ZM39.3886 20.3401C38.0433 22.846 35.9507 24.4525 33.5212 25.7149C34.3564 28.2279 34.7099 30.7693 33.9601 33.4342C35.9863 31.5738 37.2533 29.2934 38.2047 26.8184C38.9971 24.7539 39.4953 22.6277 39.3886 20.3401Z" fill="#325AE1"/>
<path d="M9.33997 30.6673C9.57248 30.2544 9.76941 29.813 10.047 29.4334C10.9913 28.1425 12.2487 27.2123 13.632 26.4434C15.4636 25.4278 17.4257 24.7966 19.4969 24.4952C20.1708 24.3979 20.8208 24.5023 21.4709 24.621C23.4544 24.984 25.3216 25.6651 27.0512 26.7068C28.2494 27.4282 29.3455 28.2801 30.1759 29.4215C30.4369 29.7822 30.6362 30.188 30.8639 30.5748C30.8782 30.6009 30.8782 30.6365 30.8877 30.6815C30.686 30.4609 30.5104 30.2402 30.304 30.0527C29.6682 29.4737 28.9113 29.0845 28.1331 28.7357C26.2611 27.898 24.2967 27.3713 22.2918 26.9845C21.6418 26.8587 20.9869 26.7234 20.3273 26.6712C19.8955 26.6356 19.4471 26.7187 19.0129 26.7899C17.4162 27.0485 15.8361 27.3997 14.2939 27.8981C12.9629 28.3299 11.6627 28.8282 10.4859 29.6042C10.0446 29.8961 9.65315 30.2402 9.36133 30.6863C9.35658 30.6815 9.34709 30.6744 9.33997 30.6673Z" fill="#325AE1"/>
<path d="M29.1011 26.5099C28.9398 26.3058 28.8045 26.1065 28.6432 25.9356C28.0263 25.283 27.2647 24.8345 26.4699 24.4406C24.6264 23.5342 22.6714 22.9884 20.6595 22.6063C20.045 22.4901 19.4803 22.63 18.9038 22.7463C17.0532 23.1165 15.2619 23.667 13.5774 24.5308C12.8063 24.9271 12.0684 25.3732 11.4919 26.04C11.3495 26.2037 11.2357 26.3888 11.1075 26.5644C11.0886 26.555 11.0696 26.5455 11.0506 26.536C11.2333 26.1682 11.3946 25.7861 11.6058 25.4349C12.5928 23.8023 14.0163 22.6467 15.6676 21.7449C16.9796 21.0283 18.3724 20.549 19.8552 20.3639C20.1897 20.3235 20.5456 20.3757 20.8802 20.4374C22.9419 20.8218 24.7973 21.6737 26.4367 22.9812C27.5589 23.8759 28.4866 24.9318 29.0489 26.2726C29.0679 26.3177 29.0869 26.3604 29.1011 26.4078C29.1082 26.4339 29.1011 26.4624 29.1011 26.5099Z" fill="#325AE1"/>
<path d="M27.3264 22.3928C26.9658 21.6073 26.3323 21.0734 25.6443 20.6012C24.2373 19.633 22.6667 19.0397 21.0225 18.6174C20.9229 18.5913 20.8185 18.5794 20.7212 18.5414C20.0735 18.2994 19.4685 18.5462 18.8611 18.7075C17.3688 19.1062 15.95 19.6804 14.6593 20.5395C14.0638 20.9357 13.5181 21.3914 13.1147 21.9941C13.0056 22.1578 12.9249 22.3405 12.7968 22.5066C12.8466 22.3429 12.887 22.1768 12.9463 22.0155C13.333 20.9666 13.9214 20.0388 14.6783 19.2177C15.7483 18.0526 17.0081 17.1603 18.5005 16.6264C18.9916 16.4508 19.5064 16.3061 20.0237 16.242C20.344 16.2017 20.6951 16.3037 21.0178 16.3962C23.6157 17.1627 25.5684 18.7431 26.8756 21.1114C27.0892 21.4981 27.2031 21.9419 27.362 22.3595C27.3525 22.3714 27.3407 22.3833 27.3264 22.3928Z" fill="#325AE1"/>
<path d="M14.6 18.335C14.7945 17.3122 15.1741 16.3725 15.7198 15.504C16.358 14.486 17.1457 13.6056 18.1517 12.9341C18.7187 12.5544 19.3238 12.2341 20.0047 12.1486C20.2799 12.113 20.5883 12.2174 20.8612 12.3171C22.0997 12.768 23.0558 13.6009 23.872 14.6094C24.6098 15.5206 25.1413 16.5434 25.4924 17.661C25.5684 17.9031 25.6182 18.1546 25.6538 18.4133C25.4307 17.699 24.9894 17.1295 24.4627 16.6288C23.5659 15.7745 22.5125 15.1623 21.3618 14.7162C21.2408 14.6687 21.1127 14.6331 20.994 14.5762C20.4128 14.2985 19.8457 14.3246 19.2455 14.5619C18.0449 15.0294 16.9085 15.5966 15.9476 16.4674C15.39 16.9729 14.8989 17.5305 14.6474 18.259C14.6355 18.2851 14.6166 18.3089 14.6 18.335Z" fill="#325AE1"/>
<path d="M23.853 14.0731C23.7462 13.8168 23.6513 13.5534 23.5327 13.3019C23.0558 12.2934 22.3156 11.5103 21.4069 10.891C21.0439 10.6442 20.6382 10.4615 20.2443 10.2645C20.1708 10.2289 20.0521 10.2313 19.9738 10.2621C18.7994 10.7462 17.8575 11.5222 17.122 12.5544C16.7709 13.048 16.5051 13.5819 16.3746 14.1775C16.3723 14.1918 16.3509 14.2036 16.2987 14.206C16.3533 13.9379 16.4031 13.6673 16.4624 13.3992C16.8278 11.7808 17.4518 10.2858 18.5645 9.02817C18.9109 8.63663 19.3166 8.32103 19.7983 8.10272C20.007 8.0078 20.1945 8.00305 20.408 8.09797C21.0391 8.37798 21.5207 8.8336 21.9407 9.36514C22.5789 10.1672 23.0416 11.0666 23.3619 12.0371C23.5469 12.5971 23.6822 13.1761 23.834 13.748C23.8625 13.8524 23.8625 13.964 23.8743 14.0707C23.872 14.0707 23.8625 14.0707 23.853 14.0731Z" fill="#325AE1"/>
<path d="M27.3644 22.3595C27.3952 22.445 27.4284 22.5328 27.4593 22.6182C27.4427 22.6229 27.4261 22.6301 27.4095 22.6348C27.381 22.5541 27.3549 22.4734 27.3264 22.3904C27.3407 22.3833 27.3525 22.3714 27.3644 22.3595Z" fill="#325AE1"/>
<path d="M29.1818 26.7353C29.1486 26.6736 29.1177 26.6143 29.0845 26.5526C29.1011 26.5455 29.1201 26.5383 29.1367 26.5312C29.1557 26.5953 29.1747 26.6594 29.1936 26.7234L29.1818 26.7353Z" fill="#325AE1"/>
<path d="M29.1936 26.7234C29.2031 26.7495 29.2126 26.7756 29.2221 26.8041C29.2126 26.8065 29.2031 26.8065 29.1936 26.8089C29.1889 26.7851 29.1842 26.759 29.1794 26.7353C29.1818 26.7353 29.1936 26.7234 29.1936 26.7234Z" fill="#325AE1"/>
<path d="M9.36607 30.6887C9.36133 30.7124 9.35421 30.7361 9.34946 30.7598C9.33997 30.7575 9.33285 30.7575 9.32336 30.7551C9.32811 30.7243 9.33523 30.6958 9.33997 30.665C9.34709 30.6744 9.35658 30.6816 9.36607 30.6887Z" fill="#325AE1"/>
</svg>
