<svg width="30" height="33" viewBox="0 0 30 33" fill="none" xmlns="http://www.w3.org/2000/svg">
<path fill-rule="evenodd" clip-rule="evenodd" d="M14.3942 0.0931492C13.1117 0.196339 11.884 0.687376 10.8217 1.52206C10.5192 1.75968 9.94798 2.31976 9.71096 2.61107C8.80745 3.72153 8.21637 4.99834 7.93861 6.43949C7.86416 6.82574 7.81694 7.19507 7.79984 7.52484L7.78597 7.79209H4.40955C0.683874 7.79209 0.903948 7.78393 0.712122 7.92901C0.572351 8.0347 0.491648 8.19224 0.478157 8.3857C0.472055 8.47319 0.681944 13.2227 0.944577 18.9401C1.46432 30.2539 1.42866 29.6354 1.589 30.123C1.88716 31.0298 2.58432 31.7232 3.44372 31.9677C3.83636 32.0794 3.1652 32.0732 14.7825 32.0732C26.428 32.0731 25.7403 32.0797 26.1656 31.9643C26.4004 31.9005 26.8328 31.6873 27.0541 31.5261C27.6778 31.0716 28.0966 30.3809 28.2169 29.6082C28.2365 29.4819 28.4552 25.2839 28.7761 18.8702C29.2987 8.42556 29.3027 8.33845 29.2634 8.21591C29.2156 8.06686 29.0896 7.92416 28.943 7.85317L28.8394 7.803L25.4184 7.79721L21.9975 7.79141L21.9852 7.65541C21.9784 7.5806 21.9622 7.40158 21.9491 7.25759C21.7648 5.23295 20.8389 3.27969 19.4339 1.95168C18.0161 0.61163 16.2132 -0.0532149 14.3942 0.0931492ZM15.6215 1.99671C16.2589 2.11546 16.8177 2.3363 17.3564 2.68239C18.55 3.44916 19.4617 4.77457 19.8433 6.29769C19.9528 6.7349 20.0072 7.08837 20.0504 7.64483L20.0619 7.79209H14.8891H9.71644L9.73068 7.52484C9.75658 7.03932 9.8697 6.42319 10.0216 5.94038C10.3879 4.7761 11.0151 3.80332 11.8603 3.08867C12.5722 2.48666 13.3613 2.12279 14.2694 1.97764C14.5262 1.93661 15.362 1.94839 15.6215 1.99671ZM15.6425 11.816C16.901 11.9756 17.994 12.3438 19.0562 12.9659C19.3258 13.1238 19.4544 13.2322 19.477 13.3205C19.4969 13.3983 19.4416 13.5134 19.2193 13.8578C19.1306 13.9953 19.0245 14.1618 18.9837 14.2278C18.8262 14.4824 18.7753 14.4841 18.3882 14.2486C17.3141 13.5951 16.2148 13.2612 14.9045 13.1905C14.4502 13.1659 13.9091 13.2403 13.4511 13.3903C12.623 13.6616 11.9619 14.2308 11.6841 14.9118C11.5308 15.2875 11.4802 15.6055 11.5194 15.9472C11.6372 16.9769 12.4102 17.7381 13.9726 18.3632C14.142 18.4309 14.5108 18.5627 14.7922 18.656C15.7506 18.9736 16.4204 19.2353 17.0569 19.5406C18.8911 20.4206 19.8475 21.4048 20.1306 22.7034C20.1996 23.0201 20.2154 23.6492 20.1643 24.0457C19.9777 25.493 19.151 26.651 17.8446 27.2952C17.2943 27.5665 16.6778 27.7425 15.8808 27.8558C15.5224 27.9068 14.6826 27.9064 14.2091 27.855C12.863 27.709 11.5353 27.2865 10.5998 26.7064C10.0769 26.3822 9.39183 25.8822 9.3605 25.8019C9.32846 25.7198 9.35886 25.6611 9.66938 25.2061C10.0252 24.6847 10.0888 24.6123 10.1911 24.6123C10.2787 24.6123 10.326 24.6382 10.4949 24.7788C10.8419 25.0677 11.4694 25.4612 11.9533 25.6934C13.0037 26.1977 14.1799 26.4594 15.1232 26.3987C16.3081 26.3226 17.2701 25.9575 17.8963 25.3464C18.2359 25.0149 18.4484 24.6622 18.5703 24.2277C18.6253 24.0318 18.6307 23.9788 18.6303 23.6415C18.6297 23.2353 18.6062 23.1099 18.4658 22.7652C18.1818 22.0678 17.4912 21.4279 16.4909 20.9354C16.0949 20.7404 15.7938 20.6225 15.1827 20.423C14.3321 20.1453 13.0909 19.6695 12.4922 19.3915C11.9093 19.1209 11.2365 18.6261 10.8315 18.1701C10.165 17.4198 9.86515 16.5974 9.90804 15.6371C9.96023 14.4681 10.5641 13.4135 11.5983 12.6854C12.2917 12.1972 13.1718 11.8835 14.1271 11.7841C14.3928 11.7564 15.3282 11.7761 15.6425 11.816Z" fill="white"/>
</svg>
