<svg width="26" height="26" viewBox="0 0 26 26" fill="none" xmlns="http://www.w3.org/2000/svg">
<path d="M7.40678 22.3386C7.40536 22.2347 7.36111 22.141 7.35735 22.0366C7.30792 20.5734 7.23965 18.5483 7.36017 17.1188C7.46939 15.8213 8.50601 14.9139 9.78412 14.801C11.8988 14.9302 14.23 14.6231 16.3197 14.8062C17.603 14.9185 18.6072 15.8742 18.7046 17.1628C18.5902 19.2586 18.8505 21.5033 18.7046 23.5813C18.6222 24.7556 17.7692 25.6593 16.6431 25.9318C12.0438 26.069 7.42231 25.9492 2.81496 25.9927C1.22567 25.8944 0.0831273 24.7528 0.061943 23.1594C0.215411 19.5049 -0.135306 15.6949 0.061943 12.0586C0.156566 10.3163 0.956862 9.76845 2.33855 8.93874C5.6433 6.95391 9.0648 5.11609 12.4326 3.24785C13.2 3.01935 13.7644 3.15373 14.4513 3.50725C17.4867 5.35957 20.6804 6.9628 23.7234 8.79827C24.9191 9.51935 25.8875 10.2638 26 11.7776V24.2359C25.831 26.3603 22.9579 26.5925 22.2937 24.6887C22.1082 20.6872 22.3624 16.6444 22.1642 12.6434C22.0988 12.3821 21.9651 12.1864 21.7627 12.0132L13.3577 7.26434C13.007 7.21096 12.8041 7.29478 12.5056 7.4404C9.83261 8.7463 7.25331 10.623 4.56855 11.9528C4.24655 12.1265 4.05118 12.4289 3.92125 12.7605C3.8464 15.8246 3.84828 18.9261 3.92031 21.9907C3.98575 22.1766 4.2828 22.3386 4.46498 22.3386H7.40678ZM14.7803 22.0886C14.8566 22.0137 14.9253 21.8638 14.939 21.7547C15.0105 21.1648 14.9959 19.6884 14.9399 19.0825C14.9088 18.7501 14.6739 18.5745 14.351 18.5445C13.7428 18.4879 12.258 18.4743 11.6653 18.5455C11.4163 18.5754 11.155 18.7768 11.1239 19.0371C11.0533 19.6336 11.0655 21.0992 11.1225 21.7093C11.1526 22.0272 11.389 22.2543 11.7119 22.2937C12.2763 22.3625 13.675 22.3466 14.2568 22.2946C14.4277 22.2792 14.6575 22.2108 14.7803 22.0895V22.0886Z" fill="white"/>
<path d="M17.7998 1.65304C17.9683 1.64368 18.2032 1.7083 18.3586 1.77432L24.4427 5.27389C25.4808 6.03898 24.6729 7.5612 23.4701 7.17772L17.2471 3.62899C16.4026 3.03948 16.7877 1.70736 17.8003 1.65258L17.7998 1.65304Z" fill="white"/>
<path d="M20.5731 0.0151678C20.6926 -0.0049662 20.8141 -0.00262504 20.9346 0.0081443C22.2127 0.621997 23.4301 1.39083 24.6564 2.11098C25.2487 2.75854 24.7873 3.74604 23.9089 3.69969C22.6096 3.14343 21.4322 2.31232 20.1856 1.64228C19.5882 1.17451 19.8071 0.144868 20.5731 0.0146996V0.0151678Z" fill="white"/>
</svg>
