<svg width="77" height="21" viewBox="0 0 77 21" fill="none" xmlns="http://www.w3.org/2000/svg">
<path d="M16.3376 9.09147C15.6361 9.09147 15.0637 9.57119 15.0637 10.1577C15.0637 10.7443 15.6349 11.2361 16.3376 11.2361H45.1133C45.8148 11.2361 46.3908 10.7524 46.3908 10.1577C46.3908 9.56313 45.8148 9.09147 45.1133 9.09147H16.3376Z" fill="white"/>
<path d="M29.6135 0.688259L15.7664 6.63037C15.1509 6.90349 14.894 7.53942 15.225 8.06651C15.5333 8.60268 16.3017 8.80726 16.9256 8.53414C16.9256 8.53414 29.6648 3.13222 30.7296 2.67568C31.8028 3.13323 44.597 8.5936 44.597 8.5936C45.2233 8.86471 45.9845 8.65407 46.3072 8.11791C46.6298 7.59082 46.3717 6.9438 45.7431 6.67975L31.9032 0.688259C31.2865 0.429249 30.1727 0.445374 29.6135 0.688259Z" fill="white"/>
<path d="M21.2779 13.8262V13.8161L21.2636 13.8061L21.2779 13.8262Z" fill="white"/>
<path d="M59.2831 14.054C59.2412 14.5488 59.5376 15.083 60.1973 14.9489C60.4542 14.8945 60.7578 14.7534 60.7578 15.2694C60.8319 16.4727 60.8187 18.314 60.7578 18.4713C60.6908 18.6295 60.5869 18.7232 60.177 18.6154C59.6882 18.4844 59.2771 18.8321 59.2771 19.335C59.2771 19.8379 59.6296 20.4617 60.459 20.3025C60.857 20.24 61.7688 20.1342 62.1154 20.1614C62.4583 20.1926 63.1586 20.247 63.7107 20.3025C64.6811 20.4184 64.8711 19.8479 64.8711 19.335C64.8711 18.822 64.6142 18.5216 63.9486 18.6537C63.7992 18.6849 63.5673 18.691 63.4634 18.5599C63.3367 18.3402 63.3654 17.4483 63.3785 17.0623C63.4024 16.6592 63.4801 15.8499 63.7872 15.4327C64.3405 14.6456 65.0062 14.8098 65.1448 14.8784C64.8437 15.1958 65.0839 15.9991 65.9515 16.1261C66.8525 16.2792 67.5421 15.6645 67.5122 14.7101C67.4895 13.9149 66.7629 12.9403 64.9046 13.1197C64.1864 13.1973 63.4634 13.6277 62.83 14.4329C62.7798 14.0167 62.83 13.1973 62.4225 13.2447C62.4225 13.2447 61.6792 13.3203 61.1808 13.3304C60.8498 13.3304 60.3526 13.1752 60.0085 13.2447C59.6631 13.3203 59.3273 13.5138 59.2831 14.051" fill="#CECECE"/>
<path d="M56.9001 16.6128C55.5772 17.3848 53.2947 17.015 52.8011 17.2286C52.6768 17.2699 52.7091 18.1649 52.8393 18.2878C52.9839 18.437 53.5647 18.4541 53.8814 18.3634C54.363 18.2274 55.1016 18.7403 54.9833 19.3632C54.8662 19.9961 54.412 20.3891 53.2815 20.3105C52.7533 20.2813 51.5092 20.1513 51.0814 20.1765C50.6524 20.1936 49.7202 20.4002 48.855 20.3005C48.2324 20.2168 47.7508 19.85 47.6898 19.2997C47.6588 18.9308 47.8739 18.4551 48.3949 18.3644C48.9387 18.2697 49.4932 18.6315 49.5912 18.1941C49.6724 17.8313 49.6533 16.6935 49.6653 15.5738C49.6689 14.3029 49.6951 13.0643 49.6163 12.8647C49.5338 12.6309 48.7558 12.8164 48.5742 12.8164C48.0974 12.8164 47.7126 12.3246 47.7747 11.8176C47.8356 11.2764 48.2001 10.838 49.2374 10.838C49.7501 10.838 50.4815 10.9418 51.1101 11.0194C51.7554 11.0859 52.9732 10.9418 53.9651 10.8783C54.957 10.8169 56.219 11.0859 56.9061 11.3742C57.7355 11.731 58.4955 12.7549 58.5505 13.5601C58.6354 14.8965 58.2673 15.8227 56.9001 16.6149M52.7509 15.1313C52.8405 15.4004 53.3484 15.3198 53.7775 15.3047C54.9199 15.2936 55.4577 14.8683 55.4577 14.0983C55.4446 13.4644 55.1601 13.2477 54.8781 13.1066C54.6343 12.9766 53.6651 12.8144 53.2038 12.9534C52.739 13.0703 52.739 13.3928 52.739 13.5339C52.727 13.6821 52.6959 14.9973 52.7509 15.1313Z" fill="#CECECE"/>
<path d="M72.2064 13.032C69.7028 13.032 68.0213 14.5458 68.0213 16.8013C68.0213 18.6426 69.3239 20.5 72.2064 20.5C75.0889 20.5 76.5217 18.9046 76.5217 16.6602C76.5217 15.5173 76.015 13.032 72.2064 13.032ZM73.8735 16.7056C73.8735 17.5975 73.5807 18.7746 72.2351 18.7746C71.0783 18.7746 70.7377 17.6146 70.7377 16.757C70.7377 15.7572 71.2049 14.7857 72.2351 14.7665C73.2879 14.7534 73.8735 15.3752 73.8735 16.7045" fill="#CECECE"/>
<path d="M6.22743 19.3874C6.29435 18.8754 6.04578 18.2747 5.73029 18.3342C5.30604 18.4189 4.9547 18.3997 4.9547 18.0681C4.9547 17.6378 4.83519 16.2823 5.0515 16.25C5.54625 16.1875 7.72722 16.2228 8.24588 16.2823C8.49086 16.2984 8.30324 18.0449 8.16581 18.3342C8.04989 18.6295 7.59816 18.1205 7.18706 18.4723C6.98151 18.6506 6.8381 19.3642 6.99226 19.7048C7.15718 20.0384 7.38902 20.2521 7.86465 20.2722C8.37136 20.2994 9.54012 20.1271 9.96556 20.1271C10.391 20.1271 11.4857 20.1936 12.0629 20.2722C12.701 20.369 13.1743 19.856 13.2269 19.3047C13.2974 18.6295 12.6568 18.2143 12.2397 18.3412C11.831 18.4723 11.4558 18.5539 11.3542 18.0097C11.2861 17.6731 11.2789 13.4997 11.3542 13.1066C11.4558 12.5433 11.831 12.7126 12.4357 12.7771C12.8002 12.8325 13.3249 12.3911 13.3249 11.8509C13.3249 11.3107 13.0118 10.7141 12.0557 10.8763C11.7581 10.9267 10.3826 10.9267 9.96436 10.9398C9.44571 10.96 8.06542 10.8763 7.69854 10.8763C7.06038 10.8763 6.89786 11.741 6.96836 12.0887C7.02931 12.4394 7.20498 12.897 7.66986 12.7771C8.04869 12.6914 8.30204 12.6995 8.30204 13.0008C8.30204 13.2638 8.37016 14.3362 8.37016 14.45C7.53362 14.45 5.85696 14.4168 5.02162 14.4168C4.9547 14.1346 4.9547 12.9534 5.08615 12.8123C5.21522 12.6854 5.47215 12.8285 5.87728 12.7267C6.29555 12.6299 6.41625 11.9799 6.29435 11.5838C6.14258 11.0497 5.85338 10.8058 5.33233 10.8461C4.89614 10.9045 3.89468 10.9872 3.5517 10.9408C3.2147 10.9045 2.10091 10.961 1.36953 10.8773C0.519849 10.7866 0.120701 11.0728 0.0298764 11.7975C-0.0478022 12.3417 0.360906 12.7529 0.791126 12.762C1.22852 12.771 1.8356 12.4858 1.94196 13.0744C2.01606 13.5148 1.97782 17.532 1.94196 17.8797C1.91448 18.2354 1.74597 18.5247 1.2094 18.3654C0.531799 18.1669 0 18.6184 0 19.3067C0 19.8641 0.54614 20.3246 1.04687 20.3015C1.46633 20.2742 3.12507 20.1372 3.5517 20.1291C3.98192 20.1029 5.08496 20.3246 5.50562 20.3015C5.95376 20.2742 6.17604 19.8107 6.22743 19.3904" fill="white"/>
<path d="M33.3337 19.469C33.3779 19.7865 33.489 20.1926 33.9133 20.2813C34.4068 20.3891 35.3629 20.1483 35.6186 20.1291C35.8696 20.0989 37.2797 20.2702 37.661 20.2702C38.0744 20.2702 38.3218 19.9175 38.3875 19.3309C38.4497 18.7383 37.9418 18.4985 37.6263 18.5801C37.4255 18.6244 36.8662 18.7111 36.8662 18.2838C36.8662 18.0832 36.8925 16.2964 36.8925 15.9467C36.8925 15.4155 37.0276 14.4763 36.2568 13.794C35.6389 13.2709 35.1537 13.022 33.9503 13.022C32.9405 13.022 31.9032 13.6287 31.259 14.0419C30.9531 13.6146 30.1727 12.9756 28.8474 13.0532C28.0802 13.0915 27.0991 13.5329 26.5589 13.9905C26.5326 13.9693 26.6222 13.2437 26.1777 13.2145C25.8562 13.1993 25.2539 13.2911 24.8081 13.2911C24.3935 13.2911 23.8485 13.2911 23.5043 13.2145C23.0968 13.1207 22.8363 13.6821 22.8363 14.184C22.8363 14.5246 22.9666 14.9348 23.6322 14.9348C23.8497 14.9348 24.1748 14.7121 24.2943 15.0416C24.3946 15.2684 24.3612 17.9109 24.3325 18.2516C24.2943 18.6638 24.1078 18.6506 23.79 18.5821C23.1506 18.444 22.7813 18.8089 22.7538 19.3118C22.7108 20.0999 23.349 20.3226 23.9596 20.2722C24.5476 20.2168 24.8822 20.1009 25.2204 20.1009C25.6315 20.1009 26.3043 20.2722 27.0262 20.2722C27.5711 20.2722 27.8926 19.9487 27.9224 19.5123C27.9511 19.1122 27.8257 18.7242 27.5711 18.6174C27.2903 18.4733 27.0979 18.7716 26.9102 18.444C26.78 18.2334 26.9198 16.5231 26.9198 16.4909C26.9437 15.8953 27.0656 15.6756 27.2915 15.4176C27.4874 15.1717 28.0288 14.963 28.4029 14.963C28.7853 14.9489 29.3195 15.3047 29.3195 15.606C29.3195 15.9074 29.3971 18.1719 29.3541 18.3957C29.2896 18.7403 28.9239 18.5227 28.6777 18.5821C28.3861 18.6547 28.2272 19.1979 28.3096 19.5123C28.3706 19.85 28.5283 20.2168 28.9239 20.2722C29.2549 20.3115 30.2349 20.1503 30.6854 20.1311C31.1431 20.1009 32.0083 20.2722 32.3179 20.2722C32.6274 20.2722 32.7899 19.9971 32.8556 19.7774C32.9178 19.5778 32.9632 18.7403 32.6274 18.6305C32.3788 18.5549 31.9426 18.7403 31.8649 18.3967C31.8482 18.2898 31.8446 17.2115 31.8482 16.6935C31.8649 16.4002 31.9856 15.6776 32.19 15.47C32.5079 15.1495 32.8903 14.9862 33.2667 14.965C33.6659 14.9298 34.0985 15.2321 34.2276 15.4468C34.4379 15.7955 34.3506 17.7497 34.3506 18.3977C34.3506 18.7887 33.9037 18.5247 33.6205 18.6184C33.4317 18.6658 33.2942 19.1233 33.3337 19.471" fill="white"/>
<path d="M44.1154 15.606H41.9237C41.5114 15.606 41.9237 14.6143 43.1534 14.6143C44.4644 14.6143 44.6221 15.606 44.1154 15.606ZM44.5947 18.2334C44.2804 18.5539 43.8023 18.7403 43.1534 18.7403C42.6168 18.7403 42.1137 18.5307 41.858 18.1991C41.5736 17.8273 41.4684 17.1278 42.0492 17.1057C42.587 17.0845 45.6714 17.1057 46.2749 17.1057C46.7828 17.1057 47.0947 16.7781 47.0947 16.2339C47.0947 14.3644 45.6176 12.9998 43.1188 12.9998C41.8926 12.9998 40.7275 13.4523 39.9531 14.2193L39.9411 14.2303C39.2838 14.9016 38.9373 15.8277 38.9373 16.8346C38.9373 19.0477 40.6964 20.4456 43.1857 20.4849C44.8743 20.5111 46.4996 19.6816 46.8127 18.9268C46.9178 18.6859 46.9394 18.0863 46.4303 17.8283C45.6977 17.4503 44.9006 17.9119 44.5923 18.2344" fill="white"/>
<path d="M17.9175 12.9978C15.409 12.9978 13.7276 14.5125 13.7276 16.762C13.7276 18.6154 15.0278 20.4698 17.9175 20.4698C20.8071 20.4698 22.2292 18.8744 22.2292 16.6421C22.2292 15.4881 21.7189 12.9978 17.9175 12.9978ZM19.5905 16.6763C19.5905 17.5572 19.293 18.7464 17.9557 18.7464C16.7786 18.7464 16.4428 17.5864 16.4428 16.7318C16.4428 15.7219 16.9076 14.7665 17.9557 14.7383C18.9834 14.7232 19.5905 15.347 19.5905 16.6753" fill="white"/>
<path d="M21.2779 13.8262V13.8161L21.2636 13.8061L21.2779 13.8262Z" fill="white"/>
</svg>
