<svg width="51" height="24" viewBox="0 0 51 24" fill="none" xmlns="http://www.w3.org/2000/svg">
<path fill-rule="evenodd" clip-rule="evenodd" d="M30.4449 20.4561C28.4773 20.5273 28.6684 19.5358 29.8355 17.9901C32.5261 14.4411 37.649 9.48875 37.8143 5.99059C38.119 1.45519 33.4143 -0.0447495 28.5754 0.00101129C25.229 0.0264339 21.6966 0.992495 19.3572 1.79585C11.1461 4.63302 5.99729 9.16842 2.76964 14.1665C-0.669757 19.1188 0.450886 23.8627 7.68084 24C13.2944 23.7915 16.899 22.2967 20.6638 20.3849C20.6896 20.3849 10.2526 23.3085 6.39494 21.1679H6.42076C5.99729 20.9391 5.55317 20.6391 5.43956 19.7849C5.41373 18.0104 8.43482 16.1698 10.1442 15.5953V12.6005C13.6301 13.8004 17.7253 13.4293 21.2112 10.8972C21.3764 11.1717 21.4694 11.609 21.3971 11.9802H22.0065C22.1717 10.7802 21.3041 9.63111 19.9924 9.53959C20.3643 9.88534 20.6483 10.0938 20.8135 10.3226C20.8135 10.3684 20.7412 10.3938 20.7206 10.4141C16.1605 13.5462 11.8071 12.0971 11.3836 11.9802L13.8625 9.55993L13.2066 7.81085C18.1901 6.10753 22.399 4.81606 29.2313 3.64154L27.713 2.39583L28.4825 1.9128C32.6345 3.0619 35.3199 3.89068 35.1753 5.99567C35.0979 6.36684 34.9636 6.77869 34.7519 7.23122C33.5589 9.55993 30.0007 13.4293 28.5754 15.0411C27.6149 16.1241 26.6801 17.1816 26.0036 18.1731C25.3271 19.1646 24.883 20.1103 24.8572 20.9849C24.9759 28.0117 46.0771 17.7155 50.1 15.0207C44.1095 17.5528 37.5819 19.9985 30.45 20.4561H30.4449Z" fill="white"/>
</svg>
