<svg width="26" height="26" viewBox="0 0 26 26" fill="none" xmlns="http://www.w3.org/2000/svg">
<path d="M23.6527 4.87889C23.6175 4.86198 23.5823 4.84677 23.5387 4.82986L11.0777 0.291827C9.74308 -0.230621 8.23241 -0.0446357 7.0336 0.793987L1.37989 4.98541C1.33127 5.02261 1.28432 5.0615 1.24241 5.10376C0.452699 5.86968 0 6.94332 0 8.0474V22.7977C0 24.5628 1.42349 25.9983 3.17392 25.9983H6.72509C6.81228 25.9983 6.90114 25.9899 7.01515 25.9679C7.03863 25.9628 7.06042 25.956 7.12078 25.9374C7.16773 25.9239 7.21468 25.9104 7.25827 25.8935L12.0116 23.9457C13.7788 23.2221 14.9223 21.511 14.9223 19.5852V12.6328H17.8548C17.9353 12.6328 18.0006 12.6987 18.0006 12.7799V24.573C18.0006 25.3592 18.6361 26 19.4157 26H22.8261C24.5765 26 26 24.5645 26 22.7994V8.58675C26 7.0025 25.0795 5.54844 23.6543 4.88058L23.6527 4.87889ZM17.8531 9.77875H8.28439C6.64294 9.77875 5.30831 11.1246 5.30831 12.7799V23.146H3.17392C2.98278 23.146 2.82853 22.9904 2.82853 22.7977V8.0474C2.82853 7.74644 2.94422 7.43534 3.132 7.22737L8.67673 3.11711C9.0808 2.83475 9.6056 2.77726 10.0868 2.96325L22.4975 7.48268C22.9066 7.69064 23.1715 8.12179 23.1715 8.58337V22.796C23.1715 22.9887 23.0172 23.1443 22.8261 23.1443H20.8309V12.7782C20.8309 11.1229 19.4962 9.77705 17.8548 9.77705L17.8531 9.77875ZM8.28439 12.6328H12.0921V19.5852C12.0921 20.3427 11.6427 21.0173 10.9453 21.303L8.13852 22.4528V12.7799C8.13852 12.6987 8.20223 12.6328 8.28271 12.6328H8.28439Z" fill="white"/>
</svg>
