<svg width="39" height="33" viewBox="0 0 39 33" fill="none" xmlns="http://www.w3.org/2000/svg">
<path d="M18.2266 14.533C16.9097 14.533 16.0371 15.5966 16.0371 16.9589C16.0371 18.3212 16.9234 19.3887 18.2266 19.3887C19.5297 19.3887 20.4153 18.3251 20.4153 16.9589C20.4153 15.5927 19.5434 14.533 18.2266 14.533Z" fill="url(#paint0_linear_554_2702)"/>
<path d="M37.7232 4.72242C37.4664 4.55429 31.426 0.760648 30.5382 0.25702C30.3621 0.148317 30.1602 0.0904469 29.9544 0.0888828C29.7624 0.0865367 29.5741 0.138933 29.4095 0.240597C29.3394 0.240597 22.8243 4.48234 21.8046 5.03367C21.0036 5.48256 20.1013 5.70857 19.1891 5.68901C18.3835 5.70309 17.5856 5.53104 16.854 5.18539C15.8107 4.77795 8.99151 0.217136 8.99151 0.217136C8.8208 0.124856 8.6318 0.0755883 8.43899 0.0732422C8.23323 0.0755883 8.03204 0.133459 7.85523 0.241379C7.08399 0.680099 2.21117 3.73159 0.755572 4.6583L0.646593 4.72242C0.233539 5.00083 -0.010331 5.47708 0.000338295 5.98462V19.5638C0.0513985 20.051 0.346329 20.4749 0.778435 20.6821C1.34696 20.9777 16.3937 30.6593 18.4255 31.8652C18.6625 32.0036 18.9315 32.0748 19.2043 32.0732C19.4787 32.0701 19.7469 31.9934 19.9824 31.8496C22.053 30.6671 37.0533 20.9863 37.6218 20.6665C38.0562 20.4616 38.3527 20.0362 38.3999 19.5482V5.9682C38.4052 5.4591 38.1477 4.98519 37.7224 4.72242H37.7232ZM13.8918 20.74H9.1485L9.14164 10.4289H10.8853V19.0399H13.8918V20.7392V20.74ZM21.9258 20.7549H20.2987V19.7406C19.7302 20.4882 18.8545 20.9207 17.9309 20.9089C15.9022 20.9089 14.3627 19.1306 14.3627 16.9589C14.3627 14.7872 15.9022 13.0127 17.9309 13.0127C18.8545 13.001 19.7309 13.4327 20.2987 14.1811V13.1668H21.9258V20.7556V20.7549ZM29.2594 20.7549H23.1916V19.4371L27.0699 14.6824H23.2495V13.166H29.171V14.5025L25.3072 19.2385H29.2586V20.7549H29.2594Z" fill="url(#paint1_linear_554_2702)"/>
<path d="M19.2005 16.108L19.2066 16.1041L19.2005 16.1002V16.108Z" fill="url(#paint2_linear_554_2702)"/>
<path d="M14.3627 16.9589C14.3627 15.7913 14.8086 14.7395 15.5348 14.0153L10.8853 11.3705V19.0399H13.8918V20.7392H9.1485L9.14164 10.4281H9.23081L0.162664 5.27141C0.0529227 5.48803 -0.00499636 5.73281 0.000338295 5.98462V19.5638C0.0513985 20.051 0.346329 20.4749 0.778435 20.6821C1.34696 20.9777 16.3937 30.6593 18.4255 31.8652C18.6617 32.0028 18.9284 32.074 19.1997 32.0724V20.6313C18.8065 20.8166 18.3744 20.9144 17.9301 20.9089C15.9014 20.9089 14.362 19.1306 14.362 16.9589H14.3627Z" fill="url(#paint3_linear_554_2702)"/>
<path d="M16.0371 16.9589C16.0371 18.322 16.9234 19.3887 18.2266 19.3887C18.5863 19.3887 18.914 19.3073 19.2005 19.1611V16.1002L17.0476 14.8755C16.4143 15.2955 16.0371 16.0619 16.0371 16.9589Z" fill="url(#paint4_linear_554_2702)"/>
<path d="M19.2005 16.108V19.1611C19.9512 18.7779 20.4153 17.9482 20.4153 16.9589C20.4153 16.4537 20.2956 15.9907 20.0792 15.6075L19.2066 16.1041L19.1997 16.108H19.2005Z" fill="url(#paint5_linear_554_2702)"/>
<path d="M38.2368 5.28001L24.3721 13.166H29.1717V14.5025L25.3079 19.2385H29.2594L29.2594 20.7549H23.1916V19.4371L27.0699 14.6824H23.2495L23.2495 13.8042L21.925 14.5573V20.7549H20.2979V19.7406C20.003 20.1292 19.6242 20.4311 19.1997 20.6313V32.0724C19.1997 32.0724 19.2028 32.0724 19.2036 32.0724C19.4779 32.0693 19.7462 31.9927 19.9817 31.8488C22.0523 30.6663 37.0525 20.9856 37.6211 20.6657C38.0554 20.4608 38.3519 20.0354 38.3991 19.5474V5.9682C38.4014 5.72421 38.3428 5.48803 38.2353 5.28001H38.2368Z" fill="url(#paint6_linear_554_2702)"/>
<defs>
<linearGradient id="paint0_linear_554_2702" x1="-140.473" y1="17.026" x2="193.208" y2="13.6462" gradientUnits="userSpaceOnUse">
<stop stop-color="white"/>
<stop offset="0.34" stop-color="white"/>
<stop offset="0.57" stop-color="#EDEDED"/>
<stop offset="0.78" stop-color="#E4E4E4"/>
<stop offset="0.93" stop-color="#DEDEDE"/>
<stop offset="1" stop-color="#DBDBDB"/>
</linearGradient>
<linearGradient id="paint1_linear_554_2702" x1="0.0123087" y1="16.1819" x2="38.0633" y2="15.8924" gradientUnits="userSpaceOnUse">
<stop stop-color="white"/>
<stop offset="0.34" stop-color="white"/>
<stop offset="0.57" stop-color="#EDEDED"/>
<stop offset="0.78" stop-color="#E4E4E4"/>
<stop offset="0.93" stop-color="#DEDEDE"/>
<stop offset="1" stop-color="#DBDBDB"/>
</linearGradient>
<linearGradient id="paint2_linear_554_2702" x1="-120856" y1="637.545" x2="118787" y2="-2169.52" gradientUnits="userSpaceOnUse">
<stop stop-color="white"/>
<stop offset="0.34" stop-color="white"/>
<stop offset="0.57" stop-color="#EDEDED"/>
<stop offset="0.78" stop-color="#E4E4E4"/>
<stop offset="0.93" stop-color="#DEDEDE"/>
<stop offset="1" stop-color="#DBDBDB"/>
</linearGradient>
<linearGradient id="paint3_linear_554_2702" x1="0.000676599" y1="16.0737" x2="38.4015" y2="16.0737" gradientUnits="userSpaceOnUse">
<stop stop-color="#F6F6F6"/>
<stop offset="1" stop-color="white"/>
</linearGradient>
<linearGradient id="paint4_linear_554_2702" x1="-194.664" y1="16.076" x2="38.4" y2="16.076" gradientUnits="userSpaceOnUse">
<stop stop-color="#F6F6F6"/>
<stop offset="1" stop-color="white"/>
</linearGradient>
<linearGradient id="paint5_linear_554_2702" x1="0.0240752" y1="16.0732" x2="606.576" y2="16.0732" gradientUnits="userSpaceOnUse">
<stop stop-color="#C7C7C7"/>
<stop offset="1" stop-color="#C7C7C7" stop-opacity="0"/>
</linearGradient>
<linearGradient id="paint6_linear_554_2702" x1="0.00033736" y1="18.6762" x2="38.4007" y2="18.6762" gradientUnits="userSpaceOnUse">
<stop stop-color="#C7C7C7"/>
<stop offset="1" stop-color="#C7C7C7" stop-opacity="0"/>
</linearGradient>
</defs>
</svg>
