<svg width="50" height="20" viewBox="0 0 50 20" fill="none" xmlns="http://www.w3.org/2000/svg">
<path d="M31.6759 10.0221V19.7952H27.4875V12.2852H26.4414V13.7801L24.4652 12.2172L21.8944 14.3783V19.7943H17.706V6.59896H21.8944V9.58698C21.8944 9.58698 23.2596 6.59896 26.879 6.59896C30.4984 6.59896 31.6741 10.0229 31.6741 10.0229L31.6759 10.0221Z" fill="white"/>
<path d="M9.13531 0C10.0594 0 10.9029 0.0841336 11.664 0.252401C12.425 0.420668 13.0774 0.696014 13.6219 1.07844C14.1655 1.46171 14.5872 1.96992 14.8862 2.60474C15.1852 3.23957 15.3351 4.02397 15.3351 4.95793C15.3351 5.96669 15.1133 6.80632 14.6687 7.47854C14.2242 8.15076 13.5675 8.70145 12.6977 9.13147C13.8937 9.4867 14.7871 10.1071 15.3763 10.9943C15.9655 11.8815 16.2601 12.9506 16.2601 14.2016C16.2601 15.2103 16.0699 16.0831 15.6893 16.8208C15.3088 17.5584 14.7968 18.161 14.1532 18.6275C13.5096 19.0941 12.7758 19.44 11.9507 19.6635C11.1256 19.8878 10.2786 20 9.40887 20H0V0H9.13531ZM8.5084 7.76919C9.15372 7.76919 9.6833 7.61367 10.098 7.30093C10.5127 6.98904 10.7197 6.48169 10.7197 5.77972C10.7197 5.38965 10.6504 5.07011 10.5127 4.82026C10.3742 4.57041 10.1901 4.3758 9.96037 4.23472C9.73065 4.09365 9.46498 3.99677 9.16599 3.94238C8.86701 3.88799 8.55575 3.8608 8.23309 3.8608H4.84691V7.77004H8.50928L8.5084 7.76919ZM8.74163 16.0721C9.09673 16.0721 9.43692 16.0372 9.76221 15.9675C10.0866 15.8979 10.3725 15.7823 10.6206 15.6208C10.8678 15.4585 11.0651 15.2392 11.2116 14.9613C11.358 14.6834 11.4316 14.3291 11.4316 13.8973C11.4316 13.0492 11.1914 12.4433 10.7127 12.0812C10.2331 11.7192 9.60001 11.5374 8.81089 11.5374H4.84604V16.0721H8.74163Z" fill="white"/>
<path d="M42.8752 0C43.7993 0 44.6428 0.0841336 45.4039 0.252401C46.1649 0.420668 46.8172 0.696014 47.3617 1.07844C47.9053 1.46171 48.3271 1.96992 48.6261 2.60474C48.9251 3.23957 49.075 4.02397 49.075 4.95793C49.075 5.96669 48.8532 6.80632 48.4086 7.47854C47.9641 8.15076 47.3074 8.70145 46.4376 9.13147C47.6335 9.4867 48.527 10.1071 49.1162 10.9943C49.7054 11.8815 50 12.9506 50 14.2016C50 15.2103 49.8097 16.0831 49.4292 16.8208C49.0487 17.5584 48.5366 18.161 47.8931 18.6275C47.2495 19.0941 46.5156 19.44 45.6906 19.6635C44.8655 19.8878 44.0185 20 43.1487 20H33.7416V0H42.8769H42.8752ZM42.2474 7.76919C42.8927 7.76919 43.4223 7.61367 43.837 7.30093C44.2517 6.98904 44.4587 6.48169 44.4587 5.77972C44.4587 5.38965 44.3894 5.07011 44.2517 4.82026C44.1132 4.57041 43.9291 4.3758 43.6994 4.23472C43.4696 4.09365 43.204 3.99677 42.905 3.94238C42.606 3.88799 42.2947 3.8608 41.9721 3.8608H38.5859V7.77004H42.2483L42.2474 7.76919ZM42.4806 16.0721C42.8357 16.0721 43.1759 16.0372 43.5012 15.9675C43.8256 15.8979 44.1115 15.7823 44.3596 15.6208C44.6068 15.4585 44.8041 15.2392 44.9505 14.9613C45.097 14.6834 45.1706 14.3291 45.1706 13.8973C45.1706 13.0492 44.9304 12.4433 44.4517 12.0812C43.972 11.7192 43.339 11.5374 42.5499 11.5374H38.585V16.0721H42.4806Z" fill="white"/>
</svg>
