<svg width="234" height="60" viewBox="0 0 234 60" fill="none" xmlns="http://www.w3.org/2000/svg">
<path d="M36.2897 0C36.5993 0.057 36.9053 0.121 37.2185 0.1708C41.0194 0.7724 44.3896 2.3101 47.2794 4.8622C48.6424 6.0653 49.7635 7.4677 50.5642 9.1086C50.6141 9.2119 50.7173 9.308 50.8169 9.3578C52.7422 10.3046 54.3295 11.6643 55.6712 13.3195C56.778 14.6863 57.6713 16.1884 58.3724 17.8009C59.0699 19.4026 59.5681 21.0613 59.8137 22.7912C60.0842 24.7062 60.0771 26.6176 59.6607 28.5148C59.5859 28.8459 59.4863 29.1733 59.376 29.4972C59.2799 29.7784 59.255 30.0418 59.3582 30.3337C60.0379 32.2309 60.0735 34.1957 59.9347 36.1712C59.7852 38.2998 59.2051 40.3287 58.3332 42.2686C57.0058 45.2194 55.1409 47.7608 52.4504 49.626C51.9664 49.9606 51.4326 50.2204 50.9272 50.5301C50.8027 50.6049 50.671 50.7116 50.6069 50.8362C49.5464 52.9861 47.9805 54.7053 46.0694 56.1149C43.0444 58.3431 39.6599 59.6387 35.9017 59.9413C33.9657 60.0979 32.0724 59.9057 30.2254 59.2935C30.1115 59.2543 29.9585 59.2615 29.8446 59.3006C27.9477 59.9484 25.9939 60.1015 24.0116 59.9413C20.894 59.6921 18.0185 58.6991 15.36 57.0653C13.0539 55.6486 11.1001 53.8653 9.7797 51.4698C9.4737 50.9145 9.0964 50.555 8.5484 50.256C6.4664 49.1099 4.84 47.4583 3.4912 45.5148C2.4698 44.0412 1.6691 42.4572 1.0783 40.7736C0.5196 39.179 0.1388 37.5345 0.0497999 35.8366C0.0462999 35.7797 0.0178 35.7227 0 35.6693C0 35.0037 0 34.3381 0 33.6725C0.0178 33.6369 0.0462999 33.6049 0.0497999 33.5693C0.0960999 32.4267 0.3452 31.3197 0.6869 30.2341C0.7296 30.0988 0.7189 29.9315 0.6833 29.7927C0.5445 29.2018 0.3701 28.6181 0.242 28.0236C0.1352 27.5217 0.0783 27.0127 0 26.5073C0 25.7171 0 24.9269 0 24.1367C0.0142 24.1118 0.0426999 24.0904 0.0462999 24.0619C0.1744 23.2148 0.2349 22.3498 0.4449 21.524C0.7367 20.3637 1.0712 19.2033 1.5125 18.0963C2.2243 16.3094 3.2172 14.6721 4.4557 13.1949C5.7476 11.6537 7.2423 10.3651 9.0502 9.4539C9.2032 9.3792 9.3349 9.2261 9.4274 9.0766C9.7335 8.5854 9.9826 8.0586 10.31 7.5816C11.4382 5.9301 12.8653 4.5739 14.5166 3.4456C16.9046 1.8118 19.5203 0.7475 22.3674 0.2456C22.8301 0.1637 23.2927 0.0854001 23.7518 0.00360012C24.7696 0.00360012 25.7875 0.00360012 26.8053 0.00360012C26.8587 0.0249001 26.9085 0.0570002 26.9619 0.0676003C27.6523 0.1993 28.3676 0.2598 29.0296 0.4734C29.6809 0.6834 30.2716 0.7368 30.9051 0.4627C31.1934 0.3381 31.5279 0.3061 31.8411 0.242C32.2397 0.1602 32.6383 0.0854001 33.0369 0.00710011C34.1259 -9.89484e-06 35.2078 0 36.2897 0ZM9.9328 50.9323C9.9185 50.9217 9.9079 50.9074 9.8936 50.8967C9.8901 50.8967 9.8794 50.9074 9.8723 50.9145C9.8865 50.9252 9.9007 50.9359 9.9185 50.9465C10.3954 51.4342 10.8438 51.9503 11.3492 52.406C12.9791 53.8725 14.8298 55.0186 16.7836 55.9867C19.8228 57.4924 23.0009 58.5745 26.3854 58.9589C27.3961 59.0728 28.4175 59.0621 29.4353 59.1084C25.727 57.0546 23.3141 53.8974 21.4279 50.2667C21.3923 50.2703 21.3709 50.2667 21.3531 50.2703C21.2748 50.2952 21.1965 50.3237 21.1182 50.3486C18.4776 51.2384 15.7729 51.7118 12.9863 51.4769C11.9578 51.3915 10.947 51.121 9.9328 50.9323ZM15.8334 19.3741C15.8369 19.4133 15.844 19.4525 15.8476 19.4916C15.7515 19.5379 15.6554 19.5841 15.5558 19.6268C14.1571 20.1999 12.7478 20.7552 11.3599 21.3496C10.4951 21.7234 10.4915 21.759 10.8652 22.6204C11.488 24.0548 12.1321 25.475 12.7621 26.906C12.7941 26.9807 12.7834 27.0733 12.7941 27.1551C12.7122 27.1124 12.5948 27.091 12.5521 27.0234C12.0788 26.2225 11.5876 25.4323 11.1535 24.6101C10.7264 23.7985 10.3598 22.955 9.9577 22.1114C9.9221 22.1292 9.8723 22.1434 9.8296 22.1683C8.3348 23.0475 6.986 24.0975 5.833 25.4003C4.6372 26.7529 3.7297 28.2977 2.8471 29.8568C2.8079 29.9244 2.8151 30.0561 2.8542 30.1273C3.0535 30.4903 3.2741 30.8391 3.4877 31.1951C4.6692 33.1955 6.0785 35.0002 7.9825 36.3741C8.5733 36.8013 9.1961 37.1857 9.8011 37.5879C10.2246 36.6624 10.6018 35.7904 11.0182 34.9397C11.431 34.0961 11.8617 33.256 12.4311 32.5085C12.4809 32.5335 12.5307 32.5584 12.5806 32.5833C11.7869 34.3132 10.9755 36.036 10.4452 37.8976C12.1748 38.8266 14.0112 39.4637 15.8583 40.0866C15.8369 40.1472 15.8191 40.2041 15.7978 40.2646C13.8938 39.9158 12.061 39.3142 10.2068 38.5312C10.0467 39.4602 9.8687 40.3394 9.7477 41.2292C9.5662 42.5747 9.584 43.9273 9.8331 45.2585C10.0644 46.4865 10.3812 47.7003 10.6445 48.9212C10.6979 49.1633 10.8047 49.2985 11.0574 49.3341C11.2602 49.3626 11.4595 49.4338 11.6588 49.4872C13.9187 50.0709 16.1999 50.4767 18.5452 50.135C19.3993 50.0104 20.2463 49.8253 21.0969 49.6687C21.0827 49.5584 21.0862 49.5263 21.0755 49.4979C20.6734 48.4229 20.2535 47.355 19.8762 46.2694C19.6734 45.6857 19.5417 45.077 19.3887 44.4755C19.3637 44.3758 19.3851 44.2655 19.3851 44.1622C19.4314 44.1551 19.4776 44.148 19.5239 44.1409C20.1645 45.9455 20.8371 47.7359 21.7695 49.4124C21.8371 49.3946 21.8798 49.3875 21.919 49.3733C23.6415 48.8216 25.2821 48.0705 26.8907 47.2518C26.969 47.2127 27.0758 47.2162 27.1683 47.202C27.1185 47.2874 27.09 47.412 27.0153 47.4547C26.0117 48.0349 25.0116 48.6222 23.9867 49.1704C23.3888 49.4907 22.7482 49.7363 22.1076 50.0246C22.9475 51.4983 23.9582 52.8117 25.1896 53.9543C26.5775 55.2428 28.1933 56.1932 29.8303 57.1151C29.9264 57.1685 30.1115 57.1542 30.2147 57.0973C30.6346 56.8695 31.0368 56.6097 31.4425 56.3641C33.3892 55.1894 35.1295 53.787 36.4569 51.9183C36.8555 51.3559 37.2221 50.7686 37.6242 50.1599C37.4605 50.0958 37.3573 50.0531 37.2541 50.0104C35.6846 49.4017 34.1899 48.64 32.7593 47.7502C32.6667 47.6932 32.5991 47.5971 32.5208 47.5188C32.5457 47.4867 32.5706 47.4583 32.5956 47.4262C32.6774 47.4547 32.7628 47.4796 32.8411 47.5152C33.1045 47.6362 33.3607 47.7786 33.6276 47.8854C34.9729 48.4229 36.3252 48.9497 37.6705 49.4836C37.8306 49.5477 37.9338 49.5334 38.0121 49.359C38.2862 48.7468 38.6029 48.1488 38.8485 47.5223C39.2613 46.4652 39.6279 45.3867 40.0229 44.3224C40.0442 44.2583 40.1261 44.2192 40.1795 44.1658C40.2044 44.237 40.2613 44.3153 40.2471 44.3758C40.0122 45.3084 39.7951 46.2481 39.514 47.1664C39.2471 48.0313 38.9054 48.8785 38.5887 49.7541C38.9339 49.836 39.2826 49.925 39.635 49.9998C41.3824 50.3699 43.1511 50.5087 44.9163 50.2062C46.3043 49.9677 47.6709 49.6224 49.041 49.3021C49.1514 49.2772 49.2795 49.1134 49.3115 48.9924C49.493 48.3019 49.6852 47.6113 49.8026 46.9101C49.9806 45.853 50.1514 44.7887 50.2297 43.7173C50.3222 42.4822 50.1585 41.2541 49.9058 40.0404C49.8275 39.6559 49.7137 39.2751 49.6282 38.9334C48.3827 39.3676 47.1975 39.7983 45.9982 40.197C45.4679 40.3714 44.9163 40.4853 44.3718 40.617C44.3149 40.6312 44.2366 40.5743 44.1725 40.5529C44.2152 40.5031 44.2508 40.439 44.3042 40.4105C44.4145 40.3572 44.5391 40.3287 44.653 40.2788C46.1406 39.6524 47.6282 39.0224 49.1193 38.3995C49.372 38.2927 49.4254 38.1503 49.3257 37.8976C49.1015 37.3423 48.9272 36.7657 48.6852 36.2175C48.2189 35.1604 47.7136 34.1139 47.2331 33.0638C47.2011 32.9926 47.2225 32.9001 47.2189 32.8182C47.2901 32.8574 47.3968 32.8787 47.4324 32.9392C48.0908 34.1139 48.7492 35.2849 49.3827 36.4702C49.6247 36.9223 49.8062 37.4064 50.0197 37.894C51.5038 37.0469 52.8277 36.0217 53.9736 34.7795C55.0982 33.5621 55.9666 32.1633 56.7887 30.7324C57.23 29.9671 57.2264 29.9671 56.7602 29.2125C56.7175 29.1413 56.6712 29.0737 56.6285 29.0025C55.6605 27.3758 54.5857 25.831 53.1693 24.5532C52.2476 23.7238 51.2404 23.0226 50.1478 22.4068C50.0126 22.7343 49.9058 23.0582 49.7528 23.3607C49.0873 24.6671 48.4076 25.9698 47.7278 27.269C47.6887 27.3438 47.5819 27.3829 47.5072 27.4399C47.5072 27.3402 47.4787 27.2263 47.5143 27.1409C47.8524 26.3863 48.2261 25.6459 48.5392 24.8806C48.9165 23.9658 49.2439 23.0297 49.5998 22.0864C49.0731 21.8373 48.6175 21.5881 48.1335 21.403C46.8879 20.919 45.6316 20.4633 44.3825 19.9899C44.3006 19.9579 44.2437 19.8725 44.1725 19.8119C44.2615 19.7942 44.3611 19.7443 44.4394 19.7657C45.6103 20.086 46.7812 20.3957 47.9413 20.7481C48.5428 20.9296 49.1229 21.1859 49.7884 21.4351C49.9272 20.652 50.0695 19.8903 50.1941 19.1285C50.4468 17.5909 50.4112 16.0496 50.13 14.5226C49.9308 13.4476 49.6211 12.3905 49.4183 11.3155C49.3293 10.835 49.0802 10.6891 48.646 10.5716C45.9733 9.8668 43.2899 9.4361 40.5318 9.9914C39.9802 10.1018 39.4357 10.237 38.8841 10.358C38.9054 10.4506 38.909 10.4826 38.9197 10.5075C39.6706 12.1271 40.2222 13.8143 40.6101 15.5548C40.6279 15.6332 40.5745 15.7293 40.5567 15.8182C40.5033 15.7542 40.4286 15.7008 40.4001 15.626C40.0763 14.786 39.7809 13.9353 39.4357 13.1095C39.0762 12.2552 38.667 11.4187 38.2684 10.5538C37.9161 10.6712 37.6029 10.7531 37.311 10.8813C35.9444 11.4793 34.585 12.0915 33.2184 12.6859C33.0974 12.7393 32.9479 12.7286 32.8091 12.75C32.8945 12.661 32.9657 12.5435 33.0689 12.4866C34.2931 11.8103 35.5174 11.1376 36.7523 10.4791C37.1189 10.2833 37.5175 10.1409 37.9089 9.9736C37.1865 8.7135 36.3537 7.5817 35.3679 6.5672C34.0689 5.2289 32.5279 4.2215 30.9265 3.2961C30.6204 3.1217 30.3143 2.8155 30.0083 2.8155C29.7022 2.8155 29.3997 3.1288 29.0972 3.3067C27.1932 4.428 25.396 5.6916 24.0294 7.4606C23.4493 8.2117 22.9333 9.009 22.3638 9.817C22.556 9.8953 22.6699 9.9416 22.7838 9.9843C24.3604 10.6107 25.8658 11.3689 27.3035 12.2695C27.3783 12.3157 27.4174 12.4118 27.4744 12.4866C27.4495 12.515 27.4245 12.5435 27.3996 12.572C25.6843 11.7498 23.9475 10.9738 22.0471 10.4079C21.5987 11.4757 21.1325 12.5364 20.7054 13.6078C20.4456 14.2592 20.2428 14.9355 20.0079 15.5976C19.9759 15.683 19.9047 15.7542 19.8513 15.836C19.8122 15.8182 19.7766 15.8004 19.7374 15.7826C20.0933 13.8783 20.6841 12.0416 21.4528 10.2406C21.2108 10.18 20.9901 10.1231 20.7695 10.0697C19.0292 9.6568 17.264 9.4788 15.4917 9.7316C14.1536 9.9238 12.8368 10.2797 11.5022 10.5253C10.9542 10.625 10.6944 10.8564 10.5556 11.4365C10.1107 13.3266 9.7086 15.2131 9.7655 17.1708C9.8046 18.5021 10.0289 19.7977 10.3883 21.0934C10.4666 21.0685 10.5271 21.0542 10.584 21.0293C12.1784 20.3138 13.8297 19.7692 15.5308 19.3813C15.6234 19.3564 15.7301 19.3741 15.8334 19.3741ZM21.7446 9.5821C22.6094 7.8095 23.6308 6.1614 24.912 4.6771C26.1967 3.1857 27.6345 1.883 29.446 0.9611C23.6771 0.388 13.9507 4.2073 9.8723 9.041C13.8867 7.8308 17.8121 8.3398 21.7446 9.5821ZM9.7335 21.3995C8.4808 17.6193 7.9398 13.8214 9.0608 9.8704C8.9149 9.9914 8.8153 10.0626 8.7228 10.148C6.4309 12.3086 4.8151 14.9355 3.5339 17.7724C3.0001 18.9577 2.5268 20.1786 2.1389 21.4173C1.7474 22.6666 1.4627 23.9516 1.1993 25.2366C1.0321 26.0552 0.9644 26.8953 0.9004 27.7282C0.8612 28.2799 0.9111 28.8423 0.9253 29.4759C2.9467 25.6993 6.0928 23.2967 9.7335 21.3995ZM30.5777 59.0265C37.0263 59.5427 46.6068 55.2855 50.1478 50.8967C49.9699 50.9572 49.8062 51.0142 49.6389 51.064C47.8666 51.5837 46.0516 51.6905 44.2188 51.5766C42.2721 51.4591 40.3788 51.0676 38.5282 50.4589C38.3075 50.3841 38.2186 50.4518 38.1296 50.6404C37.521 51.904 36.795 53.0929 35.9587 54.2177C34.8056 55.7625 33.4817 57.14 31.8838 58.2328C31.4781 58.5069 31.0475 58.7418 30.5777 59.0265ZM50.3898 21.7198C52.1586 22.5705 53.817 23.6063 55.3082 24.8877C56.7993 26.1691 58.1019 27.6143 59.0307 29.4403C59.0485 29.2837 59.0663 29.184 59.0699 29.0879C59.1589 27.6819 59.0058 26.2937 58.7567 24.9162C58.3154 22.4638 57.536 20.1181 56.5075 17.8471C55.4327 15.4765 54.1266 13.2519 52.4077 11.287C51.9629 10.7816 51.4682 10.3189 50.9948 9.8383C51.5571 11.821 51.7102 13.8 51.5749 15.8218C51.4468 17.84 51.0233 19.7906 50.3898 21.7198ZM30.5136 0.9397C32.4283 1.8616 33.923 3.1928 35.2612 4.7127C36.5957 6.2255 37.6812 7.9091 38.5709 9.7138C42.3682 8.4679 46.1833 7.9055 50.098 9.041C46.5747 4.6771 36.9516 0.388 30.5136 0.9397ZM8.9505 50.1208C8.9861 50.0923 9.0217 50.0603 9.0573 50.0318C9.0003 49.8574 8.9399 49.683 8.89 49.5085C8.4665 47.9495 8.3526 46.3691 8.4025 44.7566C8.4701 42.5818 8.8793 40.4853 9.5662 38.4315C9.6196 38.2749 9.5733 38.2144 9.4381 38.1503C8.1284 37.5381 6.9006 36.787 5.7476 35.9185C4.1888 34.7474 2.7973 33.4126 1.7047 31.7824C1.4627 31.4229 1.2456 31.042 1.0178 30.6719C0.9929 30.679 0.9644 30.6825 0.9395 30.6897C0.9395 31.3161 0.9075 31.9426 0.9467 32.5655C1.0427 34.1495 1.3239 35.7014 1.7367 37.2355C2.2136 39.0081 2.8329 40.7238 3.6051 42.3825C4.6585 44.6534 5.9326 46.7927 7.591 48.6792C8.0288 49.1775 8.4986 49.6438 8.9505 50.1208ZM59.077 30.5046C57.0591 34.2634 53.9202 36.6731 50.276 38.5667C51.5287 42.3362 52.0589 46.1484 50.9343 50.1457C53.9736 47.355 55.874 43.9344 57.3011 40.2219C58.4898 37.1252 59.2372 33.9359 59.077 30.5046Z" fill="white"/>
<path d="M14.0041 45.9953C14.3529 45.376 14.6483 44.7139 15.0646 44.1444C16.4811 42.2081 18.3673 40.8128 20.4421 39.6595C23.1895 38.136 26.1327 37.1892 29.2396 36.7372C30.2503 36.5912 31.2254 36.7479 32.2005 36.9258C35.1757 37.4704 37.9766 38.492 40.571 40.0546C42.3682 41.1367 44.0124 42.4145 45.258 44.1266C45.6494 44.6677 45.9484 45.2763 46.29 45.8565C46.3114 45.8957 46.3114 45.9491 46.3256 46.0167C46.0231 45.6857 45.7598 45.3546 45.4501 45.0734C44.4964 44.2049 43.3611 43.6212 42.1938 43.0979C39.3859 41.8414 36.4391 41.0513 33.4319 40.4711C32.4568 40.2824 31.4745 40.0795 30.4852 40.0012C29.8374 39.9478 29.1648 40.0724 28.5136 40.1792C26.1184 40.5672 23.7482 41.094 21.435 41.8414C19.4385 42.4893 17.4882 43.2367 15.723 44.4007C15.0611 44.8385 14.4739 45.3546 14.0361 46.0238C14.029 46.0167 14.0148 46.006 14.0041 45.9953Z" fill="white"/>
<path d="M43.6458 39.7592C43.4038 39.4531 43.2009 39.1541 42.9589 38.8978C42.0336 37.9189 40.8913 37.2462 39.699 36.6553C36.9338 35.2956 34.0013 34.4769 30.9834 33.9039C30.0617 33.7294 29.2147 33.9394 28.3498 34.1139C25.5739 34.6691 22.887 35.4949 20.3602 36.7906C19.2036 37.385 18.0968 38.0542 17.232 39.0544C17.0184 39.3 16.8476 39.5776 16.6554 39.841C16.627 39.8268 16.5985 39.8126 16.57 39.7983C16.8441 39.2466 17.0861 38.6735 17.4028 38.1467C18.8833 35.6978 21.0186 33.9644 23.4956 32.6118C25.4636 31.5368 27.5527 30.8178 29.777 30.5402C30.2788 30.4797 30.8126 30.558 31.3144 30.6505C34.407 31.2271 37.19 32.505 39.6492 34.4662C41.3326 35.8082 42.7241 37.3921 43.5675 39.4032C43.596 39.4709 43.6245 39.5349 43.6458 39.6061C43.6565 39.6453 43.6458 39.688 43.6458 39.7592Z" fill="white"/>
<path d="M40.9838 33.5835C40.4428 32.4053 39.4926 31.6044 38.4606 30.8961C36.3502 29.4438 33.9942 28.554 31.5279 27.9204C31.3784 27.8813 31.2218 27.8635 31.0759 27.8065C30.1044 27.4434 29.1969 27.8136 28.2858 28.0557C26.0473 28.6537 23.9191 29.515 21.9831 30.8036C21.0898 31.398 20.2712 32.0814 19.6662 32.9855C19.5025 33.2311 19.3815 33.5052 19.1894 33.7543C19.2641 33.5087 19.3246 33.2596 19.4136 33.0176C19.9937 31.4443 20.8763 30.0525 22.0115 28.8209C23.6166 27.0732 25.5063 25.7349 27.7448 24.934C28.4815 24.6706 29.2538 24.4535 30.0296 24.3574C30.5101 24.2969 31.0368 24.4499 31.5208 24.5887C35.4177 25.7384 38.3467 28.1091 40.3076 31.6614C40.6279 32.2416 40.7987 32.9072 41.0372 33.5337C41.0229 33.5515 41.0051 33.5693 40.9838 33.5835Z" fill="white"/>
<path d="M21.8941 27.4968C22.1859 25.9627 22.7553 24.5531 23.5739 23.2504C24.5312 21.7234 25.7127 20.4028 27.2217 19.3955C28.0723 18.826 28.9798 18.3454 30.0012 18.2173C30.414 18.1639 30.8766 18.3205 31.2859 18.47C33.1436 19.1463 34.5778 20.3957 35.8021 21.9085C36.9089 23.2753 37.7061 24.8094 38.2328 26.4859C38.3467 26.849 38.4214 27.2263 38.4748 27.6143C38.1403 26.5429 37.4783 25.6886 36.6882 24.9376C35.343 23.6562 33.7629 22.7378 32.0368 22.0686C31.8553 21.9975 31.6631 21.9441 31.4852 21.8586C30.6133 21.4422 29.7627 21.4813 28.8623 21.8373C27.0615 22.5385 25.3569 23.3892 23.9155 24.6955C23.0792 25.4537 22.3425 26.2902 21.9653 27.3829C21.9475 27.4221 21.919 27.4577 21.8941 27.4968Z" fill="white"/>
<path d="M35.7736 21.104C35.6135 20.7196 35.4711 20.3245 35.2932 19.9472C34.5778 18.4344 33.4675 17.2598 32.1044 16.3308C31.5599 15.9606 30.9514 15.6865 30.3606 15.3911C30.2503 15.3377 30.0723 15.3413 29.9549 15.3875C28.1933 16.1137 26.7804 17.2776 25.6771 18.826C25.1504 19.5663 24.7518 20.3672 24.5561 21.2607C24.5525 21.282 24.5205 21.2998 24.4422 21.3034C24.5241 20.9012 24.5988 20.4954 24.6878 20.0932C25.2358 17.6656 26.1718 15.4231 27.8409 13.5366C28.3605 12.9493 28.9691 12.4759 29.6915 12.1484C30.0047 12.0061 30.2859 11.9989 30.6062 12.1413C31.5528 12.5613 32.2753 13.2448 32.9052 14.0421C33.8625 15.2452 34.5565 16.5942 35.0369 18.05C35.3145 18.89 35.5174 19.7586 35.7452 20.6164C35.7879 20.773 35.7879 20.9403 35.8057 21.1005C35.8021 21.1005 35.7879 21.1005 35.7736 21.104Z" fill="white"/>
<path d="M41.0407 33.5337C41.087 33.6618 41.1368 33.7935 41.1831 33.9217C41.1582 33.9288 41.1333 33.9395 41.1083 33.9466C41.0656 33.8256 41.0265 33.7045 40.9838 33.5799C41.0051 33.5693 41.0229 33.5515 41.0407 33.5337Z" fill="white"/>
<path d="M43.7668 40.0973C43.717 40.0048 43.6707 39.9158 43.6209 39.8232C43.6458 39.8126 43.6743 39.8019 43.6992 39.7912C43.7277 39.8873 43.7561 39.9834 43.7846 40.0795L43.7668 40.0973Z" fill="white"/>
<path d="M43.7846 40.0795C43.7988 40.1187 43.8131 40.1578 43.8273 40.2005C43.8131 40.2041 43.7988 40.2041 43.7846 40.2077C43.7775 40.1721 43.7704 40.1329 43.7633 40.0973C43.7668 40.0973 43.7846 40.0795 43.7846 40.0795Z" fill="white"/>
<path d="M14.0432 46.0274C14.0361 46.063 14.0255 46.0985 14.0183 46.1341C14.0041 46.1306 13.9934 46.1306 13.9792 46.1271C13.9863 46.0808 13.997 46.0381 14.0041 45.9918C14.0148 46.006 14.029 46.0167 14.0432 46.0274Z" fill="white"/>
<path d="M74.6754 32.6508C74.7608 33.351 75.0665 33.9171 75.5927 34.3492C76.1332 34.7663 76.8443 34.9749 77.7261 34.9749C78.622 34.9749 79.3189 34.7961 79.8167 34.4385C80.3287 34.0661 80.5847 33.5596 80.5847 32.919C80.5847 32.6359 80.5349 32.3976 80.4354 32.2039C80.35 31.9953 80.2007 31.8166 79.9874 31.6676C79.774 31.5037 79.4896 31.3622 79.134 31.243C78.7927 31.1089 78.3661 30.9898 77.8541 30.8855L76.3181 30.5503C74.839 30.2076 73.7296 29.6937 72.9901 29.0084C72.2506 28.3082 71.8808 27.3771 71.8808 26.2151C71.8808 25.5 72.023 24.852 72.3074 24.2709C72.6061 23.6899 73.0114 23.1983 73.5234 22.7961C74.0354 22.379 74.6399 22.0587 75.3367 21.8352C76.0336 21.6117 76.7874 21.5 77.5981 21.5C78.5225 21.5 79.3403 21.6266 80.0514 21.8799C80.7625 22.1182 81.3598 22.4609 81.8434 22.9078C82.3411 23.3399 82.718 23.8538 82.974 24.4497C83.23 25.0456 83.3651 25.6937 83.3793 26.3939H80.4354C80.3785 25.6937 80.1083 25.1201 79.6247 24.6732C79.1412 24.2114 78.4727 23.9804 77.6194 23.9804C76.8087 23.9804 76.1616 24.1667 75.6781 24.5391C75.2087 24.8966 74.9741 25.3734 74.9741 25.9693C74.9741 26.5056 75.1803 26.9302 75.5927 27.243C76.0052 27.5559 76.6807 27.8091 77.6194 28.0028L79.1127 28.338C80.7056 28.6508 81.8718 29.1499 82.6113 29.8352C83.3509 30.5056 83.7207 31.4367 83.7207 32.6285C83.7207 33.3883 83.5784 34.0661 83.294 34.662C83.0238 35.2579 82.6256 35.7719 82.0994 36.2039C81.5731 36.621 80.9402 36.9413 80.2007 37.1648C79.4612 37.3883 78.622 37.5 77.6834 37.5C76.8016 37.5 75.9981 37.3883 75.2727 37.1648C74.5474 36.9413 73.9216 36.621 73.3954 36.2039C72.8834 35.7719 72.4781 35.2579 72.1794 34.662C71.895 34.0661 71.7457 33.3957 71.7314 32.6508H74.6754Z" fill="white"/>
<path d="M89.5471 21.6788H93.43L98.656 37.3212H95.414L94.326 33.8575H88.6298L87.5845 37.3212H84.2992L89.5471 21.6788ZM93.707 31.5335L91.51 24.5391H91.424L89.2911 31.5335H93.707Z" fill="white"/>
<path d="M99.594 21.6788H102.666V27.9358L108.596 21.6788H112.202L105.78 28.4721C106.278 28.5466 106.769 28.7253 107.252 29.0084C107.736 29.2914 108.12 29.6862 108.404 30.1927L112.5 37.3212H109.13L105.93 31.7346C105.716 31.3771 105.453 31.0791 105.14 30.8408C104.842 30.5875 104.479 30.4162 104.052 30.3268L102.666 31.757V37.3212H99.594V21.6788Z" fill="white"/>
<path d="M117.306 21.6788H120.463L122.916 33.0531H122.98L125.903 21.6788H128.314L131.236 33.0531H131.3L133.732 21.6788H136.932L133.071 37.3212H130.084L127.14 26.2598H127.076L124.154 37.3212H121.124L117.306 21.6788Z" fill="white"/>
<path d="M142.256 37.5C141.416 37.5 140.656 37.3734 139.973 37.1201C139.29 36.852 138.707 36.4646 138.224 35.9581C137.74 35.4516 137.363 34.8333 137.093 34.1034C136.837 33.3734 136.709 32.5317 136.709 31.5782C136.709 30.6248 136.837 29.7831 137.093 29.0531C137.363 28.3082 137.74 27.6899 138.224 27.1983C138.707 26.6918 139.29 26.3119 139.973 26.0587C140.656 25.7905 141.416 25.6564 142.256 25.6564C143.109 25.6564 143.877 25.7905 144.559 26.0587C145.242 26.3119 145.825 26.6918 146.309 27.1983C146.807 27.6899 147.183 28.3082 147.439 29.0531C147.71 29.7831 147.845 30.6248 147.845 31.5782C147.845 32.5317 147.71 33.3734 147.439 34.1034C147.183 34.8333 146.814 35.4516 146.33 35.9581C145.847 36.4646 145.256 36.852 144.559 37.1201C143.877 37.3734 143.109 37.5 142.256 37.5ZM142.256 35.1313C142.625 35.1313 142.974 35.0568 143.301 34.9078C143.628 34.7588 143.912 34.5354 144.154 34.2374C144.396 33.9246 144.588 33.5521 144.73 33.1201C144.872 32.6732 144.943 32.1592 144.943 31.5782C144.943 30.9972 144.872 30.4832 144.73 30.0363C144.588 29.5894 144.396 29.2169 144.154 28.919C143.912 28.6061 143.628 28.3752 143.301 28.2263C142.974 28.0773 142.625 28.0028 142.256 28.0028C141.53 28.0028 140.912 28.3082 140.4 28.919C139.888 29.5149 139.632 30.4013 139.632 31.5782C139.632 32.7402 139.888 33.6266 140.4 34.2374C140.912 34.8333 141.53 35.1313 142.256 35.1313Z" fill="white"/>
<path d="M154.172 37.5C153.333 37.5 152.572 37.3734 151.889 37.1201C151.207 36.852 150.624 36.4646 150.14 35.9581C149.657 35.4516 149.28 34.8333 149.009 34.1034C148.753 33.3734 148.625 32.5317 148.625 31.5782C148.625 30.6248 148.753 29.7831 149.009 29.0531C149.28 28.3082 149.657 27.6899 150.14 27.1983C150.624 26.6918 151.207 26.3119 151.889 26.0587C152.572 25.7905 153.333 25.6564 154.172 25.6564C155.025 25.6564 155.793 25.7905 156.476 26.0587C157.159 26.3119 157.742 26.6918 158.225 27.1983C158.723 27.6899 159.1 28.3082 159.356 29.0531C159.626 29.7831 159.761 30.6248 159.761 31.5782C159.761 32.5317 159.626 33.3734 159.356 34.1034C159.1 34.8333 158.73 35.4516 158.247 35.9581C157.763 36.4646 157.173 36.852 156.476 37.1201C155.793 37.3734 155.025 37.5 154.172 37.5ZM154.172 35.1313C154.542 35.1313 154.89 35.0568 155.217 34.9078C155.544 34.7588 155.829 34.5354 156.071 34.2374C156.312 33.9246 156.504 33.5521 156.647 33.1201C156.789 32.6732 156.86 32.1592 156.86 31.5782C156.86 30.9972 156.789 30.4832 156.647 30.0363C156.504 29.5894 156.312 29.2169 156.071 28.919C155.829 28.6061 155.544 28.3752 155.217 28.2263C154.89 28.0773 154.542 28.0028 154.172 28.0028C153.447 28.0028 152.828 28.3082 152.316 28.919C151.804 29.5149 151.548 30.4013 151.548 31.5782C151.548 32.7402 151.804 33.6266 152.316 34.2374C152.828 34.8333 153.447 35.1313 154.172 35.1313Z" fill="white"/>
<path d="M169.092 35.4218H169.049C168.722 36.0475 168.224 36.554 167.556 36.9413C166.901 37.3138 166.169 37.5 165.358 37.5C164.733 37.5 164.142 37.3734 163.588 37.1201C163.033 36.852 162.549 36.4646 162.137 35.9581C161.725 35.4516 161.397 34.8333 161.156 34.1034C160.914 33.3585 160.793 32.5168 160.793 31.5782C160.793 30.6397 160.907 29.8054 161.134 29.0754C161.362 28.3305 161.682 27.7123 162.094 27.2207C162.507 26.7142 162.99 26.3268 163.545 26.0587C164.114 25.7905 164.74 25.6564 165.422 25.6564C166.205 25.6564 166.887 25.8352 167.47 26.1927C168.068 26.5503 168.551 27.0717 168.921 27.757H168.964V21.6788H171.95V37.3212H169.092V35.4218ZM166.382 35.0642C167.179 35.0642 167.812 34.7588 168.281 34.148C168.764 33.5372 169.006 32.6881 169.006 31.6006C169.006 30.513 168.764 29.6564 168.281 29.0307C167.812 28.405 167.179 28.0922 166.382 28.0922C165.586 28.0922 164.946 28.405 164.462 29.0307C163.979 29.6415 163.737 30.4907 163.737 31.5782C163.737 32.6806 163.972 33.5372 164.441 34.148C164.925 34.7588 165.572 35.0642 166.382 35.0642Z" fill="white"/>
<path d="M173.014 21.6788H176.171L178.624 33.0531H178.688L181.611 21.6788H184.021L186.944 33.0531H187.008L189.44 21.6788H192.64L188.779 37.3212H185.792L182.848 26.2598H182.784L179.861 37.3212H176.832L173.014 21.6788Z" fill="white"/>
<path d="M197.963 37.5C197.124 37.5 196.363 37.3734 195.681 37.1201C194.998 36.852 194.415 36.4646 193.931 35.9581C193.448 35.4516 193.071 34.8333 192.801 34.1034C192.545 33.3734 192.417 32.5317 192.417 31.5782C192.417 30.6248 192.545 29.7831 192.801 29.0531C193.071 28.3082 193.448 27.6899 193.931 27.1983C194.415 26.6918 194.998 26.3119 195.681 26.0587C196.363 25.7905 197.124 25.6564 197.963 25.6564C198.817 25.6564 199.584 25.7905 200.267 26.0587C200.95 26.3119 201.533 26.6918 202.016 27.1983C202.514 27.6899 202.891 28.3082 203.147 29.0531C203.417 29.7831 203.552 30.6248 203.552 31.5782C203.552 32.5317 203.417 33.3734 203.147 34.1034C202.891 34.8333 202.521 35.4516 202.038 35.9581C201.554 36.4646 200.964 36.852 200.267 37.1201C199.584 37.3734 198.817 37.5 197.963 37.5ZM197.963 35.1313C198.333 35.1313 198.682 35.0568 199.009 34.9078C199.336 34.7588 199.62 34.5354 199.862 34.2374C200.104 33.9246 200.296 33.5521 200.438 33.1201C200.58 32.6732 200.651 32.1592 200.651 31.5782C200.651 30.9972 200.58 30.4832 200.438 30.0363C200.296 29.5894 200.104 29.2169 199.862 28.919C199.62 28.6061 199.336 28.3752 199.009 28.2263C198.682 28.0773 198.333 28.0028 197.963 28.0028C197.238 28.0028 196.619 28.3082 196.107 28.919C195.595 29.5149 195.339 30.4013 195.339 31.5782C195.339 32.7402 195.595 33.6266 196.107 34.2374C196.619 34.8333 197.238 35.1313 197.963 35.1313Z" fill="white"/>
<path d="M204.947 25.8128H207.848V27.824H207.891C208.132 27.0196 208.573 26.4236 209.213 26.0363C209.868 25.649 210.714 25.5372 211.752 25.7011V28.2709C211.155 28.1667 210.614 28.1816 210.131 28.3156C209.661 28.4497 209.263 28.6657 208.936 28.9637C208.609 29.2616 208.353 29.6266 208.168 30.0587C207.997 30.4758 207.912 30.9302 207.912 31.4218V37.3212H204.947V25.8128Z" fill="white"/>
<path d="M212.842 21.6788H215.829V30.1257L219.904 25.8128H223.445L218.581 30.6397C218.951 30.6993 219.306 30.8259 219.648 31.0196C219.989 31.1983 220.266 31.459 220.48 31.8017L223.701 37.3212H220.416L218.09 33.2989C217.934 33.0158 217.763 32.7998 217.578 32.6508C217.394 32.487 217.173 32.3752 216.917 32.3156L215.829 33.4106V37.3212H212.842V21.6788Z" fill="white"/>
<path d="M227.173 33.8799C227.273 34.3268 227.507 34.6844 227.877 34.9525C228.247 35.2058 228.702 35.3324 229.243 35.3324C229.783 35.3324 230.21 35.2207 230.523 34.9972C230.85 34.7737 231.013 34.4683 231.013 34.081C231.013 33.798 230.907 33.5596 230.693 33.3659C230.48 33.1723 230.046 33.0009 229.392 32.852L227.771 32.5168C226.704 32.2784 225.893 31.8911 225.339 31.3547C224.784 30.8184 224.507 30.1257 224.507 29.2765C224.507 28.6806 224.627 28.1592 224.869 27.7123C225.125 27.2654 225.467 26.8929 225.893 26.595C226.32 26.297 226.811 26.0736 227.365 25.9246C227.92 25.7756 228.496 25.7011 229.093 25.7011C229.676 25.7011 230.231 25.7682 230.757 25.9022C231.283 26.0363 231.753 26.2523 232.165 26.5503C232.592 26.8482 232.94 27.2281 233.21 27.6899C233.481 28.1518 233.644 28.7104 233.701 29.3659H230.971C230.899 28.8892 230.693 28.5168 230.352 28.2486C230.025 27.9655 229.598 27.824 229.072 27.824C228.617 27.824 228.219 27.9432 227.877 28.1816C227.55 28.4199 227.387 28.7328 227.387 29.1201C227.387 29.4032 227.493 29.649 227.707 29.8575C227.92 30.0512 228.354 30.2151 229.008 30.3492L230.608 30.662C231.76 30.9004 232.613 31.2728 233.168 31.7793C233.722 32.2709 234 32.9264 234 33.7458C234 34.8929 233.587 35.8091 232.762 36.4944C231.952 37.1648 230.771 37.5 229.221 37.5C228.638 37.5 228.069 37.433 227.515 37.2989C226.974 37.1648 226.476 36.9562 226.021 36.6732C225.58 36.3752 225.211 36.0028 224.912 35.5559C224.613 35.094 224.421 34.5354 224.336 33.8799H227.173Z" fill="white"/>
</svg>
