<svg width="244" height="80" viewBox="0 0 244 80" fill="none" xmlns="http://www.w3.org/2000/svg">
<g clip-path="url(#clip0_390_6849)">
<path d="M46.2897 10C46.5993 10.057 46.9053 10.121 47.2185 10.1708C51.0194 10.7724 54.3896 12.3101 57.2794 14.8622C58.6424 16.0653 59.7635 17.4677 60.5642 19.1086C60.6141 19.2119 60.7173 19.308 60.8169 19.3578C62.7422 20.3046 64.3295 21.6643 65.6712 23.3195C66.778 24.6863 67.6713 26.1884 68.3724 27.8009C69.0699 29.4026 69.5681 31.0613 69.8137 32.7912C70.0842 34.7062 70.0771 36.6176 69.6607 38.5148C69.5859 38.8459 69.4863 39.1733 69.376 39.4972C69.2799 39.7784 69.255 40.0418 69.3582 40.3337C70.0379 42.2309 70.0735 44.1957 69.9347 46.1712C69.7852 48.2998 69.2051 50.3287 68.3332 52.2686C67.0058 55.2194 65.1409 57.7608 62.4504 59.626C61.9664 59.9606 61.4326 60.2204 60.9272 60.5301C60.8027 60.6049 60.671 60.7116 60.6069 60.8362C59.5464 62.9861 57.9805 64.7053 56.0694 66.1149C53.0444 68.3431 49.6599 69.6387 45.9017 69.9413C43.9657 70.0979 42.0724 69.9057 40.2254 69.2935C40.1115 69.2543 39.9585 69.2615 39.8446 69.3006C37.9477 69.9484 35.9939 70.1015 34.0116 69.9413C30.894 69.6921 28.0185 68.6991 25.36 67.0653C23.0539 65.6486 21.1001 63.8653 19.7797 61.4698C19.4737 60.9145 19.0964 60.555 18.5484 60.256C16.4664 59.1099 14.84 57.4583 13.4912 55.5148C12.4698 54.0412 11.6691 52.4572 11.0783 50.7736C10.5196 49.179 10.1388 47.5345 10.0498 45.8366C10.0463 45.7797 10.0178 45.7227 10 45.6693C10 45.0037 10 44.3381 10 43.6725C10.0178 43.6369 10.0463 43.6049 10.0498 43.5693C10.0961 42.4267 10.3452 41.3197 10.6869 40.2341C10.7296 40.0988 10.7189 39.9315 10.6833 39.7927C10.5445 39.2018 10.3701 38.6181 10.242 38.0236C10.1352 37.5217 10.0783 37.0127 10 36.5073C10 35.7171 10 34.9269 10 34.1367C10.0142 34.1118 10.0427 34.0904 10.0463 34.0619C10.1744 33.2148 10.2349 32.3498 10.4449 31.524C10.7367 30.3637 11.0712 29.2033 11.5125 28.0963C12.2243 26.3094 13.2172 24.6721 14.4557 23.1949C15.7476 21.6537 17.2423 20.3651 19.0502 19.4539C19.2032 19.3792 19.3349 19.2261 19.4274 19.0766C19.7335 18.5854 19.9826 18.0586 20.31 17.5816C21.4382 15.9301 22.8653 14.5739 24.5166 13.4456C26.9046 11.8118 29.5203 10.7475 32.3674 10.2456C32.8301 10.1637 33.2927 10.0854 33.7518 10.0036C34.7696 10.0036 35.7875 10.0036 36.8053 10.0036C36.8587 10.0249 36.9085 10.057 36.9619 10.0676C37.6523 10.1993 38.3676 10.2598 39.0296 10.4734C39.6809 10.6834 40.2716 10.7368 40.9051 10.4627C41.1934 10.3381 41.5279 10.3061 41.8411 10.242C42.2397 10.1602 42.6383 10.0854 43.0369 10.0071C44.1259 9.99999 45.2078 10 46.2897 10ZM19.9328 60.9323C19.9185 60.9217 19.9079 60.9074 19.8936 60.8967C19.8901 60.8967 19.8794 60.9074 19.8723 60.9145C19.8865 60.9252 19.9007 60.9359 19.9185 60.9465C20.3954 61.4342 20.8438 61.9503 21.3492 62.406C22.9791 63.8725 24.8298 65.0186 26.7836 65.9867C29.8228 67.4924 33.0009 68.5745 36.3854 68.9589C37.3961 69.0728 38.4175 69.0621 39.4353 69.1084C35.727 67.0546 33.3141 63.8974 31.4279 60.2667C31.3923 60.2703 31.3709 60.2667 31.3531 60.2703C31.2748 60.2952 31.1965 60.3237 31.1182 60.3486C28.4776 61.2384 25.7729 61.7118 22.9863 61.4769C21.9578 61.3915 20.947 61.121 19.9328 60.9323ZM25.8334 29.3741C25.8369 29.4133 25.844 29.4525 25.8476 29.4916C25.7515 29.5379 25.6554 29.5841 25.5558 29.6268C24.1571 30.1999 22.7478 30.7552 21.3599 31.3496C20.4951 31.7234 20.4915 31.759 20.8652 32.6204C21.488 34.0548 22.1321 35.475 22.7621 36.906C22.7941 36.9807 22.7834 37.0733 22.7941 37.1551C22.7122 37.1124 22.5948 37.091 22.5521 37.0234C22.0788 36.2225 21.5876 35.4323 21.1535 34.6101C20.7264 33.7985 20.3598 32.955 19.9577 32.1114C19.9221 32.1292 19.8723 32.1434 19.8296 32.1683C18.3348 33.0475 16.986 34.0975 15.833 35.4003C14.6372 36.7529 13.7297 38.2977 12.8471 39.8568C12.8079 39.9244 12.8151 40.0561 12.8542 40.1273C13.0535 40.4903 13.2741 40.8391 13.4877 41.1951C14.6692 43.1955 16.0785 45.0002 17.9825 46.3741C18.5733 46.8013 19.1961 47.1857 19.8011 47.5879C20.2246 46.6624 20.6018 45.7904 21.0182 44.9397C21.431 44.0961 21.8617 43.256 22.4311 42.5085C22.4809 42.5335 22.5307 42.5584 22.5806 42.5833C21.7869 44.3132 20.9755 46.036 20.4452 47.8976C22.1748 48.8266 24.0112 49.4637 25.8583 50.0866C25.8369 50.1472 25.8191 50.2041 25.7978 50.2646C23.8938 49.9158 22.061 49.3142 20.2068 48.5312C20.0467 49.4602 19.8687 50.3394 19.7477 51.2292C19.5662 52.5747 19.584 53.9273 19.8331 55.2585C20.0644 56.4865 20.3812 57.7003 20.6445 58.9212C20.6979 59.1633 20.8047 59.2985 21.0574 59.3341C21.2602 59.3626 21.4595 59.4338 21.6588 59.4872C23.9187 60.0709 26.1999 60.4767 28.5452 60.135C29.3993 60.0104 30.2463 59.8253 31.0969 59.6687C31.0827 59.5584 31.0862 59.5263 31.0755 59.4979C30.6734 58.4229 30.2535 57.355 29.8762 56.2694C29.6734 55.6857 29.5417 55.077 29.3887 54.4755C29.3637 54.3758 29.3851 54.2655 29.3851 54.1622C29.4314 54.1551 29.4776 54.148 29.5239 54.1409C30.1645 55.9455 30.8371 57.7359 31.7695 59.4124C31.8371 59.3946 31.8798 59.3875 31.919 59.3733C33.6415 58.8216 35.2821 58.0705 36.8907 57.2518C36.969 57.2127 37.0758 57.2162 37.1683 57.202C37.1185 57.2874 37.09 57.412 37.0153 57.4547C36.0117 58.0349 35.0116 58.6222 33.9867 59.1704C33.3888 59.4907 32.7482 59.7363 32.1076 60.0246C32.9475 61.4983 33.9582 62.8117 35.1896 63.9543C36.5775 65.2428 38.1933 66.1932 39.8303 67.1151C39.9264 67.1685 40.1115 67.1542 40.2147 67.0973C40.6346 66.8695 41.0368 66.6097 41.4425 66.3641C43.3892 65.1894 45.1295 63.787 46.4569 61.9183C46.8555 61.3559 47.2221 60.7686 47.6242 60.1599C47.4605 60.0958 47.3573 60.0531 47.2541 60.0104C45.6846 59.4017 44.1899 58.64 42.7593 57.7502C42.6667 57.6932 42.5991 57.5971 42.5208 57.5188C42.5457 57.4867 42.5706 57.4583 42.5956 57.4262C42.6774 57.4547 42.7628 57.4796 42.8411 57.5152C43.1045 57.6362 43.3607 57.7786 43.6276 57.8854C44.9729 58.4229 46.3252 58.9497 47.6705 59.4836C47.8306 59.5477 47.9338 59.5334 48.0121 59.359C48.2862 58.7468 48.6029 58.1488 48.8485 57.5223C49.2613 56.4652 49.6279 55.3867 50.0229 54.3224C50.0442 54.2583 50.1261 54.2192 50.1795 54.1658C50.2044 54.237 50.2613 54.3153 50.2471 54.3758C50.0122 55.3084 49.7951 56.2481 49.514 57.1664C49.2471 58.0313 48.9054 58.8785 48.5887 59.7541C48.9339 59.836 49.2826 59.925 49.635 59.9998C51.3824 60.3699 53.1511 60.5087 54.9163 60.2062C56.3043 59.9677 57.6709 59.6224 59.041 59.3021C59.1514 59.2772 59.2795 59.1134 59.3115 58.9924C59.493 58.3019 59.6852 57.6113 59.8026 56.9101C59.9806 55.853 60.1514 54.7887 60.2297 53.7173C60.3222 52.4822 60.1585 51.2541 59.9058 50.0404C59.8275 49.6559 59.7137 49.2751 59.6282 48.9334C58.3827 49.3676 57.1975 49.7983 55.9982 50.197C55.4679 50.3714 54.9163 50.4853 54.3718 50.617C54.3149 50.6312 54.2366 50.5743 54.1725 50.5529C54.2152 50.5031 54.2508 50.439 54.3042 50.4105C54.4145 50.3572 54.5391 50.3287 54.653 50.2788C56.1406 49.6524 57.6282 49.0224 59.1193 48.3995C59.372 48.2927 59.4254 48.1503 59.3257 47.8976C59.1015 47.3423 58.9272 46.7657 58.6852 46.2175C58.2189 45.1604 57.7136 44.1139 57.2331 43.0638C57.2011 42.9926 57.2225 42.9001 57.2189 42.8182C57.2901 42.8574 57.3968 42.8787 57.4324 42.9392C58.0908 44.1139 58.7492 45.2849 59.3827 46.4702C59.6247 46.9223 59.8062 47.4064 60.0197 47.894C61.5038 47.0469 62.8277 46.0217 63.9736 44.7795C65.0982 43.5621 65.9666 42.1633 66.7887 40.7324C67.23 39.9671 67.2264 39.9671 66.7602 39.2125C66.7175 39.1413 66.6712 39.0737 66.6285 39.0025C65.6605 37.3758 64.5857 35.831 63.1693 34.5532C62.2476 33.7238 61.2404 33.0226 60.1478 32.4068C60.0126 32.7343 59.9058 33.0582 59.7528 33.3607C59.0873 34.6671 58.4076 35.9698 57.7278 37.269C57.6887 37.3438 57.5819 37.3829 57.5072 37.4399C57.5072 37.3402 57.4787 37.2263 57.5143 37.1409C57.8524 36.3863 58.2261 35.6459 58.5392 34.8806C58.9165 33.9658 59.2439 33.0297 59.5998 32.0864C59.0731 31.8373 58.6175 31.5881 58.1335 31.403C56.8879 30.919 55.6316 30.4633 54.3825 29.9899C54.3006 29.9579 54.2437 29.8725 54.1725 29.8119C54.2615 29.7942 54.3611 29.7443 54.4394 29.7657C55.6103 30.086 56.7812 30.3957 57.9413 30.7481C58.5428 30.9296 59.1229 31.1859 59.7884 31.4351C59.9272 30.652 60.0695 29.8903 60.1941 29.1285C60.4468 27.5909 60.4112 26.0496 60.13 24.5226C59.9308 23.4476 59.6211 22.3905 59.4183 21.3155C59.3293 20.835 59.0802 20.6891 58.646 20.5716C55.9733 19.8668 53.2899 19.4361 50.5318 19.9914C49.9802 20.1018 49.4357 20.237 48.8841 20.358C48.9054 20.4506 48.909 20.4826 48.9197 20.5075C49.6706 22.1271 50.2222 23.8143 50.6101 25.5548C50.6279 25.6332 50.5745 25.7293 50.5567 25.8182C50.5033 25.7542 50.4286 25.7008 50.4001 25.626C50.0763 24.786 49.7809 23.9353 49.4357 23.1095C49.0762 22.2552 48.667 21.4187 48.2684 20.5538C47.9161 20.6712 47.6029 20.7531 47.311 20.8813C45.9444 21.4793 44.585 22.0915 43.2184 22.6859C43.0974 22.7393 42.9479 22.7286 42.8091 22.75C42.8945 22.661 42.9657 22.5435 43.0689 22.4866C44.2931 21.8103 45.5174 21.1376 46.7523 20.4791C47.1189 20.2833 47.5175 20.1409 47.9089 19.9736C47.1865 18.7135 46.3537 17.5817 45.3679 16.5672C44.0689 15.2289 42.5279 14.2215 40.9265 13.2961C40.6204 13.1217 40.3143 12.8155 40.0083 12.8155C39.7022 12.8155 39.3997 13.1288 39.0972 13.3067C37.1932 14.428 35.396 15.6916 34.0294 17.4606C33.4493 18.2117 32.9333 19.009 32.3638 19.817C32.556 19.8953 32.6699 19.9416 32.7838 19.9843C34.3604 20.6107 35.8658 21.3689 37.3035 22.2695C37.3783 22.3157 37.4174 22.4118 37.4744 22.4866C37.4495 22.515 37.4245 22.5435 37.3996 22.572C35.6843 21.7498 33.9475 20.9738 32.0471 20.4079C31.5987 21.4757 31.1325 22.5364 30.7054 23.6078C30.4456 24.2592 30.2428 24.9355 30.0079 25.5976C29.9759 25.683 29.9047 25.7542 29.8513 25.836C29.8122 25.8182 29.7766 25.8004 29.7374 25.7826C30.0933 23.8783 30.6841 22.0416 31.4528 20.2406C31.2108 20.18 30.9901 20.1231 30.7695 20.0697C29.0292 19.6568 27.264 19.4788 25.4917 19.7316C24.1536 19.9238 22.8368 20.2797 21.5022 20.5253C20.9542 20.625 20.6944 20.8564 20.5556 21.4365C20.1107 23.3266 19.7086 25.2131 19.7655 27.1708C19.8046 28.5021 20.0289 29.7977 20.3883 31.0934C20.4666 31.0685 20.5271 31.0542 20.584 31.0293C22.1784 30.3138 23.8297 29.7692 25.5308 29.3813C25.6234 29.3564 25.7301 29.3741 25.8334 29.3741ZM31.7446 19.5821C32.6094 17.8095 33.6308 16.1614 34.912 14.6771C36.1967 13.1857 37.6345 11.883 39.446 10.9611C33.6771 10.388 23.9507 14.2073 19.8723 19.041C23.8867 17.8308 27.8121 18.3398 31.7446 19.5821ZM19.7335 31.3995C18.4808 27.6193 17.9398 23.8214 19.0608 19.8704C18.9149 19.9914 18.8153 20.0626 18.7228 20.148C16.4309 22.3086 14.8151 24.9355 13.5339 27.7724C13.0001 28.9577 12.5268 30.1786 12.1389 31.4173C11.7474 32.6666 11.4627 33.9516 11.1993 35.2366C11.0321 36.0552 10.9644 36.8953 10.9004 37.7282C10.8612 38.2799 10.9111 38.8423 10.9253 39.4759C12.9467 35.6993 16.0928 33.2967 19.7335 31.3995ZM40.5777 69.0265C47.0263 69.5427 56.6068 65.2855 60.1478 60.8967C59.9699 60.9572 59.8062 61.0142 59.6389 61.064C57.8666 61.5837 56.0516 61.6905 54.2188 61.5766C52.2721 61.4591 50.3788 61.0676 48.5282 60.4589C48.3075 60.3841 48.2186 60.4518 48.1296 60.6404C47.521 61.904 46.795 63.0929 45.9587 64.2177C44.8056 65.7625 43.4817 67.14 41.8838 68.2328C41.4781 68.5069 41.0475 68.7418 40.5777 69.0265ZM60.3898 31.7198C62.1586 32.5705 63.817 33.6063 65.3082 34.8877C66.7993 36.1691 68.1019 37.6143 69.0307 39.4403C69.0485 39.2837 69.0663 39.184 69.0699 39.0879C69.1589 37.6819 69.0058 36.2937 68.7567 34.9162C68.3154 32.4638 67.536 30.1181 66.5075 27.8471C65.4327 25.4765 64.1266 23.2519 62.4077 21.287C61.9629 20.7816 61.4682 20.3189 60.9948 19.8383C61.5571 21.821 61.7102 23.8 61.5749 25.8218C61.4468 27.84 61.0233 29.7906 60.3898 31.7198ZM40.5136 10.9397C42.4283 11.8616 43.923 13.1928 45.2612 14.7127C46.5957 16.2255 47.6812 17.9091 48.5709 19.7138C52.3682 18.4679 56.1833 17.9055 60.098 19.041C56.5747 14.6771 46.9516 10.388 40.5136 10.9397ZM18.9505 60.1208C18.9861 60.0923 19.0217 60.0603 19.0573 60.0318C19.0003 59.8574 18.9399 59.683 18.89 59.5085C18.4665 57.9495 18.3526 56.3691 18.4025 54.7566C18.4701 52.5818 18.8793 50.4853 19.5662 48.4315C19.6196 48.2749 19.5733 48.2144 19.4381 48.1503C18.1284 47.5381 16.9006 46.787 15.7476 45.9185C14.1888 44.7474 12.7973 43.4126 11.7047 41.7824C11.4627 41.4229 11.2456 41.042 11.0178 40.6719C10.9929 40.679 10.9644 40.6825 10.9395 40.6897C10.9395 41.3161 10.9075 41.9426 10.9467 42.5655C11.0427 44.1495 11.3239 45.7014 11.7367 47.2355C12.2136 49.0081 12.8329 50.7238 13.6051 52.3825C14.6585 54.6534 15.9326 56.7927 17.591 58.6792C18.0288 59.1775 18.4986 59.6438 18.9505 60.1208ZM69.077 40.5046C67.0591 44.2634 63.9202 46.6731 60.276 48.5667C61.5287 52.3362 62.0589 56.1484 60.9343 60.1457C63.9736 57.355 65.874 53.9344 67.3011 50.2219C68.4898 47.1252 69.2372 43.9359 69.077 40.5046Z" fill="#325AE1"/>
<path d="M24.0041 55.9953C24.3529 55.376 24.6483 54.7139 25.0646 54.1444C26.4811 52.2081 28.3673 50.8128 30.4421 49.6595C33.1895 48.136 36.1327 47.1892 39.2396 46.7372C40.2503 46.5912 41.2254 46.7479 42.2005 46.9258C45.1757 47.4704 47.9766 48.492 50.571 50.0546C52.3682 51.1367 54.0124 52.4145 55.258 54.1266C55.6494 54.6677 55.9484 55.2763 56.29 55.8565C56.3114 55.8957 56.3114 55.9491 56.3256 56.0167C56.0231 55.6857 55.7598 55.3546 55.4501 55.0734C54.4964 54.2049 53.3611 53.6212 52.1938 53.0979C49.3859 51.8414 46.4391 51.0513 43.4319 50.4711C42.4568 50.2824 41.4745 50.0795 40.4852 50.0012C39.8374 49.9478 39.1648 50.0724 38.5136 50.1792C36.1184 50.5672 33.7482 51.094 31.435 51.8414C29.4385 52.4893 27.4882 53.2367 25.723 54.4007C25.0611 54.8385 24.4739 55.3546 24.0361 56.0238C24.029 56.0167 24.0148 56.006 24.0041 55.9953Z" fill="#325AE1"/>
<path d="M53.6458 49.7592C53.4038 49.4531 53.2009 49.1541 52.9589 48.8978C52.0336 47.9189 50.8913 47.2462 49.699 46.6553C46.9338 45.2956 44.0013 44.4769 40.9834 43.9039C40.0617 43.7294 39.2147 43.9394 38.3498 44.1139C35.5739 44.6691 32.887 45.4949 30.3602 46.7906C29.2036 47.385 28.0968 48.0542 27.232 49.0544C27.0184 49.3 26.8476 49.5776 26.6554 49.841C26.627 49.8268 26.5985 49.8126 26.57 49.7983C26.8441 49.2466 27.0861 48.6735 27.4028 48.1467C28.8833 45.6978 31.0186 43.9644 33.4956 42.6118C35.4636 41.5368 37.5527 40.8178 39.777 40.5402C40.2788 40.4797 40.8126 40.558 41.3144 40.6505C44.407 41.2271 47.19 42.505 49.6492 44.4662C51.3326 45.8082 52.7241 47.3921 53.5675 49.4032C53.596 49.4709 53.6245 49.5349 53.6458 49.6061C53.6565 49.6453 53.6458 49.688 53.6458 49.7592Z" fill="#325AE1"/>
<path d="M50.9838 43.5835C50.4428 42.4053 49.4926 41.6044 48.4606 40.8961C46.3502 39.4438 43.9942 38.554 41.5279 37.9204C41.3784 37.8813 41.2218 37.8635 41.0759 37.8065C40.1044 37.4434 39.1969 37.8136 38.2858 38.0557C36.0473 38.6537 33.9191 39.515 31.9831 40.8036C31.0898 41.398 30.2712 42.0814 29.6662 42.9855C29.5025 43.2311 29.3815 43.5052 29.1894 43.7543C29.2641 43.5087 29.3246 43.2596 29.4136 43.0176C29.9937 41.4443 30.8763 40.0525 32.0115 38.8209C33.6166 37.0732 35.5063 35.7349 37.7448 34.934C38.4815 34.6706 39.2538 34.4535 40.0296 34.3574C40.5101 34.2969 41.0368 34.4499 41.5208 34.5887C45.4177 35.7384 48.3467 38.1091 50.3076 41.6614C50.6279 42.2416 50.7987 42.9072 51.0372 43.5337C51.0229 43.5515 51.0051 43.5693 50.9838 43.5835Z" fill="#325AE1"/>
<path d="M31.8941 37.4968C32.1859 35.9627 32.7553 34.5531 33.5739 33.2504C34.5312 31.7234 35.7127 30.4028 37.2217 29.3955C38.0723 28.826 38.9798 28.3454 40.0012 28.2173C40.414 28.1639 40.8766 28.3205 41.2859 28.47C43.1436 29.1463 44.5778 30.3957 45.8021 31.9085C46.9089 33.2753 47.7061 34.8094 48.2328 36.4859C48.3467 36.849 48.4214 37.2263 48.4748 37.6143C48.1403 36.5429 47.4783 35.6886 46.6882 34.9376C45.343 33.6562 43.7629 32.7378 42.0368 32.0686C41.8553 31.9975 41.6631 31.9441 41.4852 31.8586C40.6133 31.4422 39.7627 31.4813 38.8623 31.8373C37.0615 32.5385 35.3569 33.3892 33.9155 34.6955C33.0792 35.4537 32.3425 36.2902 31.9653 37.3829C31.9475 37.4221 31.919 37.4577 31.8941 37.4968Z" fill="#325AE1"/>
<path d="M45.7736 31.104C45.6135 30.7196 45.4711 30.3245 45.2932 29.9472C44.5778 28.4344 43.4675 27.2598 42.1044 26.3308C41.5599 25.9606 40.9514 25.6865 40.3606 25.3911C40.2503 25.3377 40.0723 25.3413 39.9549 25.3875C38.1933 26.1137 36.7804 27.2776 35.6771 28.826C35.1504 29.5663 34.7518 30.3672 34.5561 31.2607C34.5525 31.282 34.5205 31.2998 34.4422 31.3034C34.5241 30.9012 34.5988 30.4954 34.6878 30.0932C35.2358 27.6656 36.1718 25.4231 37.8409 23.5366C38.3605 22.9493 38.9691 22.4759 39.6915 22.1484C40.0047 22.0061 40.2859 21.9989 40.6062 22.1413C41.5528 22.5613 42.2753 23.2448 42.9052 24.0421C43.8625 25.2452 44.5565 26.5942 45.0369 28.05C45.3145 28.89 45.5174 29.7586 45.7452 30.6164C45.7879 30.773 45.7879 30.9403 45.8057 31.1005C45.8021 31.1005 45.7879 31.1005 45.7736 31.104Z" fill="#325AE1"/>
<path d="M51.0407 43.5337C51.087 43.6618 51.1368 43.7935 51.1831 43.9217C51.1582 43.9288 51.1333 43.9395 51.1083 43.9466C51.0656 43.8256 51.0265 43.7045 50.9838 43.5799C51.0051 43.5693 51.0229 43.5515 51.0407 43.5337Z" fill="#325AE1"/>
<path d="M53.7668 50.0973C53.717 50.0048 53.6707 49.9158 53.6209 49.8232C53.6458 49.8126 53.6743 49.8019 53.6992 49.7912C53.7277 49.8873 53.7561 49.9834 53.7846 50.0795L53.7668 50.0973Z" fill="#325AE1"/>
<path d="M53.7846 50.0795C53.7988 50.1187 53.8131 50.1578 53.8273 50.2005C53.8131 50.2041 53.7988 50.2041 53.7846 50.2077C53.7775 50.1721 53.7704 50.1329 53.7633 50.0973C53.7668 50.0973 53.7846 50.0795 53.7846 50.0795Z" fill="#325AE1"/>
<path d="M24.0432 56.0274C24.0361 56.063 24.0255 56.0985 24.0183 56.1341C24.0041 56.1306 23.9934 56.1306 23.9792 56.1271C23.9863 56.0808 23.997 56.0381 24.0041 55.9918C24.0148 56.006 24.029 56.0167 24.0432 56.0274Z" fill="#325AE1"/>
<path d="M84.6754 42.6508C84.7608 43.351 85.0665 43.9171 85.5927 44.3492C86.1332 44.7663 86.8443 44.9749 87.7261 44.9749C88.622 44.9749 89.3189 44.7961 89.8167 44.4385C90.3287 44.0661 90.5847 43.5596 90.5847 42.919C90.5847 42.6359 90.5349 42.3976 90.4354 42.2039C90.35 41.9953 90.2007 41.8166 89.9874 41.6676C89.774 41.5037 89.4896 41.3622 89.134 41.243C88.7927 41.1089 88.3661 40.9898 87.8541 40.8855L86.3181 40.5503C84.839 40.2076 83.7296 39.6937 82.9901 39.0084C82.2506 38.3082 81.8808 37.3771 81.8808 36.2151C81.8808 35.5 82.023 34.852 82.3074 34.2709C82.6061 33.6899 83.0114 33.1983 83.5234 32.7961C84.0354 32.379 84.6399 32.0587 85.3367 31.8352C86.0336 31.6117 86.7874 31.5 87.5981 31.5C88.5225 31.5 89.3403 31.6266 90.0514 31.8799C90.7625 32.1182 91.3598 32.4609 91.8434 32.9078C92.3411 33.3399 92.718 33.8538 92.974 34.4497C93.23 35.0456 93.3651 35.6937 93.3793 36.3939H90.4354C90.3785 35.6937 90.1083 35.1201 89.6247 34.6732C89.1412 34.2114 88.4727 33.9804 87.6194 33.9804C86.8087 33.9804 86.1616 34.1667 85.6781 34.5391C85.2087 34.8966 84.9741 35.3734 84.9741 35.9693C84.9741 36.5056 85.1803 36.9302 85.5927 37.243C86.0052 37.5559 86.6807 37.8091 87.6194 38.0028L89.1127 38.338C90.7056 38.6508 91.8718 39.1499 92.6113 39.8352C93.3509 40.5056 93.7207 41.4367 93.7207 42.6285C93.7207 43.3883 93.5784 44.0661 93.294 44.662C93.0238 45.2579 92.6256 45.7719 92.0994 46.2039C91.5731 46.621 90.9402 46.9413 90.2007 47.1648C89.4612 47.3883 88.622 47.5 87.6834 47.5C86.8016 47.5 85.9981 47.3883 85.2727 47.1648C84.5474 46.9413 83.9216 46.621 83.3954 46.2039C82.8834 45.7719 82.4781 45.2579 82.1794 44.662C81.895 44.0661 81.7457 43.3957 81.7314 42.6508H84.6754Z" fill="#325AE1"/>
<path d="M99.5471 31.6788H103.43L108.656 47.3212H105.414L104.326 43.8575H98.6298L97.5845 47.3212H94.2992L99.5471 31.6788ZM103.707 41.5335L101.51 34.5391H101.424L99.2911 41.5335H103.707Z" fill="#325AE1"/>
<path d="M109.594 31.6788H112.666V37.9358L118.596 31.6788H122.202L115.78 38.4721C116.278 38.5466 116.769 38.7253 117.252 39.0084C117.736 39.2914 118.12 39.6862 118.404 40.1927L122.5 47.3212H119.13L115.93 41.7346C115.716 41.3771 115.453 41.0791 115.14 40.8408C114.842 40.5875 114.479 40.4162 114.052 40.3268L112.666 41.757V47.3212H109.594V31.6788Z" fill="#325AE1"/>
<path d="M127.306 31.6788H130.463L132.916 43.0531H132.98L135.903 31.6788H138.314L141.236 43.0531H141.3L143.732 31.6788H146.932L143.071 47.3212H140.084L137.14 36.2598H137.076L134.154 47.3212H131.124L127.306 31.6788Z" fill="#325AE1"/>
<path d="M152.256 47.5C151.416 47.5 150.656 47.3734 149.973 47.1201C149.29 46.852 148.707 46.4646 148.224 45.9581C147.74 45.4516 147.363 44.8333 147.093 44.1034C146.837 43.3734 146.709 42.5317 146.709 41.5782C146.709 40.6248 146.837 39.7831 147.093 39.0531C147.363 38.3082 147.74 37.6899 148.224 37.1983C148.707 36.6918 149.29 36.3119 149.973 36.0587C150.656 35.7905 151.416 35.6564 152.256 35.6564C153.109 35.6564 153.877 35.7905 154.559 36.0587C155.242 36.3119 155.825 36.6918 156.309 37.1983C156.807 37.6899 157.183 38.3082 157.439 39.0531C157.71 39.7831 157.845 40.6248 157.845 41.5782C157.845 42.5317 157.71 43.3734 157.439 44.1034C157.183 44.8333 156.814 45.4516 156.33 45.9581C155.847 46.4646 155.256 46.852 154.559 47.1201C153.877 47.3734 153.109 47.5 152.256 47.5ZM152.256 45.1313C152.625 45.1313 152.974 45.0568 153.301 44.9078C153.628 44.7588 153.912 44.5354 154.154 44.2374C154.396 43.9246 154.588 43.5521 154.73 43.1201C154.872 42.6732 154.943 42.1592 154.943 41.5782C154.943 40.9972 154.872 40.4832 154.73 40.0363C154.588 39.5894 154.396 39.2169 154.154 38.919C153.912 38.6061 153.628 38.3752 153.301 38.2263C152.974 38.0773 152.625 38.0028 152.256 38.0028C151.53 38.0028 150.912 38.3082 150.4 38.919C149.888 39.5149 149.632 40.4013 149.632 41.5782C149.632 42.7402 149.888 43.6266 150.4 44.2374C150.912 44.8333 151.53 45.1313 152.256 45.1313Z" fill="#325AE1"/>
<path d="M164.172 47.5C163.333 47.5 162.572 47.3734 161.889 47.1201C161.207 46.852 160.624 46.4646 160.14 45.9581C159.657 45.4516 159.28 44.8333 159.009 44.1034C158.753 43.3734 158.625 42.5317 158.625 41.5782C158.625 40.6248 158.753 39.7831 159.009 39.0531C159.28 38.3082 159.657 37.6899 160.14 37.1983C160.624 36.6918 161.207 36.3119 161.889 36.0587C162.572 35.7905 163.333 35.6564 164.172 35.6564C165.025 35.6564 165.793 35.7905 166.476 36.0587C167.159 36.3119 167.742 36.6918 168.225 37.1983C168.723 37.6899 169.1 38.3082 169.356 39.0531C169.626 39.7831 169.761 40.6248 169.761 41.5782C169.761 42.5317 169.626 43.3734 169.356 44.1034C169.1 44.8333 168.73 45.4516 168.247 45.9581C167.763 46.4646 167.173 46.852 166.476 47.1201C165.793 47.3734 165.025 47.5 164.172 47.5ZM164.172 45.1313C164.542 45.1313 164.89 45.0568 165.217 44.9078C165.544 44.7588 165.829 44.5354 166.071 44.2374C166.312 43.9246 166.504 43.5521 166.647 43.1201C166.789 42.6732 166.86 42.1592 166.86 41.5782C166.86 40.9972 166.789 40.4832 166.647 40.0363C166.504 39.5894 166.312 39.2169 166.071 38.919C165.829 38.6061 165.544 38.3752 165.217 38.2263C164.89 38.0773 164.542 38.0028 164.172 38.0028C163.447 38.0028 162.828 38.3082 162.316 38.919C161.804 39.5149 161.548 40.4013 161.548 41.5782C161.548 42.7402 161.804 43.6266 162.316 44.2374C162.828 44.8333 163.447 45.1313 164.172 45.1313Z" fill="#325AE1"/>
<path d="M179.092 45.4218H179.049C178.722 46.0475 178.224 46.554 177.556 46.9413C176.901 47.3138 176.169 47.5 175.358 47.5C174.733 47.5 174.142 47.3734 173.588 47.1201C173.033 46.852 172.549 46.4646 172.137 45.9581C171.725 45.4516 171.397 44.8333 171.156 44.1034C170.914 43.3585 170.793 42.5168 170.793 41.5782C170.793 40.6397 170.907 39.8054 171.134 39.0754C171.362 38.3305 171.682 37.7123 172.094 37.2207C172.507 36.7142 172.99 36.3268 173.545 36.0587C174.114 35.7905 174.74 35.6564 175.422 35.6564C176.205 35.6564 176.887 35.8352 177.47 36.1927C178.068 36.5503 178.551 37.0717 178.921 37.757H178.964V31.6788H181.95V47.3212H179.092V45.4218ZM176.382 45.0642C177.179 45.0642 177.812 44.7588 178.281 44.148C178.764 43.5372 179.006 42.6881 179.006 41.6006C179.006 40.513 178.764 39.6564 178.281 39.0307C177.812 38.405 177.179 38.0922 176.382 38.0922C175.586 38.0922 174.946 38.405 174.462 39.0307C173.979 39.6415 173.737 40.4907 173.737 41.5782C173.737 42.6806 173.972 43.5372 174.441 44.148C174.925 44.7588 175.572 45.0642 176.382 45.0642Z" fill="#325AE1"/>
<path d="M183.014 31.6788H186.171L188.624 43.0531H188.688L191.611 31.6788H194.021L196.944 43.0531H197.008L199.44 31.6788H202.64L198.779 47.3212H195.792L192.848 36.2598H192.784L189.861 47.3212H186.832L183.014 31.6788Z" fill="#325AE1"/>
<path d="M207.963 47.5C207.124 47.5 206.363 47.3734 205.681 47.1201C204.998 46.852 204.415 46.4646 203.931 45.9581C203.448 45.4516 203.071 44.8333 202.801 44.1034C202.545 43.3734 202.417 42.5317 202.417 41.5782C202.417 40.6248 202.545 39.7831 202.801 39.0531C203.071 38.3082 203.448 37.6899 203.931 37.1983C204.415 36.6918 204.998 36.3119 205.681 36.0587C206.363 35.7905 207.124 35.6564 207.963 35.6564C208.817 35.6564 209.584 35.7905 210.267 36.0587C210.95 36.3119 211.533 36.6918 212.016 37.1983C212.514 37.6899 212.891 38.3082 213.147 39.0531C213.417 39.7831 213.552 40.6248 213.552 41.5782C213.552 42.5317 213.417 43.3734 213.147 44.1034C212.891 44.8333 212.521 45.4516 212.038 45.9581C211.554 46.4646 210.964 46.852 210.267 47.1201C209.584 47.3734 208.817 47.5 207.963 47.5ZM207.963 45.1313C208.333 45.1313 208.682 45.0568 209.009 44.9078C209.336 44.7588 209.62 44.5354 209.862 44.2374C210.104 43.9246 210.296 43.5521 210.438 43.1201C210.58 42.6732 210.651 42.1592 210.651 41.5782C210.651 40.9972 210.58 40.4832 210.438 40.0363C210.296 39.5894 210.104 39.2169 209.862 38.919C209.62 38.6061 209.336 38.3752 209.009 38.2263C208.682 38.0773 208.333 38.0028 207.963 38.0028C207.238 38.0028 206.619 38.3082 206.107 38.919C205.595 39.5149 205.339 40.4013 205.339 41.5782C205.339 42.7402 205.595 43.6266 206.107 44.2374C206.619 44.8333 207.238 45.1313 207.963 45.1313Z" fill="#325AE1"/>
<path d="M214.947 35.8128H217.848V37.824H217.891C218.132 37.0196 218.573 36.4236 219.213 36.0363C219.868 35.649 220.714 35.5372 221.752 35.7011V38.2709C221.155 38.1667 220.614 38.1816 220.131 38.3156C219.661 38.4497 219.263 38.6657 218.936 38.9637C218.609 39.2616 218.353 39.6266 218.168 40.0587C217.997 40.4758 217.912 40.9302 217.912 41.4218V47.3212H214.947V35.8128Z" fill="#325AE1"/>
<path d="M222.842 31.6788H225.829V40.1257L229.904 35.8128H233.445L228.581 40.6397C228.951 40.6993 229.306 40.8259 229.648 41.0196C229.989 41.1983 230.266 41.459 230.48 41.8017L233.701 47.3212H230.416L228.09 43.2989C227.934 43.0158 227.763 42.7998 227.578 42.6508C227.394 42.487 227.173 42.3752 226.917 42.3156L225.829 43.4106V47.3212H222.842V31.6788Z" fill="#325AE1"/>
<path d="M237.173 43.8799C237.273 44.3268 237.507 44.6844 237.877 44.9525C238.247 45.2058 238.702 45.3324 239.243 45.3324C239.783 45.3324 240.21 45.2207 240.523 44.9972C240.85 44.7737 241.013 44.4683 241.013 44.081C241.013 43.798 240.907 43.5596 240.693 43.3659C240.48 43.1723 240.046 43.0009 239.392 42.852L237.771 42.5168C236.704 42.2784 235.893 41.8911 235.339 41.3547C234.784 40.8184 234.507 40.1257 234.507 39.2765C234.507 38.6806 234.627 38.1592 234.869 37.7123C235.125 37.2654 235.467 36.8929 235.893 36.595C236.32 36.297 236.811 36.0736 237.365 35.9246C237.92 35.7756 238.496 35.7011 239.093 35.7011C239.676 35.7011 240.231 35.7682 240.757 35.9022C241.283 36.0363 241.753 36.2523 242.165 36.5503C242.592 36.8482 242.94 37.2281 243.21 37.6899C243.481 38.1518 243.644 38.7104 243.701 39.3659H240.971C240.899 38.8892 240.693 38.5168 240.352 38.2486C240.025 37.9655 239.598 37.824 239.072 37.824C238.617 37.824 238.219 37.9432 237.877 38.1816C237.55 38.4199 237.387 38.7328 237.387 39.1201C237.387 39.4032 237.493 39.649 237.707 39.8575C237.92 40.0512 238.354 40.2151 239.008 40.3492L240.608 40.662C241.76 40.9004 242.613 41.2728 243.168 41.7793C243.722 42.2709 244 42.9264 244 43.7458C244 44.8929 243.587 45.8091 242.762 46.4944C241.952 47.1648 240.771 47.5 239.221 47.5C238.638 47.5 238.069 47.433 237.515 47.2989C236.974 47.1648 236.476 46.9562 236.021 46.6732C235.58 46.3752 235.211 46.0028 234.912 45.5559C234.613 45.094 234.421 44.5354 234.336 43.8799H237.173Z" fill="#325AE1"/>
</g>
<defs>
<clipPath id="clip0_390_6849">
<rect width="244" height="80" fill="white"/>
</clipPath>
</defs>
</svg>
